<?xml version="1.0" encoding="utf-8"?>
<!-- Generator: Adobe Illustrator 15.0.0, SVG Export Plug-In . SVG Version: 6.00 Build 0)  -->
<!DOCTYPE svg PUBLIC "-//W3C//DTD SVG 1.1//EN" "http://www.w3.org/Graphics/SVG/1.1/DTD/svg11.dtd">
<svg version="1.1" id="Layer_1" xmlns="http://www.w3.org/2000/svg" xmlns:xlink="http://www.w3.org/1999/xlink" x="0px" y="0px"
	 width="260.787px" height="243.78px" viewBox="0 0 260.787 243.78" enable-background="new 0 0 260.787 243.78"
	 xml:space="preserve">
<polygon fill="#EAEAFF" stroke="#231F20" stroke-width="3" stroke-miterlimit="10" points="51.023,51.022 51.023,221.103 
	209.764,164.407 209.764,107.715 "/>
<line fill="none" stroke="#F6921E" stroke-width="1.0465" stroke-miterlimit="10" x1="68.031" y1="158.739" x2="68.031" y2="28.347"/>
<line fill="none" stroke="#231F20" stroke-miterlimit="10" x1="141.732" y1="124.725" x2="141.732" y2="102.048"/>
<line fill="none" stroke="#231F20" stroke-miterlimit="10" x1="141.732" y1="170.079" x2="141.732" y2="147.402"/>
<g>
	<g>
		
			<line fill="none" stroke="#00ADEE" stroke-width="1.069" stroke-miterlimit="10" x1="236.951" y1="136.063" x2="192.756" y2="136.063"/>
		<g>
			<polygon fill="#00ADEE" points="233.409,131.691 232.68,132.475 236.541,136.063 232.68,139.651 233.409,140.435 238.11,136.063 
							"/>
		</g>
	</g>
</g>
<line fill="none" stroke="#231F20" stroke-miterlimit="10" x1="141.729" y1="102.048" x2="124.725" y2="102.048"/>
<line fill="none" stroke="#231F20" stroke-miterlimit="10" x1="158.737" y1="124.725" x2="141.732" y2="124.725"/>
<line fill="none" stroke="#231F20" stroke-miterlimit="10" x1="158.74" y1="147.402" x2="141.735" y2="147.402"/>
<line fill="none" stroke="#231F20" stroke-miterlimit="10" x1="141.729" y1="170.079" x2="124.725" y2="170.079"/>
<line fill="none" stroke="#F6921E" stroke-miterlimit="10" x1="79.37" y1="113.386" x2="68.031" y2="113.386"/>
<line fill="none" stroke="#F6921E" stroke-miterlimit="10" x1="90.708" y1="158.74" x2="68.031" y2="158.74"/>
<line fill="none" stroke="#00ADEE" stroke-width="1.0871" stroke-miterlimit="10" x1="90.708" y1="90.709" x2="17.008" y2="90.709"/>
<line fill="none" stroke="#00ADEE" stroke-width="1.0871" stroke-miterlimit="10" x1="90.708" y1="181.418" x2="17.008" y2="181.418"/>
<circle fill="none" stroke="#231F20" stroke-miterlimit="10" cx="85.039" cy="113.386" r="5.669"/>
<g opacity="0.5">
	<path opacity="0.7" fill="#231F20" d="M171.957,192.851v1.66c1.394-1.497,2.793-2.246,4.199-2.246c0.847,0,1.589,0.225,2.227,0.674
		s1.172,1.13,1.602,2.041c0.729-0.911,1.468-1.592,2.217-2.041s1.501-0.674,2.256-0.674c1.185,0,2.129,0.385,2.832,1.152
		c0.925,0.99,1.387,2.07,1.387,3.242v11.465h1.387c0.391,0,0.671,0.075,0.84,0.225c0.169,0.15,0.254,0.349,0.254,0.596
		c0,0.234-0.085,0.43-0.254,0.586s-0.449,0.234-0.84,0.234h-3.027v-12.949c0-0.833-0.254-1.523-0.762-2.07s-1.094-0.82-1.758-0.82
		c-0.599,0-1.23,0.225-1.895,0.674s-1.419,1.332-2.266,2.646v10.879h1.367c0.391,0,0.671,0.075,0.84,0.225
		c0.169,0.15,0.254,0.349,0.254,0.596c0,0.234-0.085,0.43-0.254,0.586s-0.449,0.234-0.84,0.234h-3.027v-12.832
		c0-0.872-0.257-1.592-0.771-2.158s-1.091-0.85-1.729-0.85c-0.586,0-1.165,0.189-1.738,0.566c-0.794,0.534-1.628,1.452-2.5,2.754
		v10.879h1.387c0.391,0,0.671,0.075,0.84,0.225c0.169,0.15,0.254,0.349,0.254,0.596c0,0.234-0.085,0.43-0.254,0.586
		s-0.449,0.234-0.84,0.234h-4.414c-0.391,0-0.671-0.078-0.84-0.234c-0.169-0.156-0.254-0.352-0.254-0.586
		c0-0.247,0.084-0.445,0.254-0.596c0.169-0.149,0.449-0.225,0.84-0.225h1.387v-13.613h-1.387c-0.391,0-0.671-0.078-0.84-0.234
		c-0.169-0.156-0.254-0.357-0.254-0.605c0-0.234,0.084-0.43,0.254-0.586c0.169-0.156,0.449-0.234,0.84-0.234H171.957z"/>
	<path opacity="0.7" fill="#231F20" d="M204.555,200.917l7.52,7.207c0.495,0,0.808,0.023,0.938,0.068
		c0.13,0.046,0.244,0.141,0.342,0.283c0.098,0.144,0.146,0.3,0.146,0.469c0,0.234-0.085,0.43-0.254,0.586s-0.456,0.234-0.859,0.234
		h-5.273c-0.403,0-0.69-0.078-0.859-0.234S206,209.179,206,208.944c0-0.247,0.085-0.445,0.254-0.596
		c0.169-0.149,0.456-0.225,0.859-0.225h2.715l-6.387-6.113l-6.348,6.113h2.734c0.391,0,0.671,0.075,0.84,0.225
		c0.169,0.15,0.254,0.349,0.254,0.596c0,0.234-0.085,0.43-0.254,0.586s-0.449,0.234-0.84,0.234h-5.332
		c-0.391,0-0.671-0.078-0.84-0.234s-0.254-0.352-0.254-0.586c0-0.169,0.049-0.325,0.146-0.469c0.098-0.143,0.208-0.237,0.332-0.283
		c0.124-0.045,0.433-0.068,0.928-0.068l7.52-7.207l-6.68-6.406c-0.469,0-0.765-0.025-0.889-0.078
		c-0.124-0.052-0.234-0.149-0.332-0.293c-0.098-0.143-0.146-0.299-0.146-0.469c0-0.234,0.085-0.43,0.254-0.586
		s0.456-0.234,0.859-0.234h4.473c0.403,0,0.687,0.078,0.85,0.234s0.244,0.358,0.244,0.605c0,0.234-0.081,0.43-0.244,0.586
		s-0.446,0.234-0.85,0.234h-1.953l5.527,5.332l5.566-5.332h-1.953c-0.391,0-0.674-0.078-0.85-0.234s-0.264-0.357-0.264-0.605
		c0-0.234,0.085-0.43,0.254-0.586s0.456-0.234,0.859-0.234h4.473c0.391,0,0.671,0.078,0.84,0.234s0.254,0.358,0.254,0.605
		c0,0.156-0.049,0.307-0.146,0.449c-0.098,0.144-0.208,0.241-0.332,0.293c-0.124,0.053-0.42,0.078-0.889,0.078L204.555,200.917z"/>
</g>
<path fill="#FFFFFF" stroke="#2D2D2D" stroke-width="2" d="M108.928,119.056H90.709v-18.219V85.041h18.219l0,0
	c8.724,0,15.797,8.283,15.797,17.007C124.725,110.77,117.651,119.056,108.928,119.056z"/>
<path fill="#FFFFFF" stroke="#2D2D2D" stroke-width="2" d="M108.928,187.087H90.709v-18.219v-15.797h18.219l0,0
	c8.724,0,15.797,8.283,15.797,17.008C124.725,178.801,117.651,187.087,108.928,187.087z"/>
<g>
	<path fill="#FFFFFF" stroke="#2D2D2D" stroke-width="2" stroke-linecap="round" stroke-linejoin="round" d="M153.756,118.474
		h15.112c9.774,0.906,18.624,7.316,23.888,17.299c-5.264,9.982-14.113,16.391-23.888,17.299h-15.112h0.228
		c10.508-8.008,11.889-22.244,3.081-31.797c-0.935-1.016-1.966-1.951-3.081-2.801"/>
</g>
<g>
	<path fill="#00ADEE" d="M229.547,114.576v0.879l-7.371,8.285h6.656v-1.359c0-0.234,0.045-0.402,0.135-0.504
		s0.209-0.152,0.357-0.152s0.27,0.051,0.363,0.152s0.141,0.27,0.141,0.504l-0.012,2.344h-9v-0.879l7.336-8.273h-6.117v1.336
		c0,0.234-0.047,0.402-0.141,0.504s-0.211,0.152-0.352,0.152c-0.148,0-0.27-0.051-0.363-0.152s-0.141-0.27-0.141-0.504v-2.332
		H229.547z"/>
</g>
<g>
	<path fill="#00ADEE" d="M36.846,85.04v-1.418c-1.43,1.203-2.957,1.805-4.582,1.805c-1.18,0-2.102-0.299-2.766-0.896
		s-0.996-1.33-0.996-2.197c0-0.953,0.438-1.785,1.313-2.496s2.152-1.066,3.832-1.066c0.453,0,0.945,0.029,1.477,0.088
		s1.105,0.15,1.723,0.275V77.54c0-0.539-0.25-1.008-0.75-1.406s-1.25-0.598-2.25-0.598c-0.766,0-1.84,0.223-3.223,0.668
		c-0.25,0.078-0.41,0.117-0.48,0.117c-0.125,0-0.232-0.047-0.322-0.141s-0.135-0.211-0.135-0.352c0-0.133,0.039-0.238,0.117-0.316
		c0.109-0.117,0.551-0.277,1.324-0.48c1.219-0.328,2.141-0.492,2.766-0.492c1.242,0,2.211,0.307,2.906,0.92s1.043,1.307,1.043,2.08
		v6.516h1.313c0.242,0,0.414,0.045,0.516,0.135s0.152,0.209,0.152,0.357c0,0.141-0.051,0.258-0.152,0.352s-0.273,0.141-0.516,0.141
		H36.846z M36.846,80.141c-0.461-0.133-0.949-0.23-1.465-0.293s-1.059-0.094-1.629-0.094c-1.43,0-2.547,0.309-3.352,0.926
		c-0.609,0.461-0.914,1.012-0.914,1.652c0,0.594,0.232,1.094,0.697,1.5s1.143,0.609,2.033,0.609c0.852,0,1.643-0.17,2.373-0.51
		s1.482-0.881,2.256-1.623V80.141z"/>
</g>
<g>
	<path fill="#00ADEE" d="M30.307,161.042v6.527c1.188-1.547,2.621-2.32,4.301-2.32c1.438,0,2.668,0.521,3.691,1.564
		s1.535,2.322,1.535,3.838c0,1.531-0.518,2.828-1.553,3.891s-2.26,1.594-3.674,1.594c-1.719,0-3.152-0.773-4.301-2.32v1.934h-2.309
		c-0.234,0-0.402-0.047-0.504-0.141s-0.152-0.211-0.152-0.352c0-0.148,0.051-0.268,0.152-0.357s0.27-0.135,0.504-0.135h1.324
		v-12.727h-1.324c-0.234,0-0.402-0.047-0.504-0.141s-0.152-0.215-0.152-0.363c0-0.141,0.051-0.258,0.152-0.352
		s0.27-0.141,0.504-0.141H30.307z M38.85,170.698c0-1.242-0.426-2.295-1.277-3.158s-1.848-1.295-2.988-1.295
		s-2.137,0.432-2.988,1.295s-1.277,1.916-1.277,3.158s0.426,2.295,1.277,3.158s1.848,1.295,2.988,1.295s2.137-0.432,2.988-1.295
		S38.85,171.94,38.85,170.698z"/>
</g>
<g>
	<path fill="#F6921E" d="M85.946,40.304c0,1.5-0.537,2.781-1.611,3.844s-2.369,1.594-3.885,1.594c-1.531,0-2.832-0.533-3.902-1.6
		s-1.605-2.346-1.605-3.838c0-1.5,0.535-2.783,1.605-3.85s2.371-1.6,3.902-1.6c1.516,0,2.811,0.531,3.885,1.594
		S85.946,38.796,85.946,40.304z M84.95,40.304c0-1.234-0.439-2.285-1.318-3.152s-1.943-1.301-3.193-1.301s-2.314,0.436-3.193,1.307
		s-1.318,1.92-1.318,3.146c0,1.219,0.439,2.266,1.318,3.141s1.943,1.313,3.193,1.313s2.314-0.436,3.193-1.307
		S84.95,41.53,84.95,40.304z"/>
	<path fill="#F6921E" d="M98.098,35.851c0-0.227,0.047-0.391,0.141-0.492s0.211-0.152,0.352-0.152c0.148,0,0.27,0.051,0.363,0.152
		s0.141,0.273,0.141,0.516v1.688c0,0.234-0.047,0.402-0.141,0.504s-0.215,0.152-0.363,0.152c-0.133,0-0.244-0.043-0.334-0.129
		s-0.143-0.227-0.158-0.422c-0.047-0.469-0.289-0.855-0.727-1.16c-0.641-0.438-1.488-0.656-2.543-0.656
		c-1.102,0-1.957,0.223-2.566,0.668c-0.461,0.336-0.691,0.711-0.691,1.125c0,0.469,0.273,0.859,0.82,1.172
		c0.375,0.219,1.086,0.387,2.133,0.504c1.367,0.148,2.316,0.316,2.848,0.504c0.758,0.273,1.322,0.652,1.693,1.137
		s0.557,1.008,0.557,1.57c0,0.836-0.402,1.58-1.207,2.232s-1.984,0.979-3.539,0.979s-2.828-0.395-3.82-1.184
		c0,0.266-0.016,0.438-0.047,0.516s-0.088,0.145-0.17,0.199s-0.174,0.082-0.275,0.082c-0.141,0-0.258-0.051-0.352-0.152
		s-0.141-0.27-0.141-0.504v-2.027c0-0.234,0.045-0.402,0.135-0.504s0.209-0.152,0.357-0.152c0.141,0,0.26,0.049,0.357,0.146
		s0.146,0.229,0.146,0.393c0,0.359,0.09,0.66,0.27,0.902c0.273,0.375,0.709,0.686,1.307,0.932s1.33,0.369,2.197,0.369
		c1.281,0,2.234-0.238,2.859-0.715s0.938-0.98,0.938-1.512c0-0.609-0.316-1.098-0.949-1.465c-0.641-0.367-1.572-0.613-2.795-0.738
		s-2.1-0.289-2.631-0.492s-0.945-0.508-1.242-0.914s-0.445-0.844-0.445-1.313c0-0.844,0.414-1.514,1.242-2.01
		s1.816-0.744,2.965-0.744C96.141,34.854,97.247,35.187,98.098,35.851z"/>
</g>
</svg>
