<?xml version="1.0" encoding="utf-8"?>
<!-- Generator: Adobe Illustrator 15.0.0, SVG Export Plug-In . SVG Version: 6.00 Build 0)  -->
<!DOCTYPE svg PUBLIC "-//W3C//DTD SVG 1.1//EN" "http://www.w3.org/Graphics/SVG/1.1/DTD/svg11.dtd">
<svg version="1.1" id="Layer_1" xmlns="http://www.w3.org/2000/svg" xmlns:xlink="http://www.w3.org/1999/xlink" x="0px" y="0px"
	 width="374.174px" height="147.402px" viewBox="0 0 374.174 147.402" enable-background="new 0 0 374.174 147.402"
	 xml:space="preserve">
<rect x="39.685" y="45.354" fill="#EAEAFF" stroke="#231F20" stroke-width="2" stroke-miterlimit="10" width="56.693" height="56.693"/>
<g>
	<path fill="#231F20" d="M63.52,72.719v3.647h2.139c0.361,0,0.619,0.069,0.772,0.209c0.154,0.139,0.231,0.321,0.231,0.545
		c0,0.22-0.077,0.399-0.231,0.539c-0.153,0.139-0.411,0.208-0.772,0.208h-4.534c-0.361,0-0.619-0.07-0.773-0.208
		c-0.153-0.14-0.23-0.321-0.23-0.546c0-0.22,0.077-0.399,0.23-0.538c0.154-0.14,0.412-0.209,0.773-0.209h0.894v-3.647h-0.718
		c-0.361,0-0.619-0.069-0.773-0.209c-0.153-0.139-0.23-0.321-0.23-0.545c0-0.22,0.077-0.399,0.23-0.539
		c0.154-0.139,0.412-0.208,0.773-0.208h0.718v-0.571c0-0.654,0.246-1.198,0.736-1.629c0.491-0.433,1.203-0.648,2.135-0.648
		c0.415,0,0.895,0.038,1.439,0.113c0.544,0.076,0.894,0.182,1.048,0.319c0.153,0.137,0.23,0.313,0.23,0.527
		c0,0.229-0.068,0.417-0.205,0.56c-0.137,0.145-0.305,0.216-0.505,0.216c-0.093,0-0.232-0.017-0.417-0.051
		c-0.62-0.122-1.169-0.183-1.648-0.183c-0.498,0-0.841,0.075-1.029,0.223c-0.188,0.149-0.282,0.333-0.282,0.553v0.571h2.314
		c0.361,0,0.619,0.07,0.772,0.208c0.154,0.14,0.231,0.321,0.231,0.546c0,0.22-0.077,0.399-0.231,0.538
		c-0.153,0.14-0.411,0.209-0.772,0.209H63.52z"/>
	<path fill="#231F20" d="M74.155,72.975c-0.244-0.151-0.5-0.265-0.769-0.34s-0.549-0.114-0.842-0.114
		c-0.581,0-1.042,0.095-1.384,0.286c-0.151,0.083-0.227,0.173-0.227,0.271c0,0.112,0.103,0.222,0.308,0.33
		c0.156,0.078,0.505,0.154,1.047,0.227c0.996,0.137,1.689,0.273,2.08,0.41c0.513,0.181,0.908,0.449,1.187,0.806
		s0.417,0.732,0.417,1.128c0,0.537-0.237,0.986-0.71,1.348c-0.679,0.522-1.56,0.784-2.644,0.784c-0.435,0-0.836-0.038-1.205-0.113
		c-0.369-0.076-0.707-0.187-1.014-0.333c-0.073,0.063-0.151,0.112-0.234,0.146s-0.168,0.051-0.256,0.051
		c-0.234,0-0.421-0.077-0.561-0.23c-0.139-0.154-0.208-0.412-0.208-0.773v-0.505c0-0.361,0.07-0.619,0.208-0.772
		c0.14-0.154,0.321-0.231,0.546-0.231c0.181,0,0.332,0.05,0.454,0.15c0.122,0.101,0.217,0.272,0.286,0.517
		c0.229,0.195,0.505,0.343,0.828,0.443s0.693,0.15,1.113,0.15c0.688,0,1.223-0.107,1.604-0.322c0.181-0.107,0.271-0.22,0.271-0.337
		c0-0.195-0.129-0.356-0.388-0.483s-0.793-0.234-1.604-0.322c-1.206-0.127-2.012-0.371-2.417-0.732
		c-0.405-0.356-0.608-0.796-0.608-1.318c0-0.537,0.227-0.984,0.681-1.34c0.615-0.488,1.421-0.732,2.417-0.732
		c0.347,0,0.68,0.033,1,0.099c0.319,0.066,0.626,0.167,0.919,0.304c0.093-0.068,0.18-0.12,0.26-0.154
		c0.081-0.034,0.155-0.051,0.224-0.051c0.205,0,0.376,0.077,0.513,0.231c0.137,0.153,0.205,0.411,0.205,0.772v0.366
		c0,0.327-0.039,0.549-0.117,0.667c-0.156,0.225-0.369,0.337-0.637,0.337c-0.181,0-0.339-0.056-0.476-0.168
		S74.194,73.161,74.155,72.975z"/>
</g>
<rect x="124.724" y="45.354" fill="#EAEAFF" stroke="#231F20" stroke-width="2" stroke-miterlimit="10" width="56.693" height="56.693"/>
<g>
	<path fill="#231F20" d="M148.559,72.719v3.647h2.139c0.361,0,0.619,0.069,0.772,0.209c0.154,0.139,0.231,0.321,0.231,0.545
		c0,0.22-0.077,0.399-0.231,0.539c-0.153,0.139-0.411,0.208-0.772,0.208h-4.534c-0.361,0-0.619-0.07-0.773-0.208
		c-0.153-0.14-0.23-0.321-0.23-0.546c0-0.22,0.077-0.399,0.23-0.538c0.154-0.14,0.412-0.209,0.773-0.209h0.894v-3.647h-0.718
		c-0.361,0-0.619-0.069-0.773-0.209c-0.153-0.139-0.23-0.321-0.23-0.545c0-0.22,0.077-0.399,0.23-0.539
		c0.154-0.139,0.412-0.208,0.773-0.208h0.718v-0.571c0-0.654,0.246-1.198,0.736-1.629c0.491-0.433,1.203-0.648,2.135-0.648
		c0.415,0,0.895,0.038,1.439,0.113c0.544,0.076,0.894,0.182,1.048,0.319c0.153,0.137,0.23,0.313,0.23,0.527
		c0,0.229-0.068,0.417-0.205,0.56c-0.137,0.145-0.305,0.216-0.505,0.216c-0.093,0-0.232-0.017-0.417-0.051
		c-0.62-0.122-1.169-0.183-1.648-0.183c-0.498,0-0.841,0.075-1.029,0.223c-0.188,0.149-0.282,0.333-0.282,0.553v0.571h2.314
		c0.361,0,0.619,0.07,0.772,0.208c0.154,0.14,0.231,0.321,0.231,0.546c0,0.22-0.077,0.399-0.231,0.538
		c-0.153,0.14-0.411,0.209-0.772,0.209H148.559z"/>
	<path fill="#231F20" d="M159.194,72.975c-0.244-0.151-0.5-0.265-0.769-0.34s-0.549-0.114-0.842-0.114
		c-0.581,0-1.042,0.095-1.384,0.286c-0.151,0.083-0.227,0.173-0.227,0.271c0,0.112,0.103,0.222,0.308,0.33
		c0.156,0.078,0.505,0.154,1.047,0.227c0.996,0.137,1.689,0.273,2.08,0.41c0.513,0.181,0.908,0.449,1.187,0.806
		s0.417,0.732,0.417,1.128c0,0.537-0.237,0.986-0.71,1.348c-0.679,0.522-1.56,0.784-2.644,0.784c-0.435,0-0.836-0.038-1.205-0.113
		c-0.369-0.076-0.707-0.187-1.014-0.333c-0.073,0.063-0.151,0.112-0.234,0.146s-0.168,0.051-0.256,0.051
		c-0.234,0-0.421-0.077-0.561-0.23c-0.139-0.154-0.208-0.412-0.208-0.773v-0.505c0-0.361,0.07-0.619,0.208-0.772
		c0.14-0.154,0.321-0.231,0.546-0.231c0.181,0,0.332,0.05,0.454,0.15c0.122,0.101,0.217,0.272,0.286,0.517
		c0.229,0.195,0.505,0.343,0.828,0.443s0.693,0.15,1.113,0.15c0.688,0,1.223-0.107,1.604-0.322c0.181-0.107,0.271-0.22,0.271-0.337
		c0-0.195-0.129-0.356-0.388-0.483s-0.793-0.234-1.604-0.322c-1.206-0.127-2.012-0.371-2.417-0.732
		c-0.405-0.356-0.608-0.796-0.608-1.318c0-0.537,0.227-0.984,0.681-1.34c0.615-0.488,1.421-0.732,2.417-0.732
		c0.347,0,0.68,0.033,1,0.099c0.319,0.066,0.626,0.167,0.919,0.304c0.093-0.068,0.18-0.12,0.26-0.154
		c0.081-0.034,0.155-0.051,0.224-0.051c0.205,0,0.376,0.077,0.513,0.231c0.137,0.153,0.205,0.411,0.205,0.772v0.366
		c0,0.327-0.039,0.549-0.117,0.667c-0.156,0.225-0.369,0.337-0.637,0.337c-0.181,0-0.339-0.056-0.476-0.168
		S159.233,73.161,159.194,72.975z"/>
</g>
<rect x="209.764" y="45.354" fill="#EAEAFF" stroke="#231F20" stroke-width="2" stroke-miterlimit="10" width="56.693" height="56.693"/>
<g>
	<path fill="#231F20" d="M233.599,72.719v3.647h2.139c0.361,0,0.619,0.069,0.772,0.209c0.154,0.139,0.231,0.321,0.231,0.545
		c0,0.22-0.077,0.399-0.231,0.539c-0.153,0.139-0.411,0.208-0.772,0.208h-4.534c-0.361,0-0.619-0.07-0.773-0.208
		c-0.153-0.14-0.23-0.321-0.23-0.546c0-0.22,0.077-0.399,0.23-0.538c0.154-0.14,0.412-0.209,0.773-0.209h0.894v-3.647h-0.718
		c-0.361,0-0.619-0.069-0.773-0.209c-0.153-0.139-0.23-0.321-0.23-0.545c0-0.22,0.077-0.399,0.23-0.539
		c0.154-0.139,0.412-0.208,0.773-0.208h0.718v-0.571c0-0.654,0.246-1.198,0.736-1.629c0.491-0.433,1.203-0.648,2.135-0.648
		c0.415,0,0.895,0.038,1.439,0.113c0.544,0.076,0.894,0.182,1.048,0.319c0.153,0.137,0.23,0.313,0.23,0.527
		c0,0.229-0.068,0.417-0.205,0.56c-0.137,0.145-0.305,0.216-0.505,0.216c-0.093,0-0.232-0.017-0.417-0.051
		c-0.62-0.122-1.169-0.183-1.648-0.183c-0.498,0-0.841,0.075-1.029,0.223c-0.188,0.149-0.282,0.333-0.282,0.553v0.571h2.314
		c0.361,0,0.619,0.07,0.772,0.208c0.154,0.14,0.231,0.321,0.231,0.546c0,0.22-0.077,0.399-0.231,0.538
		c-0.153,0.14-0.411,0.209-0.772,0.209H233.599z"/>
	<path fill="#231F20" d="M244.233,72.975c-0.244-0.151-0.5-0.265-0.769-0.34s-0.549-0.114-0.842-0.114
		c-0.581,0-1.042,0.095-1.384,0.286c-0.151,0.083-0.227,0.173-0.227,0.271c0,0.112,0.103,0.222,0.308,0.33
		c0.156,0.078,0.505,0.154,1.047,0.227c0.996,0.137,1.689,0.273,2.08,0.41c0.513,0.181,0.908,0.449,1.187,0.806
		s0.417,0.732,0.417,1.128c0,0.537-0.237,0.986-0.71,1.348c-0.679,0.522-1.56,0.784-2.644,0.784c-0.435,0-0.836-0.038-1.205-0.113
		c-0.369-0.076-0.707-0.187-1.014-0.333c-0.073,0.063-0.151,0.112-0.234,0.146s-0.168,0.051-0.256,0.051
		c-0.234,0-0.421-0.077-0.561-0.23c-0.139-0.154-0.208-0.412-0.208-0.773v-0.505c0-0.361,0.07-0.619,0.208-0.772
		c0.14-0.154,0.321-0.231,0.546-0.231c0.181,0,0.332,0.05,0.454,0.15c0.122,0.101,0.217,0.272,0.286,0.517
		c0.229,0.195,0.505,0.343,0.828,0.443s0.693,0.15,1.113,0.15c0.688,0,1.223-0.107,1.604-0.322c0.181-0.107,0.271-0.22,0.271-0.337
		c0-0.195-0.129-0.356-0.388-0.483s-0.793-0.234-1.604-0.322c-1.206-0.127-2.012-0.371-2.417-0.732
		c-0.405-0.356-0.608-0.796-0.608-1.318c0-0.537,0.227-0.984,0.681-1.34c0.615-0.488,1.421-0.732,2.417-0.732
		c0.347,0,0.68,0.033,1,0.099c0.319,0.066,0.626,0.167,0.919,0.304c0.093-0.068,0.18-0.12,0.26-0.154
		c0.081-0.034,0.155-0.051,0.224-0.051c0.205,0,0.376,0.077,0.513,0.231c0.137,0.153,0.205,0.411,0.205,0.772v0.366
		c0,0.327-0.039,0.549-0.117,0.667c-0.156,0.225-0.369,0.337-0.637,0.337c-0.181,0-0.339-0.056-0.476-0.168
		S244.272,73.161,244.233,72.975z"/>
</g>
<rect x="294.804" y="45.354" fill="#EAEAFF" stroke="#231F20" stroke-width="2" stroke-miterlimit="10" width="56.693" height="56.693"/>
<g>
	<path fill="#231F20" d="M318.639,72.719v3.647h2.139c0.361,0,0.619,0.069,0.772,0.209c0.154,0.139,0.231,0.321,0.231,0.545
		c0,0.22-0.077,0.399-0.231,0.539c-0.153,0.139-0.411,0.208-0.772,0.208h-4.534c-0.361,0-0.619-0.07-0.773-0.208
		c-0.153-0.14-0.23-0.321-0.23-0.546c0-0.22,0.077-0.399,0.23-0.538c0.154-0.14,0.412-0.209,0.773-0.209h0.894v-3.647h-0.718
		c-0.361,0-0.619-0.069-0.773-0.209c-0.153-0.139-0.23-0.321-0.23-0.545c0-0.22,0.077-0.399,0.23-0.539
		c0.154-0.139,0.412-0.208,0.773-0.208h0.718v-0.571c0-0.654,0.246-1.198,0.736-1.629c0.491-0.433,1.203-0.648,2.135-0.648
		c0.415,0,0.895,0.038,1.439,0.113c0.544,0.076,0.894,0.182,1.048,0.319c0.153,0.137,0.23,0.313,0.23,0.527
		c0,0.229-0.068,0.417-0.205,0.56c-0.137,0.145-0.305,0.216-0.505,0.216c-0.093,0-0.232-0.017-0.417-0.051
		c-0.62-0.122-1.169-0.183-1.648-0.183c-0.498,0-0.841,0.075-1.029,0.223c-0.188,0.149-0.282,0.333-0.282,0.553v0.571h2.314
		c0.361,0,0.619,0.07,0.772,0.208c0.154,0.14,0.231,0.321,0.231,0.546c0,0.22-0.077,0.399-0.231,0.538
		c-0.153,0.14-0.411,0.209-0.772,0.209H318.639z"/>
	<path fill="#231F20" d="M329.273,72.975c-0.244-0.151-0.5-0.265-0.769-0.34s-0.549-0.114-0.842-0.114
		c-0.581,0-1.042,0.095-1.384,0.286c-0.151,0.083-0.227,0.173-0.227,0.271c0,0.112,0.103,0.222,0.308,0.33
		c0.156,0.078,0.505,0.154,1.047,0.227c0.996,0.137,1.689,0.273,2.08,0.41c0.513,0.181,0.908,0.449,1.187,0.806
		s0.417,0.732,0.417,1.128c0,0.537-0.237,0.986-0.71,1.348c-0.679,0.522-1.56,0.784-2.644,0.784c-0.435,0-0.836-0.038-1.205-0.113
		c-0.369-0.076-0.707-0.187-1.014-0.333c-0.073,0.063-0.151,0.112-0.234,0.146s-0.168,0.051-0.256,0.051
		c-0.234,0-0.421-0.077-0.561-0.23c-0.139-0.154-0.208-0.412-0.208-0.773v-0.505c0-0.361,0.07-0.619,0.208-0.772
		c0.14-0.154,0.321-0.231,0.546-0.231c0.181,0,0.332,0.05,0.454,0.15c0.122,0.101,0.217,0.272,0.286,0.517
		c0.229,0.195,0.505,0.343,0.828,0.443s0.693,0.15,1.113,0.15c0.688,0,1.223-0.107,1.604-0.322c0.181-0.107,0.271-0.22,0.271-0.337
		c0-0.195-0.129-0.356-0.388-0.483s-0.793-0.234-1.604-0.322c-1.206-0.127-2.012-0.371-2.417-0.732
		c-0.405-0.356-0.608-0.796-0.608-1.318c0-0.537,0.227-0.984,0.681-1.34c0.615-0.488,1.421-0.732,2.417-0.732
		c0.347,0,0.68,0.033,1,0.099c0.319,0.066,0.626,0.167,0.919,0.304c0.093-0.068,0.18-0.12,0.26-0.154
		c0.081-0.034,0.155-0.051,0.224-0.051c0.205,0,0.376,0.077,0.513,0.231c0.137,0.153,0.205,0.411,0.205,0.772v0.366
		c0,0.327-0.039,0.549-0.117,0.667c-0.156,0.225-0.369,0.337-0.637,0.337c-0.181,0-0.339-0.056-0.476-0.168
		S329.313,73.161,329.273,72.975z"/>
</g>
<g>
	<g>
		<line fill="none" stroke="#00ADEE" stroke-miterlimit="10" x1="153.071" y1="129.58" x2="153.071" y2="102.047"/>
		<g>
			<polygon fill="#00ADEE" points="156.138,127.095 155.589,126.583 153.071,129.292 150.554,126.583 150.004,127.095 
				153.071,130.394 			"/>
		</g>
	</g>
</g>
<g>
	<g>
		<line fill="none" stroke="#00ADEE" stroke-miterlimit="10" x1="68.032" y1="129.581" x2="68.032" y2="102.048"/>
		<g>
			<polygon fill="#00ADEE" points="71.099,127.096 70.55,126.584 68.032,129.293 65.515,126.584 64.965,127.096 68.032,130.394 			
				"/>
		</g>
	</g>
</g>
<g>
	<g>
		<line fill="none" stroke="#00ADEE" stroke-miterlimit="10" x1="11.339" y1="129.581" x2="11.339" y2="73.701"/>
		<g>
			<polygon fill="#00ADEE" points="14.406,127.096 13.857,126.584 11.34,129.293 8.821,126.584 8.272,127.096 11.34,130.394 			"/>
		</g>
	</g>
</g>
<g>
	<g>
		<line fill="none" stroke="#00ADEE" stroke-miterlimit="10" x1="238.111" y1="129.581" x2="238.111" y2="102.048"/>
		<g>
			<polygon fill="#00ADEE" points="241.178,127.096 240.629,126.584 238.111,129.293 235.594,126.584 235.044,127.096 
				238.111,130.394 			"/>
		</g>
	</g>
</g>
<g>
	<g>
		<line fill="none" stroke="#00ADEE" stroke-miterlimit="10" x1="323.15" y1="129.581" x2="323.15" y2="102.048"/>
		<g>
			<polygon fill="#00ADEE" points="326.218,127.096 325.668,126.584 323.151,129.293 320.633,126.584 320.084,127.096 
				323.151,130.394 			"/>
		</g>
	</g>
</g>
<line fill="none" x1="419.527" y1="130.394" x2="419.527" y2="102.048"/>
<line fill="none" stroke="#00ADEE" stroke-miterlimit="10" x1="11.339" y1="73.701" x2="39.539" y2="73.701"/>
<g>
	<g>
		<line fill="none" stroke="#EC1C24" stroke-miterlimit="10" x1="97.637" y1="73.319" x2="125.023" y2="73.319"/>
		<g>
			<polygon fill="#EC1C24" points="100.122,76.387 100.633,75.837 97.924,73.32 100.633,70.802 100.122,70.252 96.823,73.32 			"/>
		</g>
	</g>
</g>
<g>
	<g>
		<line fill="none" stroke="#EC1C24" stroke-miterlimit="10" x1="182.676" y1="73.319" x2="210.062" y2="73.319"/>
		<g>
			<polygon fill="#EC1C24" points="185.161,76.387 185.672,75.837 182.963,73.32 185.672,70.802 185.161,70.252 181.862,73.32 			
				"/>
		</g>
	</g>
</g>
<g>
	<g>
		<line fill="none" stroke="#EC1C24" stroke-miterlimit="10" x1="267.715" y1="73.319" x2="295.102" y2="73.319"/>
		<g>
			<polygon fill="#EC1C24" points="270.2,76.387 270.712,75.837 268.003,73.32 270.712,70.802 270.2,70.252 266.902,73.32 			"/>
		</g>
	</g>
</g>
<g>
	<g>
		<line fill="none" stroke="#231F20" stroke-miterlimit="10" x1="352.902" y1="73.319" x2="363.28" y2="73.319"/>
		<g>
			<polygon fill="#231F20" points="355.387,76.387 355.898,75.837 353.189,73.32 355.898,70.802 355.387,70.253 352.088,73.32 			
				"/>
		</g>
	</g>
</g>
<g>
	<path fill="#231F20" d="M370.763,69.036v1.219c0,1.059-0.252,1.896-0.756,2.514c-0.395,0.484-0.893,0.727-1.494,0.727
		c-0.289,0-0.562-0.058-0.817-0.173s-0.474-0.276-0.653-0.483c-0.113-0.129-0.237-0.336-0.372-0.621s-0.231-0.547-0.29-0.785
		c-0.09-0.336-0.135-0.729-0.135-1.178v-1.219c0-1.063,0.252-1.902,0.756-2.52c0.395-0.484,0.893-0.727,1.494-0.727
		c0.293,0,0.566,0.058,0.82,0.173s0.471,0.276,0.65,0.483c0.117,0.133,0.242,0.342,0.375,0.627s0.23,0.545,0.293,0.779
		C370.72,68.188,370.763,68.583,370.763,69.036z M370.271,69.101c0-0.465-0.065-0.897-0.196-1.298s-0.278-0.72-0.442-0.958
		c-0.098-0.137-0.225-0.254-0.381-0.352c-0.223-0.137-0.473-0.205-0.75-0.205c-0.551,0-0.982,0.281-1.295,0.844
		s-0.469,1.219-0.469,1.969v1.084c0,0.465,0.065,0.898,0.196,1.301s0.28,0.723,0.448,0.961c0.094,0.133,0.219,0.248,0.375,0.346
		c0.223,0.141,0.475,0.211,0.756,0.211c0.547,0,0.977-0.282,1.289-0.847s0.469-1.222,0.469-1.972V69.101z"/>
</g>
<g>
	<path fill="#EC1C24" d="M111.234,60.678v6.861h1.934c0.121,0,0.207,0.022,0.258,0.067s0.076,0.104,0.076,0.179
		c0,0.07-0.025,0.129-0.076,0.176s-0.137,0.07-0.258,0.07h-4.359c-0.117,0-0.201-0.023-0.252-0.07s-0.076-0.105-0.076-0.176
		c0-0.074,0.025-0.134,0.076-0.179s0.135-0.067,0.252-0.067h1.934v-6.363h-1.418c-0.117,0-0.202-0.023-0.255-0.07
		s-0.079-0.107-0.079-0.182c0-0.07,0.025-0.129,0.076-0.176s0.137-0.07,0.258-0.07H111.234z"/>
	<path fill="#EC1C24" d="M115.574,70.704h2.52v-0.129c0-0.078,0.016-0.134,0.047-0.168s0.072-0.051,0.121-0.051
		c0.047,0,0.086,0.017,0.117,0.051s0.047,0.09,0.047,0.168v0.457h-3.172v-0.484c0.667-0.599,1.315-1.208,1.945-1.828
		c0.294-0.289,0.496-0.501,0.605-0.637s0.184-0.254,0.225-0.357s0.061-0.207,0.061-0.311c0-0.281-0.113-0.53-0.34-0.746
		s-0.5-0.324-0.82-0.324c-0.287,0-0.541,0.082-0.762,0.246s-0.365,0.367-0.43,0.609c-0.016,0.063-0.035,0.103-0.059,0.121
		c-0.031,0.026-0.068,0.039-0.109,0.039c-0.044,0-0.082-0.015-0.111-0.045s-0.045-0.066-0.045-0.107
		c0-0.125,0.068-0.294,0.205-0.508s0.326-0.381,0.566-0.504s0.488-0.184,0.74-0.184c0.409,0,0.76,0.142,1.055,0.426
		s0.441,0.605,0.441,0.965c0,0.151-0.025,0.29-0.074,0.416s-0.133,0.264-0.252,0.414s-0.332,0.375-0.639,0.678
		c-0.771,0.76-1.398,1.35-1.883,1.77V70.704z"/>
</g>
<g>
	<path fill="#EC1C24" d="M23.36,60.678v6.861h1.934c0.121,0,0.207,0.022,0.258,0.067s0.076,0.104,0.076,0.179
		c0,0.07-0.025,0.129-0.076,0.176s-0.137,0.07-0.258,0.07h-4.359c-0.117,0-0.201-0.023-0.252-0.07s-0.076-0.105-0.076-0.176
		c0-0.074,0.025-0.134,0.076-0.179s0.135-0.067,0.252-0.067h1.934v-6.363H21.45c-0.117,0-0.202-0.023-0.255-0.07
		s-0.079-0.107-0.079-0.182c0-0.07,0.025-0.129,0.076-0.176s0.137-0.07,0.258-0.07H23.36z"/>
	<path fill="#EC1C24" d="M29.786,68.364c0.302,0.135,0.533,0.321,0.691,0.557s0.238,0.481,0.238,0.736
		c0,0.393-0.16,0.74-0.479,1.041s-0.718,0.451-1.197,0.451c-0.281,0-0.573-0.06-0.875-0.18s-0.513-0.242-0.633-0.367
		c-0.039-0.042-0.059-0.086-0.059-0.133c0-0.042,0.015-0.078,0.045-0.109s0.066-0.047,0.107-0.047s0.088,0.02,0.141,0.059
		c0.404,0.299,0.831,0.449,1.281,0.449c0.38,0,0.699-0.119,0.955-0.357s0.385-0.503,0.385-0.795c0-0.195-0.063-0.387-0.189-0.574
		s-0.308-0.335-0.545-0.443s-0.477-0.162-0.719-0.162c-0.078,0-0.134-0.015-0.168-0.045s-0.051-0.07-0.051-0.119
		c0-0.047,0.016-0.086,0.049-0.117s0.082-0.047,0.146-0.047l0.281,0.004c0.294,0,0.537-0.09,0.729-0.27s0.287-0.388,0.287-0.625
		c0-0.245-0.1-0.461-0.301-0.648s-0.462-0.281-0.785-0.281c-0.227,0-0.435,0.039-0.625,0.117s-0.342,0.185-0.457,0.32
		c-0.042,0.052-0.074,0.084-0.096,0.096s-0.047,0.018-0.076,0.018c-0.044,0-0.082-0.015-0.113-0.045s-0.047-0.066-0.047-0.107
		c0-0.104,0.113-0.236,0.34-0.395c0.315-0.221,0.673-0.332,1.074-0.332c0.414,0,0.754,0.125,1.02,0.373s0.398,0.545,0.398,0.889
		c0,0.219-0.064,0.426-0.191,0.621S30.034,68.247,29.786,68.364z"/>
</g>
<g>
	<path fill="#EC1C24" d="M196.273,60.678v6.861h1.934c0.121,0,0.207,0.022,0.258,0.067s0.076,0.104,0.076,0.179
		c0,0.07-0.025,0.129-0.076,0.176s-0.137,0.07-0.258,0.07h-4.359c-0.117,0-0.201-0.023-0.252-0.07s-0.076-0.105-0.076-0.176
		c0-0.074,0.025-0.134,0.076-0.179s0.135-0.067,0.252-0.067h1.934v-6.363h-1.418c-0.117,0-0.202-0.023-0.255-0.07
		s-0.079-0.107-0.079-0.182c0-0.07,0.025-0.129,0.076-0.176s0.137-0.07,0.258-0.07H196.273z"/>
	<path fill="#EC1C24" d="M202.188,66.063v4.641h1.125c0.078,0,0.134,0.015,0.168,0.045s0.051,0.07,0.051,0.119
		c0,0.047-0.017,0.086-0.051,0.117s-0.09,0.047-0.168,0.047h-2.578c-0.078,0-0.134-0.016-0.168-0.047s-0.051-0.07-0.051-0.117
		c0-0.049,0.017-0.089,0.051-0.119s0.09-0.045,0.168-0.045h1.125v-4.188l-1.07,0.336c-0.052,0.016-0.09,0.023-0.113,0.023
		c-0.039,0-0.075-0.016-0.107-0.049s-0.049-0.071-0.049-0.115c0-0.039,0.013-0.076,0.039-0.109c0.021-0.021,0.064-0.043,0.129-0.066
		L202.188,66.063z"/>
</g>
<g>
	<path fill="#EC1C24" d="M281.313,60.678v6.861h1.934c0.121,0,0.207,0.022,0.258,0.067s0.076,0.104,0.076,0.179
		c0,0.07-0.025,0.129-0.076,0.176s-0.137,0.07-0.258,0.07h-4.359c-0.117,0-0.201-0.023-0.252-0.07s-0.076-0.105-0.076-0.176
		c0-0.074,0.025-0.134,0.076-0.179s0.135-0.067,0.252-0.067h1.934v-6.363h-1.418c-0.117,0-0.202-0.023-0.255-0.07
		s-0.079-0.107-0.079-0.182c0-0.07,0.025-0.129,0.076-0.176s0.137-0.07,0.258-0.07H281.313z"/>
	<path fill="#EC1C24" d="M288.57,68.176v0.813c0,0.706-0.168,1.264-0.504,1.676c-0.263,0.323-0.595,0.484-0.996,0.484
		c-0.193,0-0.375-0.039-0.545-0.115s-0.316-0.184-0.436-0.322c-0.076-0.086-0.158-0.224-0.248-0.414s-0.154-0.365-0.193-0.523
		c-0.06-0.224-0.09-0.486-0.09-0.785v-0.813c0-0.708,0.168-1.268,0.504-1.68c0.263-0.323,0.595-0.484,0.996-0.484
		c0.195,0,0.377,0.039,0.547,0.115s0.314,0.184,0.434,0.322c0.078,0.088,0.162,0.228,0.25,0.418s0.154,0.363,0.195,0.52
		C288.542,67.611,288.57,67.874,288.57,68.176z M288.242,68.219c0-0.31-0.043-0.598-0.131-0.865s-0.186-0.48-0.295-0.639
		c-0.065-0.091-0.15-0.169-0.254-0.234c-0.148-0.091-0.315-0.137-0.5-0.137c-0.367,0-0.655,0.188-0.863,0.563
		s-0.313,0.813-0.313,1.313v0.723c0,0.31,0.043,0.599,0.131,0.867s0.187,0.482,0.299,0.641c0.063,0.088,0.146,0.166,0.25,0.23
		c0.148,0.094,0.316,0.141,0.504,0.141c0.365,0,0.651-0.188,0.859-0.564s0.313-0.814,0.313-1.314V68.219z"/>
</g>
<g>
	<path fill="#00ADEE" d="M78.672,119.497v6.861h0.656c0.121,0,0.207,0.022,0.258,0.067s0.076,0.104,0.076,0.179
		c0,0.07-0.025,0.129-0.076,0.176s-0.137,0.07-0.258,0.07h-1.154v-0.979c-0.57,0.781-1.295,1.172-2.174,1.172
		c-0.445,0-0.872-0.118-1.28-0.354s-0.73-0.573-0.967-1.011s-0.354-0.889-0.354-1.354c0-0.469,0.118-0.921,0.354-1.356
		s0.559-0.772,0.967-1.011s0.837-0.357,1.286-0.357c0.859,0,1.582,0.391,2.168,1.172v-2.777h-0.656c-0.121,0-0.207-0.023-0.258-0.07
		s-0.076-0.107-0.076-0.182c0-0.07,0.025-0.129,0.076-0.176s0.137-0.07,0.258-0.07H78.672z M78.174,124.325
		c0-0.625-0.211-1.152-0.633-1.582s-0.924-0.645-1.506-0.645c-0.586,0-1.09,0.215-1.512,0.645s-0.633,0.957-0.633,1.582
		c0,0.621,0.211,1.147,0.633,1.579s0.926,0.647,1.512,0.647c0.582,0,1.084-0.216,1.506-0.647S78.174,124.946,78.174,124.325z"/>
	<path fill="#00ADEE" d="M82.936,127.183c0.302,0.135,0.533,0.321,0.691,0.557s0.238,0.481,0.238,0.736
		c0,0.393-0.16,0.74-0.479,1.041s-0.718,0.451-1.197,0.451c-0.281,0-0.573-0.06-0.875-0.18s-0.513-0.242-0.633-0.367
		c-0.039-0.042-0.059-0.086-0.059-0.133c0-0.042,0.015-0.078,0.045-0.109s0.066-0.047,0.107-0.047s0.088,0.02,0.141,0.059
		c0.404,0.299,0.831,0.449,1.281,0.449c0.38,0,0.699-0.119,0.955-0.357s0.385-0.503,0.385-0.795c0-0.195-0.063-0.387-0.189-0.574
		s-0.308-0.335-0.545-0.443s-0.477-0.162-0.719-0.162c-0.078,0-0.134-0.015-0.168-0.045s-0.051-0.07-0.051-0.119
		c0-0.047,0.016-0.086,0.049-0.117s0.082-0.047,0.146-0.047l0.281,0.004c0.294,0,0.537-0.09,0.729-0.27s0.287-0.388,0.287-0.625
		c0-0.245-0.1-0.461-0.301-0.648s-0.462-0.281-0.785-0.281c-0.227,0-0.435,0.039-0.625,0.117s-0.342,0.185-0.457,0.32
		c-0.042,0.052-0.074,0.084-0.096,0.096s-0.047,0.018-0.076,0.018c-0.044,0-0.082-0.015-0.113-0.045s-0.047-0.066-0.047-0.107
		c0-0.104,0.113-0.236,0.34-0.395c0.315-0.221,0.673-0.332,1.074-0.332c0.414,0,0.754,0.125,1.02,0.373s0.398,0.545,0.398,0.889
		c0,0.219-0.064,0.426-0.191,0.621S83.184,127.065,82.936,127.183z"/>
</g>
<g>
	<path fill="#00ADEE" d="M21.979,119.497v6.861h0.656c0.121,0,0.207,0.022,0.258,0.067s0.076,0.104,0.076,0.179
		c0,0.07-0.025,0.129-0.076,0.176s-0.137,0.07-0.258,0.07h-1.154v-0.979c-0.57,0.781-1.295,1.172-2.174,1.172
		c-0.445,0-0.872-0.118-1.28-0.354s-0.73-0.573-0.967-1.011s-0.354-0.889-0.354-1.354c0-0.469,0.118-0.921,0.354-1.356
		s0.559-0.772,0.967-1.011s0.837-0.357,1.286-0.357c0.859,0,1.582,0.391,2.168,1.172v-2.777h-0.656c-0.121,0-0.207-0.023-0.258-0.07
		s-0.076-0.107-0.076-0.182c0-0.07,0.025-0.129,0.076-0.176s0.137-0.07,0.258-0.07H21.979z M21.481,124.325
		c0-0.625-0.211-1.152-0.633-1.582s-0.924-0.645-1.506-0.645c-0.586,0-1.09,0.215-1.512,0.645s-0.633,0.957-0.633,1.582
		c0,0.621,0.211,1.147,0.633,1.579s0.926,0.647,1.512,0.647c0.582,0,1.084-0.216,1.506-0.647S21.481,124.946,21.481,124.325z"/>
	<path fill="#00ADEE" d="M26.181,128.479h-2.176V128.1l1.824-3.152h0.684v3.203h0.273c0.081,0,0.138,0.015,0.172,0.045
		s0.051,0.07,0.051,0.119c0,0.047-0.017,0.086-0.051,0.117s-0.091,0.047-0.172,0.047h-0.273v1.043h0.273
		c0.081,0,0.138,0.015,0.172,0.045s0.051,0.07,0.051,0.119c0,0.047-0.017,0.086-0.051,0.117s-0.091,0.047-0.172,0.047h-1.219
		c-0.081,0-0.138-0.016-0.172-0.047s-0.051-0.07-0.051-0.117c0-0.049,0.017-0.089,0.051-0.119s0.091-0.045,0.172-0.045h0.613
		V128.479z M26.181,128.151v-2.871h-0.172l-1.66,2.871H26.181z"/>
</g>
<g>
	<path fill="#00ADEE" d="M163.712,119.497v6.861h0.656c0.121,0,0.207,0.022,0.258,0.067s0.076,0.104,0.076,0.179
		c0,0.07-0.025,0.129-0.076,0.176s-0.137,0.07-0.258,0.07h-1.154v-0.979c-0.57,0.781-1.295,1.172-2.174,1.172
		c-0.445,0-0.872-0.118-1.28-0.354s-0.73-0.573-0.967-1.011s-0.354-0.889-0.354-1.354c0-0.469,0.118-0.921,0.354-1.356
		s0.559-0.772,0.967-1.011s0.837-0.357,1.286-0.357c0.859,0,1.582,0.391,2.168,1.172v-2.777h-0.656c-0.121,0-0.207-0.023-0.258-0.07
		s-0.076-0.107-0.076-0.182c0-0.07,0.025-0.129,0.076-0.176s0.137-0.07,0.258-0.07H163.712z M163.214,124.325
		c0-0.625-0.211-1.152-0.633-1.582s-0.924-0.645-1.506-0.645c-0.586,0-1.09,0.215-1.512,0.645s-0.633,0.957-0.633,1.582
		c0,0.621,0.211,1.147,0.633,1.579s0.926,0.647,1.512,0.647c0.582,0,1.084-0.216,1.506-0.647S163.214,124.946,163.214,124.325z"/>
	<path fill="#00ADEE" d="M165.89,129.522h2.52v-0.129c0-0.078,0.016-0.134,0.047-0.168s0.072-0.051,0.121-0.051
		c0.047,0,0.086,0.017,0.117,0.051s0.047,0.09,0.047,0.168v0.457h-3.172v-0.484c0.667-0.599,1.315-1.208,1.945-1.828
		c0.294-0.289,0.496-0.501,0.605-0.637s0.184-0.254,0.225-0.357s0.061-0.207,0.061-0.311c0-0.281-0.113-0.53-0.34-0.746
		s-0.5-0.324-0.82-0.324c-0.287,0-0.541,0.082-0.762,0.246s-0.365,0.367-0.43,0.609c-0.016,0.063-0.035,0.103-0.059,0.121
		c-0.031,0.026-0.068,0.039-0.109,0.039c-0.044,0-0.082-0.015-0.111-0.045s-0.045-0.066-0.045-0.107
		c0-0.125,0.068-0.294,0.205-0.508s0.326-0.381,0.566-0.504s0.488-0.184,0.74-0.184c0.409,0,0.76,0.142,1.055,0.426
		s0.441,0.605,0.441,0.965c0,0.151-0.025,0.29-0.074,0.416s-0.133,0.264-0.252,0.414s-0.332,0.375-0.639,0.678
		c-0.771,0.76-1.398,1.35-1.883,1.77V129.522z"/>
</g>
<g>
	<path fill="#00ADEE" d="M248.751,119.497v6.861h0.656c0.121,0,0.207,0.022,0.258,0.067s0.076,0.104,0.076,0.179
		c0,0.07-0.025,0.129-0.076,0.176s-0.137,0.07-0.258,0.07h-1.154v-0.979c-0.57,0.781-1.295,1.172-2.174,1.172
		c-0.445,0-0.872-0.118-1.28-0.354s-0.73-0.573-0.967-1.011s-0.354-0.889-0.354-1.354c0-0.469,0.118-0.921,0.354-1.356
		s0.559-0.772,0.967-1.011s0.837-0.357,1.286-0.357c0.859,0,1.582,0.391,2.168,1.172v-2.777h-0.656c-0.121,0-0.207-0.023-0.258-0.07
		s-0.076-0.107-0.076-0.182c0-0.07,0.025-0.129,0.076-0.176s0.137-0.07,0.258-0.07H248.751z M248.253,124.325
		c0-0.625-0.211-1.152-0.633-1.582s-0.924-0.645-1.506-0.645c-0.586,0-1.09,0.215-1.512,0.645s-0.633,0.957-0.633,1.582
		c0,0.621,0.211,1.147,0.633,1.579s0.926,0.647,1.512,0.647c0.582,0,1.084-0.216,1.506-0.647S248.253,124.946,248.253,124.325z"/>
	<path fill="#00ADEE" d="M252.503,124.882v4.641h1.125c0.078,0,0.134,0.015,0.168,0.045s0.051,0.07,0.051,0.119
		c0,0.047-0.017,0.086-0.051,0.117s-0.09,0.047-0.168,0.047h-2.578c-0.078,0-0.134-0.016-0.168-0.047s-0.051-0.07-0.051-0.117
		c0-0.049,0.017-0.089,0.051-0.119s0.09-0.045,0.168-0.045h1.125v-4.188l-1.07,0.336c-0.052,0.016-0.09,0.023-0.113,0.023
		c-0.039,0-0.075-0.016-0.107-0.049s-0.049-0.071-0.049-0.115c0-0.039,0.013-0.076,0.039-0.109c0.021-0.021,0.064-0.043,0.129-0.066
		L252.503,124.882z"/>
</g>
<g>
	<path fill="#00ADEE" d="M333.79,119.497v6.861h0.656c0.121,0,0.207,0.022,0.258,0.067s0.076,0.104,0.076,0.179
		c0,0.07-0.025,0.129-0.076,0.176s-0.137,0.07-0.258,0.07h-1.154v-0.979c-0.57,0.781-1.295,1.172-2.174,1.172
		c-0.445,0-0.872-0.118-1.28-0.354s-0.73-0.573-0.967-1.011s-0.354-0.889-0.354-1.354c0-0.469,0.118-0.921,0.354-1.356
		s0.559-0.772,0.967-1.011s0.837-0.357,1.286-0.357c0.859,0,1.582,0.391,2.168,1.172v-2.777h-0.656c-0.121,0-0.207-0.023-0.258-0.07
		s-0.076-0.107-0.076-0.182c0-0.07,0.025-0.129,0.076-0.176s0.137-0.07,0.258-0.07H333.79z M333.292,124.325
		c0-0.625-0.211-1.152-0.633-1.582s-0.924-0.645-1.506-0.645c-0.586,0-1.09,0.215-1.512,0.645s-0.633,0.957-0.633,1.582
		c0,0.621,0.211,1.147,0.633,1.579s0.926,0.647,1.512,0.647c0.582,0,1.084-0.216,1.506-0.647S333.292,124.946,333.292,124.325z"/>
	<path fill="#00ADEE" d="M338.886,126.995v0.813c0,0.706-0.168,1.264-0.504,1.676c-0.263,0.323-0.595,0.484-0.996,0.484
		c-0.193,0-0.375-0.039-0.545-0.115s-0.316-0.184-0.436-0.322c-0.076-0.086-0.158-0.224-0.248-0.414s-0.154-0.365-0.193-0.523
		c-0.06-0.224-0.09-0.486-0.09-0.785v-0.813c0-0.708,0.168-1.268,0.504-1.68c0.263-0.323,0.595-0.484,0.996-0.484
		c0.195,0,0.377,0.039,0.547,0.115s0.314,0.184,0.434,0.322c0.078,0.088,0.162,0.228,0.25,0.418s0.154,0.363,0.195,0.52
		C338.857,126.43,338.886,126.693,338.886,126.995z M338.558,127.038c0-0.31-0.043-0.598-0.131-0.865s-0.186-0.48-0.295-0.639
		c-0.065-0.091-0.15-0.169-0.254-0.234c-0.148-0.091-0.315-0.137-0.5-0.137c-0.367,0-0.655,0.188-0.863,0.563
		s-0.313,0.813-0.313,1.313v0.723c0,0.31,0.043,0.599,0.131,0.867s0.187,0.482,0.299,0.641c0.063,0.088,0.146,0.166,0.25,0.23
		c0.148,0.094,0.316,0.141,0.504,0.141c0.365,0,0.651-0.188,0.859-0.564s0.313-0.814,0.313-1.314V127.038z"/>
</g>
<g>
</g>
<g>
	<path fill="#00ADEE" d="M346.967,31.181v-0.709c-0.715,0.602-1.479,0.902-2.291,0.902c-0.59,0-1.051-0.149-1.383-0.448
		s-0.498-0.665-0.498-1.099c0-0.477,0.219-0.893,0.656-1.248s1.076-0.533,1.916-0.533c0.227,0,0.473,0.015,0.738,0.044
		s0.553,0.075,0.861,0.138v-0.797c0-0.27-0.125-0.504-0.375-0.703s-0.625-0.299-1.125-0.299c-0.383,0-0.92,0.111-1.611,0.334
		c-0.125,0.039-0.205,0.059-0.24,0.059c-0.063,0-0.116-0.023-0.161-0.07s-0.067-0.105-0.067-0.176c0-0.066,0.02-0.119,0.059-0.158
		c0.055-0.059,0.275-0.139,0.662-0.24c0.609-0.164,1.07-0.246,1.383-0.246c0.621,0,1.105,0.153,1.453,0.46s0.521,0.653,0.521,1.04
		v3.258h0.656c0.121,0,0.207,0.022,0.258,0.067s0.076,0.104,0.076,0.179c0,0.07-0.025,0.129-0.076,0.176s-0.137,0.07-0.258,0.07
		H346.967z M346.967,28.732c-0.23-0.066-0.475-0.115-0.732-0.146s-0.529-0.047-0.814-0.047c-0.715,0-1.273,0.154-1.676,0.463
		c-0.305,0.23-0.457,0.506-0.457,0.826c0,0.297,0.116,0.547,0.349,0.75s0.571,0.305,1.017,0.305c0.426,0,0.821-0.085,1.187-0.255
		s0.741-0.44,1.128-0.812V28.732z"/>
	<path fill="#00ADEE" d="M353.059,31.326v0.813c0,0.706-0.168,1.264-0.504,1.676c-0.263,0.323-0.595,0.484-0.996,0.484
		c-0.193,0-0.375-0.039-0.545-0.115s-0.316-0.184-0.436-0.322c-0.076-0.086-0.158-0.224-0.248-0.414s-0.154-0.365-0.193-0.523
		c-0.06-0.224-0.09-0.486-0.09-0.785v-0.813c0-0.708,0.168-1.268,0.504-1.68c0.263-0.323,0.595-0.484,0.996-0.484
		c0.195,0,0.377,0.039,0.547,0.115s0.314,0.184,0.434,0.322c0.078,0.088,0.162,0.228,0.25,0.418s0.154,0.363,0.195,0.52
		C353.03,30.761,353.059,31.023,353.059,31.326z M352.731,31.369c0-0.31-0.043-0.598-0.131-0.865s-0.186-0.48-0.295-0.639
		c-0.065-0.091-0.15-0.169-0.254-0.234c-0.148-0.091-0.315-0.137-0.5-0.137c-0.367,0-0.655,0.188-0.863,0.563
		s-0.313,0.813-0.313,1.313v0.723c0,0.31,0.043,0.599,0.131,0.867s0.187,0.482,0.299,0.641c0.063,0.088,0.146,0.166,0.25,0.23
		c0.148,0.094,0.316,0.141,0.504,0.141c0.365,0,0.651-0.188,0.859-0.564s0.313-0.814,0.313-1.314V31.369z"/>
</g>
<g>
	<g>
		
			<line fill="none" stroke="#00ADEE" stroke-width="0.8467" stroke-miterlimit="10" x1="337.323" y1="42.962" x2="337.323" y2="16.641"/>
		<g>
			<polygon fill="#00ADEE" points="340.017,37.957 339.22,37.667 337.323,42.879 335.427,37.667 334.631,37.957 337.323,45.354 			
				"/>
		</g>
	</g>
</g>
<g>
	<g>
		
			<line fill="none" stroke="#00ADEE" stroke-width="0.8467" stroke-miterlimit="10" x1="308.977" y1="43.329" x2="308.977" y2="17.008"/>
		<g>
			<polygon fill="#00ADEE" points="311.669,38.324 310.874,38.035 308.977,43.247 307.08,38.035 306.284,38.324 308.977,45.722 			
				"/>
		</g>
	</g>
</g>
<g>
	<g>
		
			<line fill="none" stroke="#00ADEE" stroke-width="0.8467" stroke-miterlimit="10" x1="252.284" y1="43.329" x2="252.284" y2="17.008"/>
		<g>
			<polygon fill="#00ADEE" points="254.977,38.324 254.18,38.035 252.284,43.247 250.387,38.035 249.591,38.324 252.284,45.722 			
				"/>
		</g>
	</g>
</g>
<g>
	<g>
		
			<line fill="none" stroke="#00ADEE" stroke-width="0.8467" stroke-miterlimit="10" x1="223.938" y1="43.329" x2="223.938" y2="17.008"/>
		<g>
			<polygon fill="#00ADEE" points="226.631,38.324 225.834,38.035 223.938,43.247 222.041,38.035 221.245,38.324 223.938,45.722 			
				"/>
		</g>
	</g>
</g>
<g>
	<g>
		
			<line fill="none" stroke="#00ADEE" stroke-width="0.8467" stroke-miterlimit="10" x1="138.898" y1="42.962" x2="138.898" y2="16.641"/>
		<g>
			<polygon fill="#00ADEE" points="141.591,37.957 140.794,37.667 138.898,42.879 137.001,37.667 136.206,37.957 138.898,45.354 			
				"/>
		</g>
	</g>
</g>
<g>
	<g>
		
			<line fill="none" stroke="#00ADEE" stroke-width="0.8467" stroke-miterlimit="10" x1="53.858" y1="42.962" x2="53.858" y2="16.641"/>
		<g>
			<polygon fill="#00ADEE" points="56.552,37.957 55.755,37.667 53.858,42.879 51.962,37.667 51.166,37.957 53.858,45.354 			"/>
		</g>
	</g>
</g>
<g>
	<g>
		
			<line fill="none" stroke="#00ADEE" stroke-width="0.8467" stroke-miterlimit="10" x1="82.205" y1="43.329" x2="82.205" y2="17.008"/>
		<g>
			<polygon fill="#00ADEE" points="84.898,38.324 84.101,38.035 82.205,43.247 80.308,38.035 79.512,38.324 82.205,45.722 			"/>
		</g>
	</g>
</g>
<g>
	<g>
		
			<line fill="none" stroke="#00ADEE" stroke-width="0.8467" stroke-miterlimit="10" x1="167.244" y1="43.329" x2="167.244" y2="17.008"/>
		<g>
			<polygon fill="#00ADEE" points="169.938,38.324 169.141,38.035 167.244,43.247 165.348,38.035 164.552,38.324 167.244,45.722 			
				"/>
		</g>
	</g>
</g>
<g>
	<path fill="#00ADEE" d="M315.352,23.828v3.264c0.594-0.773,1.311-1.16,2.15-1.16c0.719,0,1.334,0.261,1.846,0.782
		s0.768,1.161,0.768,1.919c0,0.766-0.259,1.414-0.776,1.945s-1.13,0.797-1.837,0.797c-0.859,0-1.576-0.387-2.15-1.16v0.967h-1.154
		c-0.117,0-0.201-0.023-0.252-0.07s-0.076-0.105-0.076-0.176c0-0.074,0.025-0.134,0.076-0.179s0.135-0.067,0.252-0.067h0.662v-6.363
		h-0.662c-0.117,0-0.201-0.023-0.252-0.07s-0.076-0.107-0.076-0.182c0-0.07,0.025-0.129,0.076-0.176s0.135-0.07,0.252-0.07H315.352z
		 M319.623,28.656c0-0.621-0.213-1.147-0.639-1.579s-0.924-0.647-1.494-0.647s-1.068,0.216-1.494,0.647s-0.639,0.958-0.639,1.579
		s0.213,1.147,0.639,1.579s0.924,0.647,1.494,0.647s1.068-0.216,1.494-0.647S319.623,29.277,319.623,28.656z"/>
	<path fill="#00ADEE" d="M324.713,31.326v0.813c0,0.706-0.168,1.264-0.504,1.676c-0.263,0.323-0.595,0.484-0.996,0.484
		c-0.193,0-0.375-0.039-0.545-0.115s-0.316-0.184-0.436-0.322c-0.076-0.086-0.158-0.224-0.248-0.414s-0.154-0.365-0.193-0.523
		c-0.06-0.224-0.09-0.486-0.09-0.785v-0.813c0-0.708,0.168-1.268,0.504-1.68c0.263-0.323,0.595-0.484,0.996-0.484
		c0.195,0,0.377,0.039,0.547,0.115s0.314,0.184,0.434,0.322c0.078,0.088,0.162,0.228,0.25,0.418s0.154,0.363,0.195,0.52
		C324.684,30.761,324.713,31.023,324.713,31.326z M324.385,31.369c0-0.31-0.043-0.598-0.131-0.865s-0.186-0.48-0.295-0.639
		c-0.065-0.091-0.15-0.169-0.254-0.234c-0.148-0.091-0.315-0.137-0.5-0.137c-0.367,0-0.655,0.188-0.863,0.563
		s-0.313,0.813-0.313,1.313v0.723c0,0.31,0.043,0.599,0.131,0.867s0.187,0.482,0.299,0.641c0.063,0.088,0.146,0.166,0.25,0.23
		c0.148,0.094,0.316,0.141,0.504,0.141c0.365,0,0.651-0.188,0.859-0.564s0.313-0.814,0.313-1.314V31.369z"/>
</g>
<g>
	<path fill="#00ADEE" d="M261.928,31.181v-0.709c-0.715,0.602-1.479,0.902-2.291,0.902c-0.59,0-1.051-0.149-1.383-0.448
		s-0.498-0.665-0.498-1.099c0-0.477,0.219-0.893,0.656-1.248s1.076-0.533,1.916-0.533c0.227,0,0.473,0.015,0.738,0.044
		s0.553,0.075,0.861,0.138v-0.797c0-0.27-0.125-0.504-0.375-0.703s-0.625-0.299-1.125-0.299c-0.383,0-0.92,0.111-1.611,0.334
		c-0.125,0.039-0.205,0.059-0.24,0.059c-0.063,0-0.116-0.023-0.161-0.07s-0.067-0.105-0.067-0.176c0-0.066,0.02-0.119,0.059-0.158
		c0.055-0.059,0.275-0.139,0.662-0.24c0.609-0.164,1.07-0.246,1.383-0.246c0.621,0,1.105,0.153,1.453,0.46s0.521,0.653,0.521,1.04
		v3.258h0.656c0.121,0,0.207,0.022,0.258,0.067s0.076,0.104,0.076,0.179c0,0.07-0.025,0.129-0.076,0.176s-0.137,0.07-0.258,0.07
		H261.928z M261.928,28.732c-0.23-0.066-0.475-0.115-0.732-0.146s-0.529-0.047-0.814-0.047c-0.715,0-1.273,0.154-1.676,0.463
		c-0.305,0.23-0.457,0.506-0.457,0.826c0,0.297,0.116,0.547,0.349,0.75s0.571,0.305,1.017,0.305c0.426,0,0.821-0.085,1.187-0.255
		s0.741-0.44,1.128-0.812V28.732z"/>
	<path fill="#00ADEE" d="M266.676,29.212v4.641h1.125c0.078,0,0.134,0.015,0.168,0.045s0.051,0.07,0.051,0.119
		c0,0.047-0.017,0.086-0.051,0.117s-0.09,0.047-0.168,0.047h-2.578c-0.078,0-0.134-0.016-0.168-0.047s-0.051-0.07-0.051-0.117
		c0-0.049,0.017-0.089,0.051-0.119s0.09-0.045,0.168-0.045h1.125v-4.188l-1.07,0.336c-0.052,0.016-0.09,0.023-0.113,0.023
		c-0.039,0-0.075-0.016-0.107-0.049s-0.049-0.071-0.049-0.115c0-0.039,0.013-0.076,0.039-0.109c0.021-0.021,0.064-0.043,0.129-0.066
		L266.676,29.212z"/>
</g>
<g>
	<path fill="#00ADEE" d="M230.313,23.828v3.264c0.594-0.773,1.311-1.16,2.15-1.16c0.719,0,1.334,0.261,1.846,0.782
		s0.768,1.161,0.768,1.919c0,0.766-0.259,1.414-0.776,1.945s-1.13,0.797-1.837,0.797c-0.859,0-1.576-0.387-2.15-1.16v0.967h-1.154
		c-0.117,0-0.201-0.023-0.252-0.07s-0.076-0.105-0.076-0.176c0-0.074,0.025-0.134,0.076-0.179s0.135-0.067,0.252-0.067h0.662v-6.363
		h-0.662c-0.117,0-0.201-0.023-0.252-0.07s-0.076-0.107-0.076-0.182c0-0.07,0.025-0.129,0.076-0.176s0.135-0.07,0.252-0.07H230.313z
		 M234.584,28.656c0-0.621-0.213-1.147-0.639-1.579s-0.924-0.647-1.494-0.647s-1.068,0.216-1.494,0.647s-0.639,0.958-0.639,1.579
		s0.213,1.147,0.639,1.579s0.924,0.647,1.494,0.647s1.068-0.216,1.494-0.647S234.584,29.277,234.584,28.656z"/>
	<path fill="#00ADEE" d="M238.33,29.212v4.641h1.125c0.078,0,0.134,0.015,0.168,0.045s0.051,0.07,0.051,0.119
		c0,0.047-0.017,0.086-0.051,0.117s-0.09,0.047-0.168,0.047h-2.578c-0.078,0-0.134-0.016-0.168-0.047s-0.051-0.07-0.051-0.117
		c0-0.049,0.017-0.089,0.051-0.119s0.09-0.045,0.168-0.045h1.125v-4.188l-1.07,0.336c-0.052,0.016-0.09,0.023-0.113,0.023
		c-0.039,0-0.075-0.016-0.107-0.049s-0.049-0.071-0.049-0.115c0-0.039,0.013-0.076,0.039-0.109c0.021-0.021,0.064-0.043,0.129-0.066
		L238.33,29.212z"/>
</g>
<g>
	<path fill="#00ADEE" d="M176.888,31.181v-0.709c-0.715,0.602-1.479,0.902-2.291,0.902c-0.59,0-1.051-0.149-1.383-0.448
		s-0.498-0.665-0.498-1.099c0-0.477,0.219-0.893,0.656-1.248s1.076-0.533,1.916-0.533c0.227,0,0.473,0.015,0.738,0.044
		s0.553,0.075,0.861,0.138v-0.797c0-0.27-0.125-0.504-0.375-0.703s-0.625-0.299-1.125-0.299c-0.383,0-0.92,0.111-1.611,0.334
		c-0.125,0.039-0.205,0.059-0.24,0.059c-0.063,0-0.116-0.023-0.161-0.07s-0.067-0.105-0.067-0.176c0-0.066,0.02-0.119,0.059-0.158
		c0.055-0.059,0.275-0.139,0.662-0.24c0.609-0.164,1.07-0.246,1.383-0.246c0.621,0,1.105,0.153,1.453,0.46s0.521,0.653,0.521,1.04
		v3.258h0.656c0.121,0,0.207,0.022,0.258,0.067s0.076,0.104,0.076,0.179c0,0.07-0.025,0.129-0.076,0.176s-0.137,0.07-0.258,0.07
		H176.888z M176.888,28.732c-0.23-0.066-0.475-0.115-0.732-0.146s-0.529-0.047-0.814-0.047c-0.715,0-1.273,0.154-1.676,0.463
		c-0.305,0.23-0.457,0.506-0.457,0.826c0,0.297,0.116,0.547,0.349,0.75s0.571,0.305,1.017,0.305c0.426,0,0.821-0.085,1.187-0.255
		s0.741-0.44,1.128-0.812V28.732z"/>
	<path fill="#00ADEE" d="M180.062,33.853h2.52v-0.129c0-0.078,0.016-0.134,0.047-0.168s0.072-0.051,0.121-0.051
		c0.047,0,0.086,0.017,0.117,0.051s0.047,0.09,0.047,0.168v0.457h-3.172v-0.484c0.667-0.599,1.315-1.208,1.945-1.828
		c0.294-0.289,0.496-0.501,0.605-0.637s0.184-0.254,0.225-0.357s0.061-0.207,0.061-0.311c0-0.281-0.113-0.53-0.34-0.746
		s-0.5-0.324-0.82-0.324c-0.287,0-0.541,0.082-0.762,0.246s-0.365,0.367-0.43,0.609c-0.016,0.063-0.035,0.103-0.059,0.121
		c-0.031,0.026-0.068,0.039-0.109,0.039c-0.044,0-0.082-0.015-0.111-0.045s-0.045-0.066-0.045-0.107
		c0-0.125,0.068-0.294,0.205-0.508s0.326-0.381,0.566-0.504s0.488-0.184,0.74-0.184c0.409,0,0.76,0.142,1.055,0.426
		s0.441,0.605,0.441,0.965c0,0.151-0.025,0.29-0.074,0.416s-0.133,0.264-0.252,0.414s-0.332,0.375-0.639,0.678
		c-0.771,0.76-1.398,1.35-1.883,1.77V33.853z"/>
</g>
<g>
	<path fill="#00ADEE" d="M145.272,23.828v3.264c0.594-0.773,1.311-1.16,2.15-1.16c0.719,0,1.334,0.261,1.846,0.782
		s0.768,1.161,0.768,1.919c0,0.766-0.259,1.414-0.776,1.945s-1.13,0.797-1.837,0.797c-0.859,0-1.576-0.387-2.15-1.16v0.967h-1.154
		c-0.117,0-0.201-0.023-0.252-0.07s-0.076-0.105-0.076-0.176c0-0.074,0.025-0.134,0.076-0.179s0.135-0.067,0.252-0.067h0.662v-6.363
		h-0.662c-0.117,0-0.201-0.023-0.252-0.07s-0.076-0.107-0.076-0.182c0-0.07,0.025-0.129,0.076-0.176s0.135-0.07,0.252-0.07H145.272z
		 M149.544,28.656c0-0.621-0.213-1.147-0.639-1.579s-0.924-0.647-1.494-0.647s-1.068,0.216-1.494,0.647s-0.639,0.958-0.639,1.579
		s0.213,1.147,0.639,1.579s0.924,0.647,1.494,0.647s1.068-0.216,1.494-0.647S149.544,29.277,149.544,28.656z"/>
	<path fill="#00ADEE" d="M151.716,33.853h2.52v-0.129c0-0.078,0.016-0.134,0.047-0.168s0.072-0.051,0.121-0.051
		c0.047,0,0.086,0.017,0.117,0.051s0.047,0.09,0.047,0.168v0.457h-3.172v-0.484c0.667-0.599,1.315-1.208,1.945-1.828
		c0.294-0.289,0.496-0.501,0.605-0.637s0.184-0.254,0.225-0.357s0.061-0.207,0.061-0.311c0-0.281-0.113-0.53-0.34-0.746
		s-0.5-0.324-0.82-0.324c-0.287,0-0.541,0.082-0.762,0.246s-0.365,0.367-0.43,0.609c-0.016,0.063-0.035,0.103-0.059,0.121
		c-0.031,0.026-0.068,0.039-0.109,0.039c-0.044,0-0.082-0.015-0.111-0.045s-0.045-0.066-0.045-0.107
		c0-0.125,0.068-0.294,0.205-0.508s0.326-0.381,0.566-0.504s0.488-0.184,0.74-0.184c0.409,0,0.76,0.142,1.055,0.426
		s0.441,0.605,0.441,0.965c0,0.151-0.025,0.29-0.074,0.416s-0.133,0.264-0.252,0.414s-0.332,0.375-0.639,0.678
		c-0.771,0.76-1.398,1.35-1.883,1.77V33.853z"/>
</g>
<g>
	<path fill="#00ADEE" d="M91.849,31.181v-0.709c-0.715,0.602-1.479,0.902-2.291,0.902c-0.59,0-1.051-0.149-1.383-0.448
		s-0.498-0.665-0.498-1.099c0-0.477,0.219-0.893,0.656-1.248s1.076-0.533,1.916-0.533c0.227,0,0.473,0.015,0.738,0.044
		s0.553,0.075,0.861,0.138v-0.797c0-0.27-0.125-0.504-0.375-0.703s-0.625-0.299-1.125-0.299c-0.383,0-0.92,0.111-1.611,0.334
		c-0.125,0.039-0.205,0.059-0.24,0.059c-0.063,0-0.116-0.023-0.161-0.07s-0.067-0.105-0.067-0.176c0-0.066,0.02-0.119,0.059-0.158
		c0.055-0.059,0.275-0.139,0.662-0.24c0.609-0.164,1.07-0.246,1.383-0.246c0.621,0,1.105,0.153,1.453,0.46s0.521,0.653,0.521,1.04
		v3.258h0.656c0.121,0,0.207,0.022,0.258,0.067s0.076,0.104,0.076,0.179c0,0.07-0.025,0.129-0.076,0.176s-0.137,0.07-0.258,0.07
		H91.849z M91.849,28.732c-0.23-0.066-0.475-0.115-0.732-0.146s-0.529-0.047-0.814-0.047c-0.715,0-1.273,0.154-1.676,0.463
		c-0.305,0.23-0.457,0.506-0.457,0.826c0,0.297,0.116,0.547,0.349,0.75s0.571,0.305,1.017,0.305c0.426,0,0.821-0.085,1.187-0.255
		s0.741-0.44,1.128-0.812V28.732z"/>
	<path fill="#00ADEE" d="M97.108,31.513c0.302,0.135,0.533,0.321,0.691,0.557s0.238,0.481,0.238,0.736
		c0,0.393-0.16,0.74-0.479,1.041s-0.718,0.451-1.197,0.451c-0.281,0-0.573-0.06-0.875-0.18s-0.513-0.242-0.633-0.367
		c-0.039-0.042-0.059-0.086-0.059-0.133c0-0.042,0.015-0.078,0.045-0.109s0.066-0.047,0.107-0.047s0.088,0.02,0.141,0.059
		c0.404,0.299,0.831,0.449,1.281,0.449c0.38,0,0.699-0.119,0.955-0.357s0.385-0.503,0.385-0.795c0-0.195-0.063-0.387-0.189-0.574
		s-0.308-0.335-0.545-0.443s-0.477-0.162-0.719-0.162c-0.078,0-0.134-0.015-0.168-0.045s-0.051-0.07-0.051-0.119
		c0-0.047,0.016-0.086,0.049-0.117s0.082-0.047,0.146-0.047l0.281,0.004c0.294,0,0.537-0.09,0.729-0.27s0.287-0.388,0.287-0.625
		c0-0.245-0.1-0.461-0.301-0.648s-0.462-0.281-0.785-0.281c-0.227,0-0.435,0.039-0.625,0.117s-0.342,0.185-0.457,0.32
		c-0.042,0.052-0.074,0.084-0.096,0.096s-0.047,0.018-0.076,0.018c-0.044,0-0.082-0.015-0.113-0.045s-0.047-0.066-0.047-0.107
		c0-0.104,0.113-0.236,0.34-0.395c0.315-0.221,0.673-0.332,1.074-0.332c0.414,0,0.754,0.125,1.02,0.373s0.398,0.545,0.398,0.889
		c0,0.219-0.064,0.426-0.191,0.621S97.356,31.396,97.108,31.513z"/>
</g>
<g>
	<path fill="#00ADEE" d="M60.233,23.828v3.264c0.594-0.773,1.311-1.16,2.15-1.16c0.719,0,1.334,0.261,1.846,0.782
		s0.768,1.161,0.768,1.919c0,0.766-0.259,1.414-0.776,1.945s-1.13,0.797-1.837,0.797c-0.859,0-1.576-0.387-2.15-1.16v0.967h-1.154
		c-0.117,0-0.201-0.023-0.252-0.07s-0.076-0.105-0.076-0.176c0-0.074,0.025-0.134,0.076-0.179s0.135-0.067,0.252-0.067h0.662v-6.363
		h-0.662c-0.117,0-0.201-0.023-0.252-0.07s-0.076-0.107-0.076-0.182c0-0.07,0.025-0.129,0.076-0.176s0.135-0.07,0.252-0.07H60.233z
		 M64.504,28.656c0-0.621-0.213-1.147-0.639-1.579s-0.924-0.647-1.494-0.647s-1.068,0.216-1.494,0.647s-0.639,0.958-0.639,1.579
		s0.213,1.147,0.639,1.579s0.924,0.647,1.494,0.647s1.068-0.216,1.494-0.647S64.504,29.277,64.504,28.656z"/>
	<path fill="#00ADEE" d="M68.762,31.513c0.302,0.135,0.533,0.321,0.691,0.557s0.238,0.481,0.238,0.736
		c0,0.393-0.16,0.74-0.479,1.041s-0.718,0.451-1.197,0.451c-0.281,0-0.573-0.06-0.875-0.18s-0.513-0.242-0.633-0.367
		c-0.039-0.042-0.059-0.086-0.059-0.133c0-0.042,0.015-0.078,0.045-0.109s0.066-0.047,0.107-0.047s0.088,0.02,0.141,0.059
		c0.404,0.299,0.831,0.449,1.281,0.449c0.38,0,0.699-0.119,0.955-0.357s0.385-0.503,0.385-0.795c0-0.195-0.063-0.387-0.189-0.574
		s-0.308-0.335-0.545-0.443s-0.477-0.162-0.719-0.162c-0.078,0-0.134-0.015-0.168-0.045s-0.051-0.07-0.051-0.119
		c0-0.047,0.016-0.086,0.049-0.117s0.082-0.047,0.146-0.047l0.281,0.004c0.294,0,0.537-0.09,0.729-0.27s0.287-0.388,0.287-0.625
		c0-0.245-0.1-0.461-0.301-0.648s-0.462-0.281-0.785-0.281c-0.227,0-0.435,0.039-0.625,0.117s-0.342,0.185-0.457,0.32
		c-0.042,0.052-0.074,0.084-0.096,0.096s-0.047,0.018-0.076,0.018c-0.044,0-0.082-0.015-0.113-0.045s-0.047-0.066-0.047-0.107
		c0-0.104,0.113-0.236,0.34-0.395c0.315-0.221,0.673-0.332,1.074-0.332c0.414,0,0.754,0.125,1.02,0.373s0.398,0.545,0.398,0.889
		c0,0.219-0.064,0.426-0.191,0.621S69.01,31.396,68.762,31.513z"/>
</g>
</svg>
