<?xml version="1.0" encoding="utf-8"?>
<!-- Generator: Adobe Illustrator 15.0.0, SVG Export Plug-In . SVG Version: 6.00 Build 0)  -->
<!DOCTYPE svg PUBLIC "-//W3C//DTD SVG 1.1//EN" "http://www.w3.org/Graphics/SVG/1.1/DTD/svg11.dtd">
<svg version="1.1" id="Layer_1" xmlns="http://www.w3.org/2000/svg" xmlns:xlink="http://www.w3.org/1999/xlink" x="0px" y="0px"
	 width="333.071px" height="325.985px" viewBox="0 0 333.071 325.985" enable-background="new 0 0 333.071 325.985"
	 xml:space="preserve">
<rect x="55.278" y="46.772" fill="#EAEAFF" stroke="#231F20" stroke-width="3" stroke-miterlimit="10" width="226.77" height="226.77"/>
<g>
	<path fill="#EC1C24" d="M33.301,155.372v13.723h3.867c0.242,0,0.414,0.045,0.516,0.135s0.152,0.209,0.152,0.357
		c0,0.141-0.051,0.258-0.152,0.352s-0.273,0.141-0.516,0.141H28.45c-0.234,0-0.402-0.047-0.504-0.141s-0.152-0.211-0.152-0.352
		c0-0.148,0.051-0.268,0.152-0.357s0.27-0.135,0.504-0.135h3.867v-12.727h-2.836c-0.234,0-0.404-0.047-0.51-0.141
		s-0.158-0.215-0.158-0.363c0-0.141,0.051-0.258,0.152-0.352s0.273-0.141,0.516-0.141H33.301z"/>
	<path fill="#EC1C24" d="M48.473,172.711c0,1-0.358,1.854-1.074,2.563c-0.716,0.708-1.58,1.063-2.59,1.063
		c-1.021,0-1.888-0.355-2.602-1.066c-0.714-0.711-1.07-1.563-1.07-2.559c0-1,0.356-1.855,1.07-2.566
		c0.713-0.711,1.581-1.066,2.602-1.066c1.01,0,1.874,0.354,2.59,1.063C48.115,170.849,48.473,171.707,48.473,172.711z
		 M47.809,172.711c0-0.823-0.293-1.523-0.879-2.102s-1.296-0.867-2.129-0.867c-0.833,0-1.543,0.29-2.129,0.871
		s-0.879,1.28-0.879,2.098c0,0.813,0.293,1.511,0.879,2.094s1.295,0.875,2.129,0.875c0.833,0,1.543-0.29,2.129-0.871
		S47.809,173.529,47.809,172.711z"/>
</g>
<g>
	<path fill="#EC1C24" d="M295.507,179.466v13.723h3.867c0.242,0,0.414,0.045,0.516,0.135s0.152,0.209,0.152,0.357
		c0,0.141-0.051,0.258-0.152,0.352s-0.273,0.141-0.516,0.141h-8.719c-0.234,0-0.402-0.047-0.504-0.141s-0.152-0.211-0.152-0.352
		c0-0.148,0.051-0.268,0.152-0.357s0.27-0.135,0.504-0.135h3.867v-12.727h-2.836c-0.234,0-0.404-0.047-0.51-0.141
		s-0.158-0.215-0.158-0.363c0-0.141,0.051-0.258,0.152-0.352s0.273-0.141,0.516-0.141H295.507z"/>
	<path fill="#EC1C24" d="M307.358,193.408v6.109h2.578c0.161,0,0.276,0.031,0.344,0.09c0.067,0.061,0.102,0.141,0.102,0.238
		c0,0.094-0.034,0.172-0.102,0.234s-0.183,0.094-0.344,0.094h-5.813c-0.156,0-0.269-0.031-0.336-0.094s-0.102-0.141-0.102-0.234
		c0-0.098,0.034-0.178,0.102-0.238c0.067-0.059,0.18-0.09,0.336-0.09h2.578v-5.445h-1.914c-0.156,0-0.27-0.031-0.34-0.094
		s-0.105-0.141-0.105-0.234c0-0.098,0.034-0.18,0.102-0.242s0.183-0.094,0.344-0.094H307.358z M307.335,190.041v1.695h-0.969v-1.695
		H307.335z"/>
</g>
<g>
	<path fill="#00ADEE" d="M250.747,38.977v-1.418c-1.43,1.203-2.957,1.805-4.582,1.805c-1.18,0-2.102-0.299-2.766-0.896
		s-0.996-1.33-0.996-2.197c0-0.953,0.438-1.785,1.313-2.496s2.152-1.066,3.832-1.066c0.453,0,0.945,0.029,1.477,0.088
		s1.105,0.15,1.723,0.275v-1.594c0-0.539-0.25-1.008-0.75-1.406s-1.25-0.598-2.25-0.598c-0.766,0-1.84,0.223-3.223,0.668
		c-0.25,0.078-0.41,0.117-0.48,0.117c-0.125,0-0.232-0.047-0.322-0.141s-0.135-0.211-0.135-0.352c0-0.133,0.039-0.238,0.117-0.316
		c0.109-0.117,0.551-0.277,1.324-0.48c1.219-0.328,2.141-0.492,2.766-0.492c1.242,0,2.211,0.307,2.906,0.92s1.043,1.307,1.043,2.08
		v6.516h1.313c0.242,0,0.414,0.045,0.516,0.135s0.152,0.209,0.152,0.357c0,0.141-0.051,0.258-0.152,0.352s-0.273,0.141-0.516,0.141
		H250.747z M250.747,34.078c-0.461-0.133-0.949-0.23-1.465-0.293s-1.059-0.094-1.629-0.094c-1.43,0-2.547,0.309-3.352,0.926
		c-0.609,0.461-0.914,1.012-0.914,1.652c0,0.594,0.232,1.094,0.697,1.5s1.143,0.609,2.033,0.609c0.852,0,1.643-0.17,2.373-0.51
		s1.482-0.881,2.256-1.623V34.078z"/>
</g>
<g>
	<path fill="#00ADEE" d="M224.393,282.931v13.723h1.313c0.242,0,0.414,0.045,0.516,0.135s0.152,0.209,0.152,0.357
		c0,0.141-0.051,0.258-0.152,0.352s-0.273,0.141-0.516,0.141h-2.309v-1.957c-1.141,1.563-2.59,2.344-4.348,2.344
		c-0.891,0-1.744-0.236-2.561-0.709s-1.461-1.146-1.934-2.021s-0.709-1.777-0.709-2.707c0-0.938,0.236-1.842,0.709-2.713
		s1.117-1.545,1.934-2.021s1.674-0.715,2.572-0.715c1.719,0,3.164,0.781,4.336,2.344v-5.555h-1.313
		c-0.242,0-0.414-0.047-0.516-0.141s-0.152-0.215-0.152-0.363c0-0.141,0.051-0.258,0.152-0.352s0.273-0.141,0.516-0.141H224.393z
		 M223.396,292.587c0-1.25-0.422-2.305-1.266-3.164s-1.848-1.289-3.012-1.289c-1.172,0-2.18,0.43-3.023,1.289
		s-1.266,1.914-1.266,3.164c0,1.242,0.422,2.295,1.266,3.158s1.852,1.295,3.023,1.295c1.164,0,2.168-0.432,3.012-1.295
		S223.396,293.83,223.396,292.587z"/>
</g>
<line fill="none" stroke="#00ADEE" stroke-width="0.9874" stroke-miterlimit="10" x1="259.37" y1="131.811" x2="259.37" y2="21.26"/>
<line fill="none" stroke="#00ADEE" stroke-width="0.9682" stroke-miterlimit="10" x1="117.638" y1="63.779" x2="117.638" y2="21.26"/>
<line fill="none" stroke="#EC1C24" stroke-width="0.991" stroke-miterlimit="10" x1="162.992" y1="205.511" x2="318.898" y2="205.511"/>
<line fill="none" stroke="#00ADEE" stroke-miterlimit="10" x1="236.693" y1="120.47" x2="236.693" y2="63.779"/>
<line fill="none" stroke="#231F20" stroke-miterlimit="10" x1="248.03" y1="222.52" x2="248.03" y2="165.827"/>
<line fill="none" stroke="#00ADEE" stroke-miterlimit="10" x1="236.693" y1="131.811" x2="236.693" y2="114.803"/>
<g>
	<g>
		<line fill="none" stroke="#00ADEE" stroke-miterlimit="10" x1="236.692" y1="300.263" x2="236.692" y2="256.85"/>
		<g>
			<polygon fill="#00ADEE" points="242.827,295.293 241.729,294.27 236.693,299.688 231.658,294.27 230.559,295.293 236.693,301.89 
							"/>
		</g>
	</g>
</g>
<line fill="none" stroke="#00ADEE" stroke-miterlimit="10" x1="236.693" y1="114.803" x2="162.992" y2="114.803"/>
<line fill="none" stroke="#00ADEE" stroke-miterlimit="10" x1="259.37" y1="92.126" x2="214.016" y2="92.126"/>
<line fill="none" stroke="#231F20" stroke-miterlimit="10" x1="117.638" y1="171.496" x2="117.638" y2="103.464"/>
<line fill="none" stroke="#00ADEE" stroke-miterlimit="10" x1="236.693" y1="63.779" x2="117.638" y2="63.779"/>
<line fill="none" stroke="#231F20" stroke-miterlimit="10" x1="117.637" y1="171.496" x2="106.299" y2="171.496"/>
<line fill="none" stroke="#231F20" stroke-miterlimit="10" x1="128.977" y1="194.173" x2="106.299" y2="194.173"/>
<g>
	<g>
		<line fill="none" stroke="#EC1C24" stroke-miterlimit="10" x1="72.283" y1="182.833" x2="28.556" y2="182.833"/>
		<g>
			<polygon fill="#EC1C24" points="33.526,176.699 34.549,177.797 29.132,182.832 34.549,187.869 33.526,188.966 26.929,182.832 			
				"/>
		</g>
	</g>
</g>
<line fill="none" stroke="#231F20" stroke-miterlimit="10" x1="248.031" y1="184.252" x2="214.015" y2="184.252"/>
<line fill="none" stroke="#231F20" stroke-miterlimit="10" x1="128.977" y1="103.464" x2="117.639" y2="103.464"/>
<line fill="none" stroke="#231F20" stroke-miterlimit="10" x1="179.999" y1="92.126" x2="162.992" y2="92.126"/>
<line fill="none" stroke="#EC1C24" stroke-miterlimit="10" x1="225.354" y1="219.685" x2="225.354" y2="205.511"/>
<line fill="none" stroke="#231F20" stroke-miterlimit="10" x1="179.997" y1="184.252" x2="162.992" y2="184.252"/>
<g>
	<path fill="#00ADEE" d="M104.007,24.27v6.527c1.188-1.547,2.621-2.32,4.301-2.32c1.438,0,2.668,0.521,3.691,1.564
		s1.535,2.322,1.535,3.838c0,1.531-0.518,2.828-1.553,3.891s-2.26,1.594-3.674,1.594c-1.719,0-3.152-0.773-4.301-2.32v1.934h-2.309
		c-0.234,0-0.402-0.047-0.504-0.141s-0.152-0.211-0.152-0.352c0-0.148,0.051-0.268,0.152-0.357s0.27-0.135,0.504-0.135h1.324V25.266
		h-1.324c-0.234,0-0.402-0.047-0.504-0.141s-0.152-0.215-0.152-0.363c0-0.141,0.051-0.258,0.152-0.352s0.27-0.141,0.504-0.141
		H104.007z M112.55,33.926c0-1.242-0.426-2.295-1.277-3.158s-1.848-1.295-2.988-1.295s-2.137,0.432-2.988,1.295
		s-1.277,1.916-1.277,3.158s0.426,2.295,1.277,3.158s1.848,1.295,2.988,1.295s2.137-0.432,2.988-1.295S112.55,35.168,112.55,33.926z
		"/>
</g>
<g opacity="0.5">
	<path opacity="0.7" fill="#231F20" d="M60.524,292.305v13.613h7.207c0.391,0,0.671,0.075,0.84,0.225s0.254,0.349,0.254,0.596
		c0,0.234-0.085,0.43-0.254,0.586s-0.449,0.234-0.84,0.234H54.899c-0.391,0-0.671-0.078-0.84-0.234s-0.254-0.352-0.254-0.586
		c0-0.247,0.085-0.446,0.254-0.596s0.449-0.225,0.84-0.225h3.965v-13.613H55.31c-0.391,0-0.671-0.078-0.84-0.234
		s-0.254-0.358-0.254-0.605c0-0.234,0.085-0.43,0.254-0.586s0.449-0.234,0.84-0.234h3.555v-2.48c0-1.38,0.56-2.578,1.68-3.594
		s2.604-1.523,4.453-1.523c1.55,0,3.203,0.144,4.961,0.43c0.664,0.104,1.064,0.228,1.201,0.371s0.205,0.332,0.205,0.566
		s-0.078,0.427-0.234,0.576s-0.364,0.225-0.625,0.225c-0.104,0-0.28-0.02-0.527-0.059c-1.966-0.3-3.626-0.449-4.98-0.449
		c-1.433,0-2.536,0.352-3.311,1.055s-1.162,1.504-1.162,2.402v2.48H68.2c0.391,0,0.671,0.078,0.84,0.234s0.254,0.358,0.254,0.605
		c0,0.234-0.085,0.43-0.254,0.586s-0.449,0.234-0.84,0.234H60.524z"/>
	<path opacity="0.7" fill="#231F20" d="M91.032,291.719c0-0.378,0.078-0.651,0.234-0.82s0.352-0.254,0.586-0.254
		c0.247,0,0.449,0.085,0.605,0.254s0.234,0.456,0.234,0.859v2.813c0,0.391-0.078,0.671-0.234,0.84s-0.358,0.254-0.605,0.254
		c-0.222,0-0.407-0.071-0.557-0.215s-0.237-0.378-0.264-0.703c-0.078-0.781-0.481-1.426-1.211-1.934
		c-1.067-0.729-2.48-1.094-4.238-1.094c-1.836,0-3.262,0.371-4.277,1.113c-0.769,0.56-1.152,1.185-1.152,1.875
		c0,0.781,0.456,1.433,1.367,1.953c0.625,0.364,1.81,0.645,3.555,0.84c2.278,0.247,3.86,0.527,4.746,0.84
		c1.263,0.456,2.204,1.087,2.822,1.895s0.928,1.68,0.928,2.617c0,1.394-0.671,2.634-2.012,3.721s-3.308,1.631-5.898,1.631
		s-4.714-0.657-6.367-1.973c0,0.442-0.026,0.729-0.078,0.859s-0.146,0.241-0.283,0.332s-0.29,0.137-0.459,0.137
		c-0.234,0-0.43-0.085-0.586-0.254s-0.234-0.449-0.234-0.84v-3.379c0-0.391,0.075-0.671,0.225-0.84s0.349-0.254,0.596-0.254
		c0.234,0,0.433,0.081,0.596,0.244s0.244,0.381,0.244,0.654c0,0.599,0.149,1.101,0.449,1.504c0.456,0.625,1.182,1.143,2.178,1.553
		s2.217,0.615,3.662,0.615c2.136,0,3.724-0.397,4.766-1.191s1.563-1.634,1.563-2.52c0-1.016-0.527-1.829-1.582-2.441
		c-1.067-0.612-2.62-1.022-4.658-1.23s-3.499-0.481-4.385-0.82s-1.575-0.847-2.07-1.523s-0.742-1.406-0.742-2.188
		c0-1.406,0.69-2.522,2.07-3.35s3.027-1.24,4.941-1.24C87.771,290.059,89.613,290.613,91.032,291.719z"/>
</g>
<path fill="#FFFFFF" stroke="#2D2D2D" stroke-width="2" d="M144.773,86.457h18.219v18.219v15.797h-18.219l0,0
	c-8.724,0-15.797-8.283-15.797-17.008C128.977,94.743,136.05,86.457,144.773,86.457z"/>
<path fill="#FFFFFF" stroke="#2D2D2D" stroke-width="2" d="M144.773,177.166h18.219v18.219v15.797h-18.219l0,0
	c-8.724,0-15.797-8.283-15.797-17.008C128.977,185.452,136.05,177.166,144.773,177.166z"/>
<g>
	<path fill="none" stroke="#2D2D2D" stroke-width="2" d="M230.443,125.307c0.85,1.014,1.786,1.951,2.801,2.801
		c9.554,8.007,23.79,6.752,31.796-2.801"/>
	<path fill="#FFFFFF" stroke="#2D2D2D" stroke-width="2" stroke-linecap="round" stroke-linejoin="round" d="M230.443,130.37v13.739
		c0.907,8.887,7.316,16.933,17.299,21.718c9.982-4.785,16.391-12.831,17.298-21.718V130.37v0.207
		c-8.006,9.553-22.242,10.809-31.796,2.801c-1.015-0.85-1.951-1.787-2.801-2.801"/>
</g>
<g>
	<path fill="none" stroke="#2D2D2D" stroke-width="2" d="M219.686,216.015c0.85,1.014,1.786,1.951,2.801,2.801
		c9.554,8.008,23.79,6.752,31.796-2.801"/>
	<path fill="#FFFFFF" stroke="#2D2D2D" stroke-width="2" stroke-linecap="round" stroke-linejoin="round" d="M219.686,221.078v13.74
		c0.907,8.887,7.316,16.932,17.299,21.717c9.982-4.785,16.391-12.83,17.298-21.717v-13.74v0.207
		c-8.006,9.553-22.242,10.809-31.796,2.801c-1.015-0.85-1.951-1.787-2.801-2.801"/>
</g>
<g>
	<path fill="#FFFFFF" stroke="#2D2D2D" stroke-width="2" stroke-linecap="round" stroke-linejoin="round" d="M111.284,165.827
		H96.171c-9.774,0.906-18.624,7.316-23.888,17.299c5.264,9.982,14.113,16.391,23.888,17.298h15.112h-0.228
		c-10.508-8.007-11.889-22.243-3.081-31.796c0.935-1.016,1.966-1.951,3.081-2.801"/>
</g>
<path id="path3059_4_" nodetypes="cc" fill="none" stroke="#000000" stroke-width="2" d="M178.584,93.106"/>
<path id="path3061_4_" fill="none" stroke="#000000" stroke-width="2" d="M212.549,93.106"/>
<polygon fill="#FFFFFF" stroke="#000000" stroke-width="1.9462" points="212.6,77.953 182.402,92.126 212.6,106.299 "/>
<circle fill="#FFFFFF" stroke="#000000" stroke-width="2" cx="180.709" cy="92.126" r="3.543"/>
<path id="path3059_1_" nodetypes="cc" fill="none" stroke="#000000" stroke-width="2" d="M178.583,185.232"/>
<path id="path3061_1_" fill="none" stroke="#000000" stroke-width="2" d="M212.548,185.232"/>
<polygon fill="#FFFFFF" stroke="#000000" stroke-width="1.9462" points="212.599,170.079 182.401,184.252 212.599,198.425 "/>
<circle fill="#FFFFFF" stroke="#000000" stroke-width="2" cx="180.708" cy="184.252" r="3.543"/>
</svg>
