<?xml version="1.0" encoding="utf-8"?>
<!-- Generator: Adobe Illustrator 15.0.0, SVG Export Plug-In . SVG Version: 6.00 Build 0)  -->
<!DOCTYPE svg PUBLIC "-//W3C//DTD SVG 1.1//EN" "http://www.w3.org/Graphics/SVG/1.1/DTD/svg11.dtd">
<svg version="1.1" id="Layer_1" xmlns="http://www.w3.org/2000/svg" xmlns:xlink="http://www.w3.org/1999/xlink" x="0px" y="0px"
	 width="328.82px" height="328.82px" viewBox="0 0 328.82 328.82" enable-background="new 0 0 328.82 328.82" xml:space="preserve">
<rect x="51.026" y="51.024" fill="#EAEAFF" stroke="#231F20" stroke-width="3" stroke-miterlimit="10" width="226.77" height="226.77"/>
<rect x="73.701" y="90.708" fill="#FFFFFF" stroke="#231F20" stroke-width="2.1866" stroke-miterlimit="10" width="102.045" height="96.376"/>
<g>
	<path fill="#231F20" d="M24.843,115.687v6.527c1.188-1.547,2.621-2.32,4.301-2.32c1.438,0,2.668,0.521,3.691,1.564
		s1.535,2.322,1.535,3.838c0,1.531-0.518,2.828-1.553,3.891s-2.26,1.594-3.674,1.594c-1.719,0-3.152-0.773-4.301-2.32v1.934h-2.309
		c-0.234,0-0.402-0.047-0.504-0.141s-0.152-0.211-0.152-0.352c0-0.148,0.051-0.268,0.152-0.357s0.27-0.135,0.504-0.135h1.324
		v-12.727h-1.324c-0.234,0-0.402-0.047-0.504-0.141s-0.152-0.215-0.152-0.363c0-0.141,0.051-0.258,0.152-0.352
		s0.27-0.141,0.504-0.141H24.843z M33.386,125.343c0-1.242-0.426-2.295-1.277-3.158s-1.848-1.295-2.988-1.295
		s-2.137,0.432-2.988,1.295s-1.277,1.916-1.277,3.158s0.426,2.295,1.277,3.158s1.848,1.295,2.988,1.295s2.137-0.432,2.988-1.295
		S33.386,126.585,33.386,125.343z"/>
	<path fill="#231F20" d="M44.222,133.026c0,1-0.358,1.854-1.074,2.563c-0.716,0.708-1.58,1.063-2.59,1.063
		c-1.021,0-1.888-0.355-2.602-1.066c-0.714-0.711-1.07-1.563-1.07-2.559c0-1,0.356-1.855,1.07-2.566
		c0.713-0.711,1.581-1.066,2.602-1.066c1.01,0,1.874,0.354,2.59,1.063C43.863,131.164,44.222,132.021,44.222,133.026z
		 M43.558,133.026c0-0.823-0.293-1.523-0.879-2.102s-1.296-0.867-2.129-0.867c-0.833,0-1.543,0.29-2.129,0.871
		s-0.879,1.28-0.879,2.098c0,0.813,0.293,1.511,0.879,2.094s1.295,0.875,2.129,0.875c0.833,0,1.543-0.29,2.129-0.871
		S43.558,133.844,43.558,133.026z"/>
</g>
<g>
	<path fill="#231F20" d="M81.36,130.36h2.088v7.297h0.048c0.744-1.296,2.088-2.112,3.96-2.112c2.904,0,4.92,2.4,4.92,5.905
		c0,4.152-2.64,6.216-5.232,6.216c-1.68,0-3.024-0.647-3.912-2.16h-0.048l-0.12,1.896h-1.8c0.048-0.792,0.096-1.968,0.096-3V130.36z
		 M83.448,142.746c0,0.264,0.024,0.528,0.096,0.768c0.384,1.465,1.632,2.473,3.168,2.473c2.232,0,3.528-1.8,3.528-4.465
		c0-2.328-1.2-4.32-3.48-4.32c-1.417,0-2.76,1.008-3.192,2.592c-0.072,0.264-0.12,0.552-0.12,0.888V142.746z"/>
	<path fill="#231F20" d="M101.442,149.464c0,2.865-2,4.113-3.857,4.113c-2.081,0-3.713-1.536-3.713-3.985
		c0-2.577,1.712-4.098,3.841-4.098C99.938,145.495,101.442,147.111,101.442,149.464z M95.312,149.544
		c0,1.696,0.96,2.978,2.337,2.978c1.345,0,2.353-1.265,2.353-3.01c0-1.313-0.656-2.961-2.321-2.961
		C96.032,146.551,95.312,148.087,95.312,149.544z"/>
</g>
<g>
	<path fill="#00ADEE" d="M29.253,210.382c0,1.5-0.537,2.781-1.611,3.844s-2.369,1.594-3.885,1.594c-1.531,0-2.832-0.533-3.902-1.6
		s-1.605-2.346-1.605-3.838c0-1.5,0.535-2.783,1.605-3.85s2.371-1.6,3.902-1.6c1.516,0,2.811,0.531,3.885,1.594
		S29.253,208.875,29.253,210.382z M28.257,210.382c0-1.234-0.439-2.285-1.318-3.152s-1.943-1.301-3.193-1.301
		s-2.314,0.436-3.193,1.307s-1.318,1.92-1.318,3.146c0,1.219,0.439,2.266,1.318,3.141s1.943,1.313,3.193,1.313
		s2.314-0.436,3.193-1.307S28.257,211.609,28.257,210.382z"/>
	<path fill="#00ADEE" d="M41.405,205.929c0-0.227,0.047-0.391,0.141-0.492s0.211-0.152,0.352-0.152c0.148,0,0.27,0.051,0.363,0.152
		s0.141,0.273,0.141,0.516v1.688c0,0.234-0.047,0.402-0.141,0.504s-0.215,0.152-0.363,0.152c-0.133,0-0.244-0.043-0.334-0.129
		s-0.143-0.227-0.158-0.422c-0.047-0.469-0.289-0.855-0.727-1.16c-0.641-0.438-1.488-0.656-2.543-0.656
		c-1.102,0-1.957,0.223-2.566,0.668c-0.461,0.336-0.691,0.711-0.691,1.125c0,0.469,0.273,0.859,0.82,1.172
		c0.375,0.219,1.086,0.387,2.133,0.504c1.367,0.148,2.316,0.316,2.848,0.504c0.758,0.273,1.322,0.652,1.693,1.137
		s0.557,1.008,0.557,1.57c0,0.836-0.402,1.58-1.207,2.232s-1.984,0.979-3.539,0.979s-2.828-0.395-3.82-1.184
		c0,0.266-0.016,0.438-0.047,0.516s-0.088,0.145-0.17,0.199s-0.174,0.082-0.275,0.082c-0.141,0-0.258-0.051-0.352-0.152
		s-0.141-0.27-0.141-0.504v-2.027c0-0.234,0.045-0.402,0.135-0.504s0.209-0.152,0.357-0.152c0.141,0,0.26,0.049,0.357,0.146
		s0.146,0.229,0.146,0.393c0,0.359,0.09,0.66,0.27,0.902c0.273,0.375,0.709,0.686,1.307,0.932s1.33,0.369,2.197,0.369
		c1.281,0,2.234-0.238,2.859-0.715s0.938-0.98,0.938-1.512c0-0.609-0.316-1.098-0.949-1.465c-0.641-0.367-1.572-0.613-2.795-0.738
		s-2.1-0.289-2.631-0.492s-0.945-0.508-1.242-0.914s-0.445-0.844-0.445-1.313c0-0.844,0.414-1.514,1.242-2.01
		s1.816-0.744,2.965-0.744C39.448,204.933,40.554,205.265,41.405,205.929z"/>
</g>
<g>
	<path fill="#231F20" d="M285.631,115.687v6.527c1.188-1.547,2.621-2.32,4.301-2.32c1.438,0,2.668,0.521,3.691,1.564
		s1.535,2.322,1.535,3.838c0,1.531-0.518,2.828-1.553,3.891s-2.26,1.594-3.674,1.594c-1.719,0-3.152-0.773-4.301-2.32v1.934h-2.309
		c-0.234,0-0.402-0.047-0.504-0.141s-0.152-0.211-0.152-0.352c0-0.148,0.051-0.268,0.152-0.357s0.27-0.135,0.504-0.135h1.324
		v-12.727h-1.324c-0.234,0-0.402-0.047-0.504-0.141s-0.152-0.215-0.152-0.363c0-0.141,0.051-0.258,0.152-0.352
		s0.27-0.141,0.504-0.141H285.631z M294.174,125.343c0-1.242-0.426-2.295-1.277-3.158s-1.848-1.295-2.988-1.295
		s-2.137,0.432-2.988,1.295s-1.277,1.916-1.277,3.158s0.426,2.295,1.277,3.158s1.848,1.295,2.988,1.295s2.137-0.432,2.988-1.295
		S294.174,126.585,294.174,125.343z"/>
	<path fill="#231F20" d="M301.689,129.628v6.109h2.578c0.161,0,0.276,0.03,0.344,0.09s0.102,0.14,0.102,0.238
		c0,0.094-0.034,0.172-0.102,0.234s-0.183,0.094-0.344,0.094h-5.813c-0.156,0-0.269-0.031-0.336-0.094s-0.102-0.141-0.102-0.234
		c0-0.099,0.034-0.179,0.102-0.238s0.18-0.09,0.336-0.09h2.578v-5.445h-1.914c-0.156,0-0.27-0.031-0.34-0.094
		s-0.105-0.141-0.105-0.234c0-0.099,0.034-0.18,0.102-0.242s0.183-0.094,0.344-0.094H301.689z M301.666,126.261v1.695h-0.969v-1.695
		H301.666z"/>
</g>
<g>
	<path fill="#231F20" d="M154.432,130.361h2.088v7.296h0.049c0.744-1.296,2.088-2.112,3.96-2.112c2.904,0,4.921,2.4,4.921,5.905
		c0,4.152-2.641,6.216-5.232,6.216c-1.681,0-3.024-0.647-3.913-2.16h-0.048l-0.12,1.896h-1.8c0.048-0.792,0.096-1.968,0.096-3
		V130.361z M156.52,142.746c0,0.264,0.024,0.528,0.097,0.768c0.384,1.465,1.632,2.473,3.168,2.473c2.232,0,3.528-1.8,3.528-4.465
		c0-2.328-1.2-4.32-3.48-4.32c-1.416,0-2.76,1.009-3.192,2.593c-0.071,0.264-0.12,0.552-0.12,0.888V142.746z"/>
	<path fill="#231F20" d="M169.072,143.478c0,0.48-0.336,0.864-0.896,0.864c-0.513,0-0.849-0.384-0.849-0.864
		s0.353-0.881,0.881-0.881C168.72,142.597,169.072,142.982,169.072,143.478z M167.504,153.402v-7.747h1.408v7.747H167.504z"/>
</g>
<g>
	<path fill="#EC1C24" d="M49.556,34.016l-4.57-9.152h-0.293c-0.234,0-0.402-0.047-0.504-0.141s-0.152-0.211-0.152-0.352
		c0-0.102,0.025-0.193,0.076-0.275s0.117-0.141,0.199-0.176s0.209-0.053,0.381-0.053h2.695c0.234,0,0.402,0.047,0.504,0.141
		s0.152,0.215,0.152,0.363c0,0.141-0.051,0.258-0.152,0.352s-0.27,0.141-0.504,0.141h-1.324l4.02,8.074l3.961-8.074H52.72
		c-0.234,0-0.402-0.047-0.504-0.141s-0.152-0.215-0.152-0.363c0-0.141,0.051-0.258,0.152-0.352s0.27-0.141,0.504-0.141h2.684
		c0.242,0,0.414,0.047,0.516,0.141s0.152,0.215,0.152,0.363c0,0.102-0.031,0.195-0.094,0.281s-0.133,0.143-0.211,0.17
		s-0.297,0.041-0.656,0.041l-6.234,12.691h1.535c0.234,0,0.402,0.045,0.504,0.135s0.152,0.209,0.152,0.357
		c0,0.141-0.051,0.258-0.152,0.352s-0.27,0.141-0.504,0.141H44.74c-0.234,0-0.402-0.045-0.504-0.135s-0.152-0.209-0.152-0.357
		s0.051-0.268,0.152-0.357s0.27-0.135,0.504-0.135h3.082L49.556,34.016z"/>
</g>
<g>
	<path fill="#231F20" d="M91.302,96.344h2.088v7.297h0.048c0.744-1.296,2.088-2.112,3.96-2.112c2.904,0,4.92,2.4,4.92,5.904
		c0,4.152-2.64,6.217-5.232,6.217c-1.68,0-3.024-0.648-3.912-2.16h-0.048l-0.12,1.896h-1.8c0.048-0.792,0.096-1.968,0.096-3V96.344z
		 M93.391,108.729c0,0.264,0.024,0.528,0.096,0.768c0.384,1.464,1.632,2.472,3.168,2.472c2.232,0,3.528-1.8,3.528-4.464
		c0-2.328-1.2-4.32-3.48-4.32c-1.417,0-2.76,1.008-3.192,2.592c-0.072,0.264-0.12,0.552-0.12,0.888V108.729z"/>
</g>
<g>
	<path fill="#231F20" d="M151.531,110.602c0,1.008,0.048,1.992,0.168,2.784h-1.896l-0.168-1.464h-0.072
		c-0.647,0.912-1.896,1.729-3.552,1.729c-2.353,0-3.553-1.656-3.553-3.336c0-2.808,2.496-4.344,6.984-4.32v-0.24
		c0-0.936-0.264-2.688-2.64-2.664c-1.104,0-2.232,0.312-3.049,0.864l-0.479-1.417c0.96-0.6,2.376-1.008,3.84-1.008
		c3.553,0,4.417,2.424,4.417,4.729V110.602z M149.491,107.457c-2.305-0.048-4.921,0.36-4.921,2.616c0,1.393,0.912,2.017,1.969,2.017
		c1.536,0,2.52-0.96,2.855-1.944c0.072-0.24,0.097-0.48,0.097-0.672V107.457z"/>
</g>
<g>
	<path fill="#F6921E" d="M186.24,285.765v13.723h1.313c0.242,0,0.414,0.045,0.516,0.135s0.152,0.209,0.152,0.357
		c0,0.141-0.051,0.258-0.152,0.352s-0.273,0.141-0.516,0.141h-2.309v-1.957c-1.141,1.563-2.59,2.344-4.348,2.344
		c-0.891,0-1.744-0.236-2.561-0.709s-1.461-1.146-1.934-2.021s-0.709-1.777-0.709-2.707c0-0.938,0.236-1.842,0.709-2.713
		s1.117-1.545,1.934-2.021s1.674-0.715,2.572-0.715c1.719,0,3.164,0.781,4.336,2.344v-5.555h-1.313
		c-0.242,0-0.414-0.047-0.516-0.141s-0.152-0.215-0.152-0.363c0-0.141,0.051-0.258,0.152-0.352s0.273-0.141,0.516-0.141H186.24z
		 M185.244,295.421c0-1.25-0.422-2.305-1.266-3.164s-1.848-1.289-3.012-1.289c-1.172,0-2.18,0.43-3.023,1.289
		s-1.266,1.914-1.266,3.164c0,1.242,0.422,2.295,1.266,3.158s1.852,1.295,3.023,1.295c1.164,0,2.168-0.432,3.012-1.295
		S185.244,296.664,185.244,295.421z"/>
</g>
<line fill="none" stroke="#EC1C24" stroke-miterlimit="10" x1="91.002" y1="90.415" x2="51.317" y2="50.73"/>
<line fill="none" stroke="#00A551" stroke-width="1.2247" stroke-miterlimit="10" x1="147.402" y1="51.023" x2="147.402" y2="17.008"/>
<line fill="none" stroke="#EC1C24" stroke-miterlimit="10" x1="51.024" y1="51.023" x2="28.145" y2="28.145"/>
<line fill="none" stroke="#231F20" stroke-width="1.2302" stroke-miterlimit="10" x1="278.385" y1="141.732" x2="311.812" y2="141.732"/>
<line fill="none" stroke="#00ADEE" stroke-width="1.3229" stroke-miterlimit="10" x1="51.024" y1="226.771" x2="11.339" y2="226.771"/>
<line fill="none" stroke="#00A551" stroke-miterlimit="10" x1="147.402" y1="90.707" x2="147.402" y2="51.023"/>
<line fill="none" stroke="#00A551" stroke-miterlimit="10" x1="232.441" y1="204.092" x2="232.441" y2="73.7"/>
<line fill="none" stroke="#231F20" stroke-miterlimit="10" x1="153.071" y1="227.086" x2="153.071" y2="215.748"/>
<line fill="none" stroke="#231F20" stroke-miterlimit="10" x1="175.748" y1="227.086" x2="175.748" y2="215.748"/>
<g>
	<g>
		
			<line fill="none" stroke="#F6921E" stroke-width="1.0648" stroke-miterlimit="10" x1="164.41" y1="304.41" x2="164.41" y2="260.788"/>
		<g>
			<polygon fill="#F6921E" points="170.942,299.118 169.772,298.028 164.412,303.796 159.049,298.028 157.879,299.118 
				164.412,306.142 			"/>
		</g>
	</g>
</g>
<line fill="none" stroke="#00ADEE" stroke-miterlimit="10" x1="144.566" y1="249.449" x2="85.039" y2="249.449"/>
<line fill="none" stroke="#00ADEE" stroke-miterlimit="10" x1="232.441" y1="249.764" x2="181.418" y2="249.764"/>
<line fill="none" stroke="#00ADEE" stroke-miterlimit="10" x1="232.441" y1="249.449" x2="232.441" y2="226.774"/>
<line fill="none" stroke="#00ADEE" stroke-miterlimit="10" x1="102.048" y1="226.772" x2="51.024" y2="226.772"/>
<line fill="none" stroke="#231F20" stroke-miterlimit="10" x1="153.07" y1="215.748" x2="141.732" y2="215.748"/>
<line fill="none" stroke="#231F20" stroke-miterlimit="10" x1="107.716" y1="204.094" x2="96.378" y2="204.094"/>
<g>
	<g>
		<line fill="none" stroke="#231F20" stroke-miterlimit="10" x1="73.701" y1="141.732" x2="24.304" y2="141.732"/>
		<g>
			<polygon fill="#231F20" points="29.274,135.597 30.297,136.696 24.88,141.73 30.297,146.767 29.274,147.866 22.677,141.73 			"/>
		</g>
	</g>
</g>
<line fill="none" stroke="#231F20" stroke-width="0.9733" stroke-miterlimit="10" x1="277.796" y1="141.732" x2="175.749" y2="141.732"/>
<line fill="none" stroke="#00A551" stroke-miterlimit="10" x1="232.441" y1="73.701" x2="147.401" y2="73.701"/>
<line fill="none" stroke="#231F20" stroke-miterlimit="10" x1="187.086" y1="215.748" x2="175.748" y2="215.748"/>
<line fill="none" stroke="#00ADEE" stroke-miterlimit="10" x1="85.039" y1="249.763" x2="85.039" y2="226.771"/>
<line fill="none" stroke="#231F20" stroke-width="0.868" stroke-miterlimit="10" x1="96.378" y1="204.41" x2="96.378" y2="187.086"/>
<line fill="none" stroke="#00ADEE" stroke-miterlimit="10" x1="231.724" y1="227.086" x2="221.82" y2="227.086"/>
<line fill="none" stroke="#00A551" stroke-miterlimit="10" x1="232.441" y1="204.094" x2="221.105" y2="204.094"/>
<g>
	<path fill="#00A551" d="M159.414,28.707l4.512,4.324c0.297,0,0.484,0.014,0.563,0.041s0.146,0.084,0.205,0.17
		s0.088,0.18,0.088,0.281c0,0.141-0.051,0.258-0.152,0.352s-0.273,0.141-0.516,0.141h-3.164c-0.242,0-0.414-0.047-0.516-0.141
		s-0.152-0.211-0.152-0.352c0-0.148,0.051-0.268,0.152-0.357s0.273-0.135,0.516-0.135h1.629l-3.832-3.668l-3.809,3.668h1.641
		c0.234,0,0.402,0.045,0.504,0.135s0.152,0.209,0.152,0.357c0,0.141-0.051,0.258-0.152,0.352s-0.27,0.141-0.504,0.141h-3.199
		c-0.234,0-0.402-0.047-0.504-0.141s-0.152-0.211-0.152-0.352c0-0.102,0.029-0.195,0.088-0.281s0.125-0.143,0.199-0.17
		s0.26-0.041,0.557-0.041l4.512-4.324l-4.008-3.844c-0.281,0-0.459-0.016-0.533-0.047s-0.141-0.09-0.199-0.176
		s-0.088-0.18-0.088-0.281c0-0.141,0.051-0.258,0.152-0.352s0.273-0.141,0.516-0.141h2.684c0.242,0,0.412,0.047,0.51,0.141
		s0.146,0.215,0.146,0.363c0,0.141-0.049,0.258-0.146,0.352s-0.268,0.141-0.51,0.141h-1.172l3.316,3.199l3.34-3.199h-1.172
		c-0.234,0-0.404-0.047-0.51-0.141s-0.158-0.215-0.158-0.363c0-0.141,0.051-0.258,0.152-0.352s0.273-0.141,0.516-0.141h2.684
		c0.234,0,0.402,0.047,0.504,0.141s0.152,0.215,0.152,0.363c0,0.094-0.029,0.184-0.088,0.27s-0.125,0.145-0.199,0.176
		s-0.252,0.047-0.533,0.047L159.414,28.707z"/>
</g>
<g>
	<path fill="#231F20" d="M99.847,164.376v14.041c0,1.032,0.048,2.208,0.096,3h-1.872l-0.096-2.017h-0.072
		c-0.624,1.297-2.016,2.28-3.913,2.28c-2.808,0-4.992-2.376-4.992-5.904c-0.024-3.864,2.4-6.217,5.208-6.217
		c1.8,0,2.976,0.841,3.504,1.753h0.048v-6.937H99.847z M97.759,174.529c0-0.264-0.024-0.624-0.096-0.888
		c-0.312-1.32-1.464-2.425-3.048-2.425c-2.184,0-3.48,1.921-3.48,4.465c0,2.352,1.176,4.296,3.432,4.296
		c1.416,0,2.712-0.96,3.096-2.52c0.072-0.288,0.096-0.576,0.096-0.912V174.529z"/>
	<path fill="#231F20" d="M106.159,164.808c-0.552,2.017-1.584,4.608-2.232,5.713l-1.344,0.144c0.504-1.416,1.152-3.889,1.417-5.616
		L106.159,164.808z"/>
</g>
<path id="path3059_4_" nodetypes="cc" fill="none" stroke="#000000" stroke-width="2" d="M-34.016,249.718"/>
<path id="path3061_4_" fill="none" stroke="#000000" stroke-width="2" d="M-67.981,249.718"/>
<path id="path2671_1_" type="arc" ry="4" rx="4" cy="25" cx="76" fill="#FFFFFF" stroke="#000000" stroke-width="2" d="
	M107.47,226.922c0,1.65-1.214,2.988-2.712,2.988c-1.497,0-2.711-1.338-2.711-2.988c0-1.648,1.214-2.986,2.711-2.986
	C106.256,223.936,107.47,225.274,107.47,226.922z"/>
<g opacity="0.5">
	<path opacity="0.7" fill="#231F20" d="M230.301,290.888v-0.547c0-0.404,0.078-0.69,0.234-0.859c0.156-0.17,0.352-0.254,0.586-0.254
		c0.247,0,0.449,0.084,0.605,0.254c0.156,0.169,0.234,0.455,0.234,0.859v3.711c-0.014,0.403-0.095,0.689-0.244,0.859
		c-0.15,0.169-0.349,0.254-0.596,0.254c-0.222,0-0.407-0.075-0.557-0.225c-0.15-0.15-0.238-0.4-0.264-0.752
		c-0.078-0.925-0.688-1.804-1.826-2.637c-1.14-0.834-2.673-1.25-4.6-1.25c-2.436,0-4.284,0.762-5.547,2.285
		c-1.264,1.523-1.895,3.268-1.895,5.234c0,2.122,0.696,3.873,2.09,5.254c1.393,1.38,3.196,2.07,5.41,2.07
		c1.275,0,2.574-0.234,3.896-0.703c1.321-0.469,2.516-1.225,3.584-2.266c0.273-0.261,0.514-0.391,0.723-0.391
		c0.221,0,0.406,0.074,0.557,0.225c0.149,0.149,0.225,0.335,0.225,0.557c0,0.56-0.658,1.27-1.973,2.129
		c-2.123,1.393-4.486,2.09-7.09,2.09c-2.644,0-4.814-0.844-6.514-2.529c-1.699-1.687-2.549-3.825-2.549-6.416
		c0-2.644,0.869-4.838,2.607-6.582c1.738-1.745,3.929-2.617,6.572-2.617C226.485,288.642,228.595,289.39,230.301,290.888z"/>
	<path opacity="0.7" fill="#231F20" d="M252.879,290.302c0-0.378,0.078-0.651,0.234-0.82c0.156-0.17,0.352-0.254,0.586-0.254
		c0.247,0,0.449,0.084,0.605,0.254c0.156,0.169,0.234,0.455,0.234,0.859v2.813c0,0.391-0.078,0.67-0.234,0.84
		c-0.156,0.169-0.358,0.254-0.605,0.254c-0.222,0-0.407-0.072-0.557-0.215c-0.149-0.144-0.237-0.378-0.264-0.703
		c-0.078-0.781-0.481-1.426-1.211-1.934c-1.067-0.729-2.48-1.094-4.238-1.094c-1.836,0-3.262,0.371-4.277,1.113
		c-0.769,0.56-1.152,1.185-1.152,1.875c0,0.781,0.456,1.432,1.367,1.953c0.625,0.364,1.81,0.645,3.555,0.84
		c2.278,0.247,3.86,0.527,4.746,0.84c1.263,0.455,2.204,1.087,2.822,1.895c0.618,0.807,0.928,1.68,0.928,2.617
		c0,1.393-0.671,2.633-2.012,3.721c-1.341,1.086-3.308,1.631-5.898,1.631s-4.714-0.658-6.367-1.973c0,0.442-0.026,0.729-0.078,0.859
		c-0.052,0.13-0.146,0.24-0.283,0.332c-0.137,0.091-0.29,0.137-0.459,0.137c-0.234,0-0.43-0.085-0.586-0.254
		c-0.156-0.17-0.234-0.449-0.234-0.84v-3.379c0-0.391,0.074-0.671,0.225-0.84c0.149-0.17,0.348-0.254,0.596-0.254
		c0.234,0,0.433,0.081,0.596,0.244c0.163,0.162,0.244,0.381,0.244,0.654c0,0.599,0.149,1.1,0.449,1.504
		c0.456,0.625,1.182,1.143,2.178,1.553s2.217,0.615,3.662,0.615c2.136,0,3.724-0.397,4.766-1.191
		c1.042-0.795,1.563-1.635,1.563-2.52c0-1.016-0.527-1.83-1.582-2.441c-1.067-0.612-2.62-1.022-4.658-1.23
		c-2.038-0.209-3.499-0.482-4.385-0.82c-0.886-0.339-1.575-0.847-2.07-1.523c-0.495-0.678-0.742-1.406-0.742-2.188
		c0-1.406,0.69-2.523,2.07-3.35c1.38-0.827,3.027-1.24,4.941-1.24C249.617,288.642,251.46,289.195,252.879,290.302z"/>
	<path opacity="0.7" fill="#231F20" d="M263.992,289.228v1.66c1.394-1.498,2.793-2.246,4.199-2.246c0.847,0,1.589,0.225,2.227,0.674
		s1.172,1.129,1.602,2.041c0.729-0.912,1.468-1.592,2.217-2.041s1.501-0.674,2.256-0.674c1.185,0,2.129,0.384,2.832,1.152
		c0.925,0.989,1.387,2.07,1.387,3.242v11.465h1.387c0.391,0,0.671,0.074,0.84,0.225c0.169,0.149,0.254,0.348,0.254,0.596
		c0,0.234-0.085,0.43-0.254,0.586s-0.449,0.234-0.84,0.234h-3.027v-12.949c0-0.834-0.254-1.523-0.762-2.07s-1.094-0.82-1.758-0.82
		c-0.599,0-1.23,0.225-1.895,0.674s-1.419,1.331-2.266,2.646v10.879h1.367c0.391,0,0.671,0.074,0.84,0.225
		c0.169,0.149,0.254,0.348,0.254,0.596c0,0.234-0.085,0.43-0.254,0.586s-0.449,0.234-0.84,0.234h-3.027V293.31
		c0-0.873-0.257-1.592-0.771-2.158s-1.091-0.85-1.729-0.85c-0.586,0-1.165,0.188-1.738,0.566c-0.794,0.533-1.628,1.451-2.5,2.754
		v10.879h1.387c0.391,0,0.671,0.074,0.84,0.225c0.169,0.149,0.254,0.348,0.254,0.596c0,0.234-0.085,0.43-0.254,0.586
		s-0.449,0.234-0.84,0.234h-4.414c-0.391,0-0.671-0.078-0.84-0.234s-0.254-0.352-0.254-0.586c0-0.248,0.085-0.446,0.254-0.596
		c0.169-0.15,0.449-0.225,0.84-0.225h1.387v-13.613h-1.387c-0.391,0-0.671-0.078-0.84-0.234s-0.254-0.358-0.254-0.605
		c0-0.234,0.085-0.43,0.254-0.586s0.449-0.234,0.84-0.234H263.992z"/>
</g>
<g opacity="0.5">
	<path opacity="0.7" fill="#231F20" d="M116.547,137.869v8.508h4.504c0.244,0,0.419,0.047,0.525,0.141
		c0.105,0.094,0.158,0.219,0.158,0.373c0,0.146-0.053,0.268-0.158,0.365c-0.106,0.098-0.281,0.146-0.525,0.146h-8.02
		c-0.244,0-0.42-0.049-0.525-0.146s-0.158-0.219-0.158-0.365c0-0.154,0.053-0.279,0.158-0.373s0.281-0.141,0.525-0.141h2.478v-8.508
		h-2.222c-0.244,0-0.419-0.049-0.525-0.146c-0.105-0.098-0.158-0.224-0.158-0.378c0-0.146,0.053-0.269,0.158-0.366
		c0.106-0.098,0.281-0.146,0.525-0.146h2.222v-1.55c0-0.862,0.35-1.611,1.05-2.246s1.628-0.952,2.783-0.952
		c0.969,0,2.002,0.09,3.101,0.269c0.415,0.065,0.665,0.143,0.751,0.232c0.085,0.09,0.128,0.208,0.128,0.354s-0.049,0.267-0.146,0.36
		c-0.098,0.094-0.228,0.141-0.391,0.141c-0.065,0-0.175-0.012-0.329-0.037c-1.229-0.187-2.267-0.281-3.113-0.281
		c-0.896,0-1.585,0.22-2.069,0.659s-0.726,0.94-0.726,1.501v1.55h4.797c0.244,0,0.419,0.049,0.525,0.146
		c0.105,0.098,0.158,0.224,0.158,0.378c0,0.146-0.053,0.269-0.158,0.366c-0.106,0.098-0.281,0.146-0.525,0.146H116.547z"/>
	<path opacity="0.7" fill="#231F20" d="M135.613,137.502c0-0.236,0.049-0.407,0.146-0.513c0.098-0.105,0.22-0.159,0.366-0.159
		c0.154,0,0.28,0.053,0.378,0.159c0.098,0.106,0.146,0.285,0.146,0.537v1.758c0,0.244-0.049,0.419-0.146,0.525
		c-0.098,0.106-0.224,0.159-0.378,0.159c-0.139,0-0.255-0.044-0.348-0.134c-0.094-0.089-0.148-0.236-0.165-0.439
		c-0.049-0.488-0.301-0.891-0.757-1.208c-0.667-0.456-1.55-0.684-2.649-0.684c-1.146,0-2.038,0.232-2.673,0.696
		c-0.48,0.35-0.72,0.741-0.72,1.172c0,0.488,0.284,0.895,0.854,1.221c0.391,0.228,1.132,0.402,2.223,0.524
		c1.424,0.155,2.412,0.329,2.966,0.524c0.789,0.285,1.377,0.68,1.764,1.185s0.58,1.05,0.58,1.636c0,0.871-0.419,1.646-1.257,2.326
		c-0.839,0.679-2.067,1.019-3.688,1.019c-1.619,0-2.945-0.411-3.979-1.233c0,0.277-0.017,0.457-0.049,0.537
		c-0.033,0.082-0.092,0.151-0.178,0.208c-0.085,0.058-0.181,0.085-0.287,0.085c-0.146,0-0.268-0.053-0.365-0.158
		s-0.146-0.281-0.146-0.525v-2.111c0-0.244,0.046-0.419,0.14-0.525c0.094-0.105,0.218-0.158,0.372-0.158
		c0.146,0,0.271,0.051,0.373,0.152c0.102,0.102,0.152,0.238,0.152,0.409c0,0.374,0.094,0.688,0.281,0.94
		c0.284,0.391,0.738,0.713,1.36,0.971c0.623,0.256,1.386,0.384,2.289,0.384c1.335,0,2.327-0.248,2.979-0.745
		c0.651-0.496,0.977-1.021,0.977-1.574c0-0.635-0.329-1.143-0.989-1.525c-0.667-0.383-1.638-0.639-2.911-0.77
		c-1.273-0.13-2.187-0.301-2.74-0.513s-0.984-0.528-1.294-0.952c-0.31-0.423-0.464-0.879-0.464-1.367
		c0-0.879,0.432-1.577,1.294-2.093c0.862-0.517,1.893-0.775,3.088-0.775C133.574,136.465,134.727,136.811,135.613,137.502z"/>
</g>
<g>
	<path fill="#FFFFFF" stroke="#2D2D2D" stroke-width="2" stroke-linecap="round" stroke-linejoin="round" d="M147.402,221.787
		v15.112c0.906,9.774,7.316,18.624,17.298,23.889c9.982-5.264,16.391-14.113,17.298-23.889v-15.111v0.227
		c-8.007,10.508-22.243,11.889-31.795,3.081c-1.016-0.935-1.951-1.966-2.801-3.081"/>
</g>
<path fill="#FFFFFF" stroke="#2D2D2D" stroke-width="2" d="M202.884,198.425h18.219v18.219v15.797h-18.219l0,0
	c-8.724,0-15.796-8.283-15.796-17.008C187.088,206.711,194.16,198.425,202.884,198.425z"/>
<path fill="#FFFFFF" stroke="#2D2D2D" stroke-width="2" d="M125.936,232.441h-18.219l0-18.219l0-15.797h18.219l0,0
	c8.724,0,15.796,8.283,15.796,17.008C141.731,224.155,134.66,232.441,125.936,232.441z"/>
</svg>
