<?xml version="1.0" encoding="utf-8"?>
<!-- Generator: Adobe Illustrator 15.0.0, SVG Export Plug-In . SVG Version: 6.00 Build 0)  -->
<!DOCTYPE svg PUBLIC "-//W3C//DTD SVG 1.1//EN" "http://www.w3.org/Graphics/SVG/1.1/DTD/svg11.dtd">
<svg version="1.1" id="Layer_1" xmlns="http://www.w3.org/2000/svg" xmlns:xlink="http://www.w3.org/1999/xlink" x="0px" y="0px"
	 width="323.15px" height="323.15px" viewBox="0 0 323.15 323.15" enable-background="new 0 0 323.15 323.15" xml:space="preserve">
<rect x="51.026" y="51.024" fill="#EAEAFF" stroke="#231F20" stroke-width="3" stroke-miterlimit="10" width="226.77" height="226.77"/>
<g>
	<path fill="#EC1C24" d="M26.99,268.642v-0.328c0-0.242,0.047-0.414,0.141-0.516s0.211-0.152,0.352-0.152
		c0.148,0,0.27,0.051,0.363,0.152s0.141,0.273,0.141,0.516v2.227c-0.008,0.242-0.057,0.414-0.146,0.516s-0.209,0.152-0.357,0.152
		c-0.133,0-0.244-0.045-0.334-0.135s-0.143-0.24-0.158-0.451c-0.047-0.555-0.412-1.082-1.096-1.582s-1.604-0.75-2.76-0.75
		c-1.461,0-2.57,0.457-3.328,1.371s-1.137,1.961-1.137,3.141c0,1.273,0.418,2.324,1.254,3.152s1.918,1.242,3.246,1.242
		c0.766,0,1.545-0.141,2.338-0.422s1.51-0.734,2.15-1.359c0.164-0.156,0.309-0.234,0.434-0.234c0.133,0,0.244,0.045,0.334,0.135
		s0.135,0.201,0.135,0.334c0,0.336-0.395,0.762-1.184,1.277c-1.273,0.836-2.691,1.254-4.254,1.254c-1.586,0-2.889-0.506-3.908-1.518
		s-1.529-2.295-1.529-3.85c0-1.586,0.521-2.902,1.564-3.949s2.357-1.57,3.943-1.57C24.701,267.294,25.966,267.744,26.99,268.642z"/>
	<path fill="#EC1C24" d="M38.552,280.427c0,1-0.358,1.855-1.074,2.563c-0.716,0.709-1.58,1.063-2.59,1.063
		c-1.021,0-1.888-0.355-2.602-1.066c-0.714-0.711-1.07-1.563-1.07-2.559c0-1,0.356-1.855,1.07-2.566
		c0.713-0.711,1.581-1.066,2.602-1.066c1.01,0,1.874,0.355,2.59,1.063C38.194,278.566,38.552,279.423,38.552,280.427z
		 M37.888,280.427c0-0.822-0.293-1.523-0.879-2.102s-1.296-0.867-2.129-0.867c-0.833,0-1.543,0.291-2.129,0.871
		c-0.586,0.582-0.879,1.281-0.879,2.098c0,0.813,0.293,1.512,0.879,2.094c0.586,0.584,1.295,0.875,2.129,0.875
		c0.833,0,1.543-0.289,2.129-0.871C37.595,281.945,37.888,281.246,37.888,280.427z"/>
</g>
<g>
	<path fill="#EC1C24" d="M259.432,30.532v-0.328c0-0.242,0.047-0.414,0.141-0.516s0.211-0.152,0.352-0.152
		c0.148,0,0.27,0.051,0.363,0.152s0.141,0.273,0.141,0.516v2.227c-0.008,0.242-0.057,0.414-0.146,0.516s-0.209,0.152-0.357,0.152
		c-0.133,0-0.244-0.045-0.334-0.135s-0.143-0.24-0.158-0.451c-0.047-0.555-0.412-1.082-1.096-1.582s-1.604-0.75-2.76-0.75
		c-1.461,0-2.57,0.457-3.328,1.371s-1.137,1.961-1.137,3.141c0,1.273,0.418,2.324,1.254,3.152s1.918,1.242,3.246,1.242
		c0.766,0,1.545-0.141,2.338-0.422s1.51-0.734,2.15-1.359c0.164-0.156,0.309-0.234,0.434-0.234c0.133,0,0.244,0.045,0.334,0.135
		s0.135,0.201,0.135,0.334c0,0.336-0.395,0.762-1.184,1.277c-1.273,0.836-2.691,1.254-4.254,1.254c-1.586,0-2.889-0.506-3.908-1.518
		s-1.529-2.295-1.529-3.85c0-1.586,0.521-2.902,1.564-3.949s2.357-1.57,3.943-1.57C257.143,29.185,258.408,29.634,259.432,30.532z"
		/>
	<path fill="#EC1C24" d="M267.674,38.919v6.109h2.578c0.16,0,0.275,0.03,0.344,0.09c0.066,0.06,0.102,0.14,0.102,0.238
		c0,0.094-0.035,0.172-0.102,0.234c-0.068,0.063-0.184,0.094-0.344,0.094h-5.813c-0.156,0-0.27-0.031-0.336-0.094
		c-0.068-0.063-0.102-0.141-0.102-0.234c0-0.099,0.033-0.179,0.102-0.238c0.066-0.06,0.18-0.09,0.336-0.09h2.578v-5.445h-1.914
		c-0.156,0-0.27-0.031-0.34-0.094s-0.105-0.141-0.105-0.234c0-0.099,0.033-0.18,0.102-0.242c0.066-0.063,0.182-0.094,0.344-0.094
		H267.674z M267.65,35.552v1.695h-0.969v-1.695H267.65z"/>
</g>
<g>
	<path fill="#F6921E" d="M105.504,30.181c0-0.227,0.047-0.391,0.141-0.492s0.211-0.152,0.352-0.152c0.148,0,0.27,0.051,0.363,0.152
		s0.141,0.273,0.141,0.516v1.688c0,0.234-0.047,0.402-0.141,0.504s-0.215,0.152-0.363,0.152c-0.133,0-0.244-0.043-0.334-0.129
		s-0.143-0.227-0.158-0.422c-0.047-0.469-0.289-0.855-0.727-1.16c-0.641-0.438-1.488-0.656-2.543-0.656
		c-1.102,0-1.957,0.223-2.566,0.668c-0.461,0.336-0.691,0.711-0.691,1.125c0,0.469,0.273,0.859,0.82,1.172
		c0.375,0.219,1.086,0.387,2.133,0.504c1.367,0.148,2.316,0.316,2.848,0.504c0.758,0.273,1.322,0.652,1.693,1.137
		s0.557,1.008,0.557,1.57c0,0.836-0.402,1.58-1.207,2.232s-1.984,0.979-3.539,0.979s-2.828-0.395-3.82-1.184
		c0,0.266-0.016,0.438-0.047,0.516s-0.088,0.145-0.17,0.199s-0.174,0.082-0.275,0.082c-0.141,0-0.258-0.051-0.352-0.152
		s-0.141-0.27-0.141-0.504v-2.027c0-0.234,0.045-0.402,0.135-0.504s0.209-0.152,0.357-0.152c0.141,0,0.26,0.049,0.357,0.146
		s0.146,0.229,0.146,0.393c0,0.359,0.09,0.66,0.27,0.902c0.273,0.375,0.709,0.686,1.307,0.932s1.33,0.369,2.197,0.369
		c1.281,0,2.234-0.238,2.859-0.715s0.938-0.98,0.938-1.512c0-0.609-0.316-1.098-0.949-1.465c-0.641-0.367-1.572-0.613-2.795-0.738
		s-2.1-0.289-2.631-0.492s-0.945-0.508-1.242-0.914s-0.445-0.844-0.445-1.313c0-0.844,0.414-1.514,1.242-2.01
		s1.816-0.744,2.965-0.744C103.547,29.185,104.653,29.517,105.504,30.181z"/>
	<path fill="#F6921E" d="M114.602,38.919v6.109h2.578c0.161,0,0.276,0.03,0.344,0.09s0.102,0.14,0.102,0.238
		c0,0.094-0.034,0.172-0.102,0.234s-0.183,0.094-0.344,0.094h-5.813c-0.156,0-0.269-0.031-0.336-0.094s-0.102-0.141-0.102-0.234
		c0-0.099,0.034-0.179,0.102-0.238s0.18-0.09,0.336-0.09h2.578v-5.445h-1.914c-0.156,0-0.27-0.031-0.34-0.094
		s-0.105-0.141-0.105-0.234c0-0.099,0.034-0.18,0.102-0.242s0.183-0.094,0.344-0.094H114.602z M114.579,35.552v1.695h-0.969v-1.695
		H114.579z"/>
</g>
<g>
	<path fill="#00ADEE" d="M38.218,85.039l-4.57-9.152h-0.293c-0.234,0-0.402-0.047-0.504-0.141s-0.152-0.211-0.152-0.352
		c0-0.102,0.025-0.193,0.076-0.275s0.117-0.141,0.199-0.176s0.209-0.053,0.381-0.053h2.695c0.234,0,0.402,0.047,0.504,0.141
		s0.152,0.215,0.152,0.363c0,0.141-0.051,0.258-0.152,0.352s-0.27,0.141-0.504,0.141h-1.324l4.02,8.074l3.961-8.074h-1.324
		c-0.234,0-0.402-0.047-0.504-0.141s-0.152-0.215-0.152-0.363c0-0.141,0.051-0.258,0.152-0.352s0.27-0.141,0.504-0.141h2.684
		c0.242,0,0.414,0.047,0.516,0.141s0.152,0.215,0.152,0.363c0,0.102-0.031,0.195-0.094,0.281s-0.133,0.143-0.211,0.17
		s-0.297,0.041-0.656,0.041l-6.234,12.691h1.535c0.234,0,0.402,0.045,0.504,0.135s0.152,0.209,0.152,0.357
		c0,0.141-0.051,0.258-0.152,0.352s-0.27,0.141-0.504,0.141h-5.672c-0.234,0-0.402-0.045-0.504-0.135s-0.152-0.209-0.152-0.357
		s0.051-0.268,0.152-0.357s0.27-0.135,0.504-0.135h3.082L38.218,85.039z"/>
</g>
<line fill="none" stroke="#EC1C24" stroke-miterlimit="10" x1="255.118" y1="73.699" x2="277.794" y2="51.024"/>
<line fill="none" stroke="#EC1C24" stroke-miterlimit="10" x1="51.024" y1="277.793" x2="73.701" y2="255.118"/>
<line fill="none" stroke="#F6921E" stroke-width="1.2247" stroke-miterlimit="10" x1="124.724" y1="51.023" x2="124.724" y2="17.008"/>
<line fill="none" stroke="#00ADEE" stroke-width="1.2248" stroke-miterlimit="10" x1="175.748" y1="51.024" x2="175.748" y2="17.008"/>
<line fill="none" stroke="#EC1C24" stroke-miterlimit="10" x1="277.797" y1="51.225" x2="300.676" y2="28.346"/>
<g>
	<g>
		<line fill="none" stroke="#EC1C24" stroke-miterlimit="10" x1="29.497" y1="299.322" x2="51.021" y2="277.798"/>
		<g>
			<polygon fill="#EC1C24" points="37.35,300.146 37.296,298.645 29.905,298.916 30.175,291.524 28.675,291.47 28.348,300.473 			
				"/>
		</g>
	</g>
</g>
<line fill="none" stroke="#00ADEE" stroke-miterlimit="10" x1="51.024" y1="96.378" x2="28.346" y2="96.378"/>
<g>
	<path fill="#F6921E" d="M145.252,285.299c0-0.227,0.047-0.391,0.141-0.492s0.211-0.152,0.352-0.152c0.148,0,0.27,0.051,0.363,0.152
		s0.141,0.273,0.141,0.516v1.688c0,0.234-0.047,0.402-0.141,0.504s-0.215,0.152-0.363,0.152c-0.133,0-0.244-0.043-0.334-0.129
		s-0.143-0.227-0.158-0.422c-0.047-0.469-0.289-0.855-0.727-1.16c-0.641-0.438-1.488-0.656-2.543-0.656
		c-1.102,0-1.957,0.223-2.566,0.668c-0.461,0.336-0.691,0.711-0.691,1.125c0,0.469,0.273,0.859,0.82,1.172
		c0.375,0.219,1.086,0.387,2.133,0.504c1.367,0.148,2.316,0.316,2.848,0.504c0.758,0.273,1.322,0.652,1.693,1.137
		s0.557,1.008,0.557,1.57c0,0.836-0.402,1.58-1.207,2.232s-1.984,0.979-3.539,0.979s-2.828-0.395-3.82-1.184
		c0,0.266-0.016,0.438-0.047,0.516s-0.088,0.145-0.17,0.199s-0.174,0.082-0.275,0.082c-0.141,0-0.258-0.051-0.352-0.152
		s-0.141-0.27-0.141-0.504v-2.027c0-0.234,0.045-0.402,0.135-0.504s0.209-0.152,0.357-0.152c0.141,0,0.26,0.049,0.357,0.146
		s0.146,0.229,0.146,0.393c0,0.359,0.09,0.66,0.27,0.902c0.273,0.375,0.709,0.686,1.307,0.932s1.33,0.369,2.197,0.369
		c1.281,0,2.234-0.238,2.859-0.715s0.938-0.98,0.938-1.512c0-0.609-0.316-1.098-0.949-1.465c-0.641-0.367-1.572-0.613-2.795-0.738
		s-2.1-0.289-2.631-0.492s-0.945-0.508-1.242-0.914s-0.445-0.844-0.445-1.313c0-0.844,0.414-1.514,1.242-2.01
		s1.816-0.744,2.965-0.744C143.295,284.303,144.401,284.635,145.252,285.299z"/>
	<path fill="#F6921E" d="M158.729,294.015c0,1.125-0.402,2.086-1.209,2.883c-0.805,0.797-1.775,1.195-2.913,1.195
		c-1.148,0-2.124-0.399-2.927-1.2c-0.803-0.799-1.204-1.759-1.204-2.878c0-1.125,0.401-2.087,1.204-2.888
		c0.803-0.799,1.778-1.199,2.927-1.199c1.137,0,2.108,0.398,2.913,1.195C158.326,291.92,158.729,292.884,158.729,294.015z
		 M157.982,294.015c0-0.926-0.33-1.714-0.99-2.364c-0.658-0.65-1.457-0.976-2.394-0.976s-1.736,0.327-2.395,0.979
		c-0.66,0.654-0.989,1.44-0.989,2.36c0,0.914,0.329,1.699,0.989,2.355c0.658,0.656,1.457,0.984,2.395,0.984s1.736-0.326,2.394-0.979
		C157.652,295.722,157.982,294.935,157.982,294.015z"/>
</g>
<g>
	<g>
		<line fill="none" stroke="#F6921E" stroke-miterlimit="10" x1="124.725" y1="298.847" x2="124.725" y2="255.119"/>
		<g>
			<polygon fill="#F6921E" points="130.859,293.877 129.761,292.854 124.726,298.272 119.69,292.854 118.591,293.877 
				124.726,300.474 			"/>
		</g>
	</g>
</g>
<line fill="none" stroke="#EC1C24" stroke-miterlimit="10" x1="255.118" y1="215.433" x2="255.118" y2="73.701"/>
<line fill="none" stroke="#00ADEE" stroke-miterlimit="10" x1="153.071" y1="96.378" x2="51.023" y2="96.378"/>
<line fill="none" stroke="#EC1C24" stroke-miterlimit="10" x1="96.379" y1="215.433" x2="73.702" y2="215.433"/>
<line fill="none" stroke="#EC1C24" stroke-miterlimit="10" x1="255.119" y1="215.435" x2="198.426" y2="215.435"/>
<line fill="none" stroke="#EC1C24" stroke-miterlimit="10" x1="73.701" y1="255.119" x2="73.701" y2="215.433"/>
<line fill="none" stroke="#F6921E" stroke-miterlimit="10" x1="124.724" y1="164.408" x2="124.724" y2="51.024"/>
<g>
	<path fill="#00ADEE" d="M165.083,34.376l4.512,4.324c0.297,0,0.484,0.014,0.563,0.041s0.146,0.084,0.205,0.17
		s0.088,0.18,0.088,0.281c0,0.141-0.051,0.258-0.152,0.352s-0.273,0.141-0.516,0.141h-3.164c-0.242,0-0.414-0.047-0.516-0.141
		s-0.152-0.211-0.152-0.352c0-0.148,0.051-0.268,0.152-0.357s0.273-0.135,0.516-0.135h1.629l-3.832-3.668l-3.809,3.668h1.641
		c0.234,0,0.402,0.045,0.504,0.135s0.152,0.209,0.152,0.357c0,0.141-0.051,0.258-0.152,0.352s-0.27,0.141-0.504,0.141h-3.199
		c-0.234,0-0.402-0.047-0.504-0.141s-0.152-0.211-0.152-0.352c0-0.102,0.029-0.195,0.088-0.281s0.125-0.143,0.199-0.17
		s0.26-0.041,0.557-0.041l4.512-4.324l-4.008-3.844c-0.281,0-0.459-0.016-0.533-0.047s-0.141-0.09-0.199-0.176
		s-0.088-0.18-0.088-0.281c0-0.141,0.051-0.258,0.152-0.352s0.273-0.141,0.516-0.141h2.684c0.242,0,0.412,0.047,0.51,0.141
		s0.146,0.215,0.146,0.363c0,0.141-0.049,0.258-0.146,0.352s-0.268,0.141-0.51,0.141h-1.172l3.316,3.199l3.34-3.199h-1.172
		c-0.234,0-0.404-0.047-0.51-0.141s-0.158-0.215-0.158-0.363c0-0.141,0.051-0.258,0.152-0.352s0.273-0.141,0.516-0.141h2.684
		c0.234,0,0.402,0.047,0.504,0.141s0.152,0.215,0.152,0.363c0,0.094-0.029,0.184-0.088,0.27s-0.125,0.145-0.199,0.176
		s-0.252,0.047-0.533,0.047L165.083,34.376z"/>
</g>
<g>
	
		<rect x="96.378" y="164.412" fill="#FFFFFF" stroke="#231F20" stroke-width="2" stroke-miterlimit="10" width="102.046" height="90.707"/>
	<g>
		<path fill="#231F20" d="M112.026,212.583v-0.328c0-0.242,0.047-0.414,0.141-0.516s0.211-0.152,0.352-0.152
			c0.148,0,0.27,0.051,0.363,0.152s0.141,0.273,0.141,0.516v2.227c-0.008,0.242-0.057,0.414-0.146,0.516s-0.209,0.152-0.357,0.152
			c-0.133,0-0.244-0.045-0.334-0.135s-0.143-0.24-0.158-0.451c-0.047-0.555-0.412-1.082-1.096-1.582s-1.604-0.75-2.76-0.75
			c-1.461,0-2.57,0.457-3.328,1.371s-1.137,1.961-1.137,3.141c0,1.273,0.418,2.324,1.254,3.152s1.918,1.242,3.246,1.242
			c0.766,0,1.545-0.141,2.338-0.422s1.51-0.734,2.15-1.359c0.164-0.156,0.309-0.234,0.434-0.234c0.133,0,0.244,0.045,0.334,0.135
			s0.135,0.201,0.135,0.334c0,0.336-0.395,0.762-1.184,1.277c-1.273,0.836-2.691,1.254-4.254,1.254
			c-1.586,0-2.889-0.506-3.908-1.518s-1.529-2.295-1.529-3.85c0-1.586,0.521-2.902,1.564-3.949s2.357-1.57,3.943-1.57
			C109.737,211.235,111.003,211.684,112.026,212.583z"/>
		<path fill="#231F20" d="M123.589,224.368c0,1-0.358,1.854-1.074,2.563c-0.716,0.708-1.58,1.063-2.59,1.063
			c-1.021,0-1.888-0.355-2.602-1.066c-0.714-0.711-1.07-1.563-1.07-2.559c0-1,0.356-1.855,1.07-2.566
			c0.713-0.711,1.581-1.066,2.602-1.066c1.01,0,1.874,0.354,2.59,1.063C123.23,222.505,123.589,223.363,123.589,224.368z
			 M122.925,224.368c0-0.823-0.293-1.523-0.879-2.102s-1.296-0.867-2.129-0.867c-0.833,0-1.543,0.29-2.129,0.871
			s-0.879,1.28-0.879,2.098c0,0.813,0.293,1.511,0.879,2.094s1.295,0.875,2.129,0.875c0.833,0,1.543-0.29,2.129-0.871
			S122.925,225.185,122.925,224.368z"/>
	</g>
	<g>
		<path fill="#231F20" d="M180.061,211.95v-0.328c0-0.242,0.047-0.414,0.141-0.516s0.211-0.152,0.352-0.152
			c0.148,0,0.27,0.051,0.363,0.152s0.141,0.273,0.141,0.516v2.227c-0.008,0.242-0.057,0.414-0.146,0.516s-0.209,0.152-0.357,0.152
			c-0.133,0-0.244-0.045-0.334-0.135s-0.143-0.24-0.158-0.451c-0.047-0.555-0.412-1.082-1.096-1.582s-1.604-0.75-2.76-0.75
			c-1.461,0-2.57,0.457-3.328,1.371s-1.137,1.961-1.137,3.141c0,1.273,0.418,2.324,1.254,3.152s1.918,1.242,3.246,1.242
			c0.766,0,1.545-0.141,2.338-0.422s1.51-0.734,2.15-1.359c0.164-0.156,0.309-0.234,0.434-0.234c0.133,0,0.244,0.045,0.334,0.135
			s0.135,0.201,0.135,0.334c0,0.336-0.395,0.762-1.184,1.277c-1.273,0.836-2.691,1.254-4.254,1.254
			c-1.586,0-2.889-0.506-3.908-1.518s-1.529-2.295-1.529-3.85c0-1.586,0.521-2.902,1.564-3.949s2.357-1.57,3.943-1.57
			C177.771,210.602,179.037,211.051,180.061,211.95z"/>
		<path fill="#231F20" d="M188.303,220.336v6.109h2.578c0.16,0,0.275,0.03,0.344,0.09c0.066,0.06,0.102,0.14,0.102,0.238
			c0,0.094-0.035,0.172-0.102,0.234c-0.068,0.063-0.184,0.094-0.344,0.094h-5.813c-0.156,0-0.27-0.031-0.336-0.094
			c-0.068-0.063-0.102-0.141-0.102-0.234c0-0.099,0.033-0.179,0.102-0.238c0.066-0.06,0.18-0.09,0.336-0.09h2.578V221h-1.914
			c-0.156,0-0.27-0.031-0.34-0.094s-0.105-0.141-0.105-0.234c0-0.099,0.033-0.18,0.102-0.242c0.066-0.063,0.182-0.094,0.344-0.094
			H188.303z M188.279,216.969v1.695h-0.969v-1.695H188.279z"/>
	</g>
	<g>
		<path fill="#231F20" d="M160.697,172.382v6.527c1.188-1.547,2.621-2.32,4.301-2.32c1.438,0,2.668,0.521,3.691,1.564
			s1.535,2.322,1.535,3.838c0,1.531-0.518,2.828-1.553,3.891s-2.26,1.594-3.674,1.594c-1.719,0-3.152-0.773-4.301-2.32v1.934h-2.309
			c-0.234,0-0.402-0.047-0.504-0.141s-0.152-0.211-0.152-0.352c0-0.148,0.051-0.268,0.152-0.357s0.27-0.135,0.504-0.135h1.324
			v-12.727h-1.324c-0.234,0-0.402-0.047-0.504-0.141s-0.152-0.215-0.152-0.363c0-0.141,0.051-0.258,0.152-0.352
			s0.27-0.141,0.504-0.141H160.697z M169.24,182.039c0-1.242-0.426-2.295-1.277-3.158s-1.848-1.295-2.988-1.295
			s-2.137,0.432-2.988,1.295s-1.277,1.916-1.277,3.158s0.426,2.295,1.277,3.158s1.848,1.295,2.988,1.295s2.137-0.432,2.988-1.295
			S169.24,183.281,169.24,182.039z"/>
	</g>
	<g>
		<path fill="#231F20" d="M127.552,187.089v-1.418c-1.43,1.203-2.957,1.805-4.582,1.805c-1.18,0-2.102-0.299-2.766-0.896
			s-0.996-1.33-0.996-2.197c0-0.953,0.438-1.785,1.313-2.496s2.152-1.066,3.832-1.066c0.453,0,0.945,0.029,1.477,0.088
			s1.105,0.15,1.723,0.275v-1.594c0-0.539-0.25-1.008-0.75-1.406s-1.25-0.598-2.25-0.598c-0.766,0-1.84,0.223-3.223,0.668
			c-0.25,0.078-0.41,0.117-0.48,0.117c-0.125,0-0.232-0.047-0.322-0.141s-0.135-0.211-0.135-0.352c0-0.133,0.039-0.238,0.117-0.316
			c0.109-0.117,0.551-0.277,1.324-0.48c1.219-0.328,2.141-0.492,2.766-0.492c1.242,0,2.211,0.307,2.906,0.92s1.043,1.307,1.043,2.08
			v6.516h1.313c0.242,0,0.414,0.045,0.516,0.135s0.152,0.209,0.152,0.357c0,0.141-0.051,0.258-0.152,0.352s-0.273,0.141-0.516,0.141
			H127.552z M127.552,182.191c-0.461-0.133-0.949-0.23-1.465-0.293s-1.059-0.094-1.629-0.094c-1.43,0-2.547,0.309-3.352,0.926
			c-0.609,0.461-0.914,1.012-0.914,1.652c0,0.594,0.232,1.094,0.697,1.5s1.143,0.609,2.033,0.609c0.852,0,1.643-0.17,2.373-0.51
			s1.482-0.881,2.256-1.623V182.191z"/>
	</g>
	<g>
		<path fill="#231F20" d="M127.977,239.945c0-0.227,0.047-0.391,0.141-0.492s0.211-0.152,0.352-0.152
			c0.148,0,0.27,0.051,0.363,0.152s0.141,0.273,0.141,0.516v1.688c0,0.234-0.047,0.402-0.141,0.504s-0.215,0.152-0.363,0.152
			c-0.133,0-0.244-0.043-0.334-0.129s-0.143-0.227-0.158-0.422c-0.047-0.469-0.289-0.855-0.727-1.16
			c-0.641-0.438-1.488-0.656-2.543-0.656c-1.102,0-1.957,0.223-2.566,0.668c-0.461,0.336-0.691,0.711-0.691,1.125
			c0,0.469,0.273,0.859,0.82,1.172c0.375,0.219,1.086,0.387,2.133,0.504c1.367,0.148,2.316,0.316,2.848,0.504
			c0.758,0.273,1.322,0.652,1.693,1.137s0.557,1.008,0.557,1.57c0,0.836-0.402,1.58-1.207,2.232s-1.984,0.979-3.539,0.979
			s-2.828-0.395-3.82-1.184c0,0.266-0.016,0.438-0.047,0.516s-0.088,0.145-0.17,0.199s-0.174,0.082-0.275,0.082
			c-0.141,0-0.258-0.051-0.352-0.152s-0.141-0.27-0.141-0.504v-2.027c0-0.234,0.045-0.402,0.135-0.504s0.209-0.152,0.357-0.152
			c0.141,0,0.26,0.049,0.357,0.146s0.146,0.229,0.146,0.393c0,0.359,0.09,0.66,0.27,0.902c0.273,0.375,0.709,0.686,1.307,0.932
			s1.33,0.369,2.197,0.369c1.281,0,2.234-0.238,2.859-0.715s0.938-0.98,0.938-1.512c0-0.609-0.316-1.098-0.949-1.465
			c-0.641-0.367-1.572-0.613-2.795-0.738s-2.1-0.289-2.631-0.492s-0.945-0.508-1.242-0.914s-0.445-0.844-0.445-1.313
			c0-0.844,0.414-1.514,1.242-2.01s1.816-0.744,2.965-0.744C126.02,238.949,127.125,239.281,127.977,239.945z"/>
	</g>
</g>
<line fill="none" stroke="#231F20" stroke-miterlimit="10" x1="164.412" y1="163.777" x2="164.412" y2="147.085"/>
<line fill="none" stroke="#00ADEE" stroke-miterlimit="10" x1="175.747" y1="113.386" x2="175.747" y2="51.023"/>
<line fill="none" stroke="#00ADEE" stroke-miterlimit="10" x1="153.069" y1="113.385" x2="153.069" y2="96.378"/>
<g opacity="0.5">
	<path opacity="0.7" fill="#231F20" d="M139.225,205.9v8.508h4.504c0.244,0,0.419,0.047,0.525,0.141
		c0.105,0.094,0.158,0.218,0.158,0.372c0,0.146-0.053,0.269-0.158,0.366c-0.106,0.098-0.281,0.146-0.525,0.146h-8.02
		c-0.244,0-0.42-0.049-0.525-0.146s-0.158-0.22-0.158-0.366c0-0.154,0.053-0.278,0.158-0.372s0.281-0.141,0.525-0.141h2.478V205.9
		h-2.222c-0.244,0-0.419-0.049-0.525-0.146c-0.105-0.098-0.158-0.225-0.158-0.379c0-0.146,0.053-0.269,0.158-0.366
		c0.106-0.098,0.281-0.146,0.525-0.146h2.222v-1.55c0-0.863,0.35-1.611,1.05-2.246s1.628-0.953,2.783-0.953
		c0.969,0,2.002,0.09,3.101,0.27c0.415,0.064,0.665,0.143,0.751,0.231c0.085,0.09,0.128,0.208,0.128,0.354s-0.049,0.266-0.146,0.359
		s-0.228,0.141-0.391,0.141c-0.065,0-0.175-0.012-0.329-0.037c-1.229-0.187-2.267-0.28-3.113-0.28c-0.896,0-1.585,0.22-2.069,0.659
		s-0.726,0.939-0.726,1.502v1.55h4.797c0.244,0,0.419,0.049,0.525,0.146c0.105,0.098,0.158,0.224,0.158,0.378
		c0,0.146-0.053,0.27-0.158,0.367c-0.106,0.098-0.281,0.146-0.525,0.146H139.225z"/>
	<path opacity="0.7" fill="#231F20" d="M157.852,215.433v-1.477c-1.489,1.253-3.08,1.879-4.773,1.879
		c-1.229,0-2.188-0.311-2.881-0.934c-0.691-0.622-1.037-1.385-1.037-2.289c0-0.992,0.456-1.859,1.367-2.6s2.242-1.111,3.992-1.111
		c0.472,0,0.984,0.031,1.537,0.092c0.554,0.062,1.152,0.157,1.795,0.287v-1.66c0-0.562-0.261-1.05-0.781-1.465
		s-1.302-0.623-2.344-0.623c-0.798,0-1.916,0.232-3.357,0.696c-0.26,0.081-0.427,0.122-0.5,0.122c-0.13,0-0.242-0.049-0.336-0.146
		s-0.141-0.22-0.141-0.366c0-0.138,0.041-0.248,0.123-0.329c0.113-0.123,0.573-0.289,1.379-0.501
		c1.27-0.342,2.229-0.513,2.881-0.513c1.294,0,2.303,0.319,3.027,0.958c0.725,0.64,1.086,1.361,1.086,2.167v6.787h1.367
		c0.253,0,0.432,0.047,0.537,0.141c0.106,0.094,0.159,0.218,0.159,0.372c0,0.146-0.053,0.269-0.159,0.366
		c-0.105,0.098-0.284,0.146-0.537,0.146H157.852z M157.852,210.331c-0.48-0.138-0.988-0.239-1.525-0.306
		c-0.537-0.064-1.104-0.098-1.697-0.098c-1.489,0-2.653,0.322-3.491,0.965c-0.635,0.48-0.952,1.055-0.952,1.721
		c0,0.619,0.242,1.141,0.727,1.563c0.483,0.424,1.189,0.635,2.117,0.635c0.888,0,1.711-0.177,2.473-0.53
		c0.761-0.354,1.544-0.917,2.35-1.69V210.331z"/>
</g>
<g opacity="0.5">
	<path opacity="0.7" fill="#231F20" d="M239.988,289.228v1.66c1.394-1.497,2.793-2.246,4.199-2.246c0.847,0,1.589,0.225,2.227,0.674
		s1.172,1.13,1.602,2.041c0.729-0.911,1.468-1.592,2.217-2.041s1.501-0.674,2.256-0.674c1.185,0,2.129,0.385,2.832,1.152
		c0.925,0.99,1.387,2.07,1.387,3.242v11.465h1.387c0.391,0,0.671,0.075,0.84,0.225c0.169,0.15,0.254,0.349,0.254,0.596
		c0,0.234-0.085,0.43-0.254,0.586s-0.449,0.234-0.84,0.234h-3.027v-12.949c0-0.833-0.254-1.523-0.762-2.07s-1.094-0.82-1.758-0.82
		c-0.599,0-1.23,0.225-1.895,0.674s-1.419,1.332-2.266,2.646v10.879h1.367c0.391,0,0.671,0.075,0.84,0.225
		c0.169,0.15,0.254,0.349,0.254,0.596c0,0.234-0.085,0.43-0.254,0.586s-0.449,0.234-0.84,0.234h-3.027V293.31
		c0-0.872-0.257-1.592-0.771-2.158s-1.091-0.85-1.729-0.85c-0.586,0-1.165,0.189-1.738,0.566c-0.794,0.534-1.628,1.452-2.5,2.754
		v10.879h1.387c0.391,0,0.671,0.075,0.84,0.225c0.169,0.15,0.254,0.349,0.254,0.596c0,0.234-0.085,0.43-0.254,0.586
		s-0.449,0.234-0.84,0.234h-4.414c-0.391,0-0.671-0.078-0.84-0.234c-0.17-0.156-0.254-0.352-0.254-0.586
		c0-0.247,0.084-0.445,0.254-0.596c0.169-0.149,0.449-0.225,0.84-0.225h1.387v-13.613h-1.387c-0.391,0-0.671-0.078-0.84-0.234
		c-0.17-0.156-0.254-0.357-0.254-0.605c0-0.234,0.084-0.43,0.254-0.586c0.169-0.156,0.449-0.234,0.84-0.234H239.988z"/>
	<path opacity="0.7" fill="#231F20" d="M276.18,306.142v-2.363c-2.383,2.006-4.929,3.008-7.637,3.008
		c-1.966,0-3.503-0.498-4.609-1.494s-1.66-2.217-1.66-3.662c0-1.588,0.729-2.975,2.188-4.16c1.458-1.185,3.587-1.777,6.387-1.777
		c0.755,0,1.575,0.049,2.461,0.146s1.843,0.251,2.871,0.459v-2.656c0-0.898-0.417-1.68-1.25-2.344s-2.083-0.996-3.75-0.996
		c-1.276,0-3.066,0.371-5.371,1.113c-0.417,0.131-0.684,0.195-0.801,0.195c-0.208,0-0.388-0.078-0.537-0.234
		s-0.225-0.352-0.225-0.586c0-0.221,0.065-0.396,0.195-0.527c0.183-0.195,0.918-0.462,2.207-0.801
		c2.031-0.547,3.567-0.82,4.609-0.82c2.07,0,3.685,0.512,4.844,1.533c1.159,1.022,1.738,2.178,1.738,3.467v10.859h2.188
		c0.403,0,0.69,0.075,0.859,0.225c0.169,0.15,0.254,0.349,0.254,0.596c0,0.234-0.085,0.43-0.254,0.586s-0.456,0.234-0.859,0.234
		H276.18z M276.18,297.978c-0.769-0.221-1.582-0.384-2.441-0.488c-0.859-0.104-1.765-0.156-2.715-0.156
		c-2.383,0-4.245,0.515-5.586,1.543c-1.016,0.769-1.523,1.687-1.523,2.754c0,0.99,0.388,1.823,1.162,2.5
		c0.774,0.678,1.904,1.016,3.389,1.016c1.419,0,2.737-0.283,3.955-0.85s2.471-1.468,3.76-2.705V297.978z"/>
</g>
<path fill="#FFFFFF" stroke="#2D2D2D" stroke-width="2" d="M147.402,131.605v-18.219h18.219h15.797v18.219l0,0
	c0,8.724-8.283,15.797-17.008,15.797C155.688,147.402,147.402,140.329,147.402,131.605z"/>
</svg>
