<?xml version="1.0" encoding="utf-8"?>
<!-- Generator: Adobe Illustrator 15.0.0, SVG Export Plug-In . SVG Version: 6.00 Build 0)  -->
<!DOCTYPE svg PUBLIC "-//W3C//DTD SVG 1.1//EN" "http://www.w3.org/Graphics/SVG/1.1/DTD/svg11.dtd">
<svg version="1.1" id="Layer_1" xmlns="http://www.w3.org/2000/svg" xmlns:xlink="http://www.w3.org/1999/xlink" x="0px" y="0px"
	 width="374.174px" height="147.402px" viewBox="0 0 374.174 147.402" enable-background="new 0 0 374.174 147.402"
	 xml:space="preserve">
<rect x="39.685" y="45.354" fill="#EAEAFF" stroke="#231F20" stroke-width="2" stroke-miterlimit="10" width="56.693" height="56.693"/>
<g>
	<path fill="#231F20" d="M63.52,72.719v3.647h2.139c0.361,0,0.619,0.069,0.772,0.209c0.154,0.139,0.231,0.321,0.231,0.545
		c0,0.22-0.077,0.399-0.231,0.539c-0.153,0.139-0.411,0.208-0.772,0.208h-4.534c-0.361,0-0.619-0.07-0.773-0.208
		c-0.153-0.14-0.23-0.321-0.23-0.546c0-0.22,0.077-0.399,0.23-0.538c0.154-0.14,0.412-0.209,0.773-0.209h0.894v-3.647h-0.718
		c-0.361,0-0.619-0.069-0.773-0.209c-0.153-0.139-0.23-0.321-0.23-0.545c0-0.22,0.077-0.399,0.23-0.539
		c0.154-0.139,0.412-0.208,0.773-0.208h0.718v-0.571c0-0.654,0.246-1.198,0.736-1.629c0.491-0.433,1.203-0.648,2.135-0.648
		c0.415,0,0.895,0.038,1.439,0.113c0.544,0.076,0.894,0.182,1.048,0.319c0.153,0.137,0.23,0.313,0.23,0.527
		c0,0.229-0.068,0.417-0.205,0.56c-0.137,0.145-0.305,0.216-0.505,0.216c-0.093,0-0.232-0.017-0.417-0.051
		c-0.62-0.122-1.169-0.183-1.648-0.183c-0.498,0-0.841,0.075-1.029,0.223c-0.188,0.149-0.282,0.333-0.282,0.553v0.571h2.314
		c0.361,0,0.619,0.07,0.772,0.208c0.154,0.14,0.231,0.321,0.231,0.546c0,0.22-0.077,0.399-0.231,0.538
		c-0.153,0.14-0.411,0.209-0.772,0.209H63.52z"/>
	<path fill="#231F20" d="M73.884,77.868v-0.352c-0.376,0.2-0.791,0.351-1.245,0.451c-0.454,0.1-0.867,0.15-1.238,0.15
		c-0.806,0-1.46-0.214-1.963-0.641c-0.503-0.427-0.754-0.899-0.754-1.417c0-0.63,0.321-1.214,0.963-1.754
		c0.642-0.54,1.529-0.81,2.662-0.81c0.454,0,0.979,0.049,1.575,0.146v-0.359c0-0.225-0.097-0.408-0.29-0.549
		s-0.56-0.212-1.102-0.212c-0.444,0-1.021,0.088-1.729,0.264c-0.264,0.063-0.469,0.095-0.615,0.095c-0.2,0-0.37-0.072-0.509-0.216
		c-0.139-0.144-0.208-0.329-0.208-0.553c0-0.127,0.024-0.237,0.073-0.33s0.117-0.167,0.205-0.224
		c0.088-0.056,0.271-0.123,0.549-0.201c0.371-0.103,0.75-0.184,1.135-0.245s0.735-0.092,1.047-0.092
		c0.933,0,1.656,0.201,2.172,0.604c0.515,0.402,0.772,0.953,0.772,1.651v3.091h0.256c0.361,0,0.619,0.069,0.773,0.209
		c0.153,0.139,0.23,0.321,0.23,0.545c0,0.22-0.077,0.399-0.23,0.539c-0.154,0.139-0.412,0.208-0.773,0.208H73.884z M73.884,75.18
		c-0.601-0.117-1.155-0.176-1.663-0.176c-0.61,0-1.135,0.149-1.575,0.447c-0.273,0.19-0.41,0.383-0.41,0.579
		c0,0.142,0.066,0.256,0.198,0.344c0.244,0.161,0.579,0.242,1.003,0.242c0.361,0,0.77-0.071,1.227-0.212
		c0.456-0.142,0.863-0.334,1.219-0.579V75.18z"/>
</g>
<rect x="124.724" y="45.354" fill="#EAEAFF" stroke="#231F20" stroke-width="2" stroke-miterlimit="10" width="56.693" height="56.693"/>
<g>
	<path fill="#231F20" d="M148.559,72.719v3.647h2.139c0.361,0,0.619,0.069,0.772,0.209c0.154,0.139,0.231,0.321,0.231,0.545
		c0,0.22-0.077,0.399-0.231,0.539c-0.153,0.139-0.411,0.208-0.772,0.208h-4.534c-0.361,0-0.619-0.07-0.773-0.208
		c-0.153-0.14-0.23-0.321-0.23-0.546c0-0.22,0.077-0.399,0.23-0.538c0.154-0.14,0.412-0.209,0.773-0.209h0.894v-3.647h-0.718
		c-0.361,0-0.619-0.069-0.773-0.209c-0.153-0.139-0.23-0.321-0.23-0.545c0-0.22,0.077-0.399,0.23-0.539
		c0.154-0.139,0.412-0.208,0.773-0.208h0.718v-0.571c0-0.654,0.246-1.198,0.736-1.629c0.491-0.433,1.203-0.648,2.135-0.648
		c0.415,0,0.895,0.038,1.439,0.113c0.544,0.076,0.894,0.182,1.048,0.319c0.153,0.137,0.23,0.313,0.23,0.527
		c0,0.229-0.068,0.417-0.205,0.56c-0.137,0.145-0.305,0.216-0.505,0.216c-0.093,0-0.232-0.017-0.417-0.051
		c-0.62-0.122-1.169-0.183-1.648-0.183c-0.498,0-0.841,0.075-1.029,0.223c-0.188,0.149-0.282,0.333-0.282,0.553v0.571h2.314
		c0.361,0,0.619,0.07,0.772,0.208c0.154,0.14,0.231,0.321,0.231,0.546c0,0.22-0.077,0.399-0.231,0.538
		c-0.153,0.14-0.411,0.209-0.772,0.209H148.559z"/>
	<path fill="#231F20" d="M158.923,77.868v-0.352c-0.376,0.2-0.791,0.351-1.245,0.451c-0.454,0.1-0.867,0.15-1.238,0.15
		c-0.806,0-1.46-0.214-1.963-0.641c-0.503-0.427-0.754-0.899-0.754-1.417c0-0.63,0.321-1.214,0.963-1.754
		c0.642-0.54,1.529-0.81,2.662-0.81c0.454,0,0.979,0.049,1.575,0.146v-0.359c0-0.225-0.097-0.408-0.29-0.549
		s-0.56-0.212-1.102-0.212c-0.444,0-1.021,0.088-1.729,0.264c-0.264,0.063-0.469,0.095-0.615,0.095c-0.2,0-0.37-0.072-0.509-0.216
		c-0.139-0.144-0.208-0.329-0.208-0.553c0-0.127,0.024-0.237,0.073-0.33s0.117-0.167,0.205-0.224
		c0.088-0.056,0.271-0.123,0.549-0.201c0.371-0.103,0.75-0.184,1.135-0.245s0.735-0.092,1.047-0.092
		c0.933,0,1.656,0.201,2.172,0.604c0.515,0.402,0.772,0.953,0.772,1.651v3.091h0.256c0.361,0,0.619,0.069,0.773,0.209
		c0.153,0.139,0.23,0.321,0.23,0.545c0,0.22-0.077,0.399-0.23,0.539c-0.154,0.139-0.412,0.208-0.773,0.208H158.923z M158.923,75.18
		c-0.601-0.117-1.155-0.176-1.663-0.176c-0.61,0-1.135,0.149-1.575,0.447c-0.273,0.19-0.41,0.383-0.41,0.579
		c0,0.142,0.066,0.256,0.198,0.344c0.244,0.161,0.579,0.242,1.003,0.242c0.361,0,0.77-0.071,1.227-0.212
		c0.456-0.142,0.863-0.334,1.219-0.579V75.18z"/>
</g>
<rect x="209.764" y="45.354" fill="#EAEAFF" stroke="#231F20" stroke-width="2" stroke-miterlimit="10" width="56.693" height="56.693"/>
<g>
	<path fill="#231F20" d="M233.599,72.719v3.647h2.139c0.361,0,0.619,0.069,0.772,0.209c0.154,0.139,0.231,0.321,0.231,0.545
		c0,0.22-0.077,0.399-0.231,0.539c-0.153,0.139-0.411,0.208-0.772,0.208h-4.534c-0.361,0-0.619-0.07-0.773-0.208
		c-0.153-0.14-0.23-0.321-0.23-0.546c0-0.22,0.077-0.399,0.23-0.538c0.154-0.14,0.412-0.209,0.773-0.209h0.894v-3.647h-0.718
		c-0.361,0-0.619-0.069-0.773-0.209c-0.153-0.139-0.23-0.321-0.23-0.545c0-0.22,0.077-0.399,0.23-0.539
		c0.154-0.139,0.412-0.208,0.773-0.208h0.718v-0.571c0-0.654,0.246-1.198,0.736-1.629c0.491-0.433,1.203-0.648,2.135-0.648
		c0.415,0,0.895,0.038,1.439,0.113c0.544,0.076,0.894,0.182,1.048,0.319c0.153,0.137,0.23,0.313,0.23,0.527
		c0,0.229-0.068,0.417-0.205,0.56c-0.137,0.145-0.305,0.216-0.505,0.216c-0.093,0-0.232-0.017-0.417-0.051
		c-0.62-0.122-1.169-0.183-1.648-0.183c-0.498,0-0.841,0.075-1.029,0.223c-0.188,0.149-0.282,0.333-0.282,0.553v0.571h2.314
		c0.361,0,0.619,0.07,0.772,0.208c0.154,0.14,0.231,0.321,0.231,0.546c0,0.22-0.077,0.399-0.231,0.538
		c-0.153,0.14-0.411,0.209-0.772,0.209H233.599z"/>
	<path fill="#231F20" d="M243.962,77.868v-0.352c-0.376,0.2-0.791,0.351-1.245,0.451c-0.454,0.1-0.867,0.15-1.238,0.15
		c-0.806,0-1.46-0.214-1.963-0.641c-0.503-0.427-0.754-0.899-0.754-1.417c0-0.63,0.321-1.214,0.963-1.754
		c0.642-0.54,1.529-0.81,2.662-0.81c0.454,0,0.979,0.049,1.575,0.146v-0.359c0-0.225-0.097-0.408-0.29-0.549
		s-0.56-0.212-1.102-0.212c-0.444,0-1.021,0.088-1.729,0.264c-0.264,0.063-0.469,0.095-0.615,0.095c-0.2,0-0.37-0.072-0.509-0.216
		c-0.139-0.144-0.208-0.329-0.208-0.553c0-0.127,0.024-0.237,0.073-0.33s0.117-0.167,0.205-0.224
		c0.088-0.056,0.271-0.123,0.549-0.201c0.371-0.103,0.75-0.184,1.135-0.245s0.735-0.092,1.047-0.092
		c0.933,0,1.656,0.201,2.172,0.604c0.515,0.402,0.772,0.953,0.772,1.651v3.091h0.256c0.361,0,0.619,0.069,0.773,0.209
		c0.153,0.139,0.23,0.321,0.23,0.545c0,0.22-0.077,0.399-0.23,0.539c-0.154,0.139-0.412,0.208-0.773,0.208H243.962z M243.962,75.18
		c-0.601-0.117-1.155-0.176-1.663-0.176c-0.61,0-1.135,0.149-1.575,0.447c-0.273,0.19-0.41,0.383-0.41,0.579
		c0,0.142,0.066,0.256,0.198,0.344c0.244,0.161,0.579,0.242,1.003,0.242c0.361,0,0.77-0.071,1.227-0.212
		c0.456-0.142,0.863-0.334,1.219-0.579V75.18z"/>
</g>
<rect x="294.804" y="45.354" fill="#EAEAFF" stroke="#231F20" stroke-width="2" stroke-miterlimit="10" width="56.693" height="56.693"/>
<g>
	<path fill="#231F20" d="M318.639,72.719v3.647h2.139c0.361,0,0.619,0.069,0.772,0.209c0.154,0.139,0.231,0.321,0.231,0.545
		c0,0.22-0.077,0.399-0.231,0.539c-0.153,0.139-0.411,0.208-0.772,0.208h-4.534c-0.361,0-0.619-0.07-0.773-0.208
		c-0.153-0.14-0.23-0.321-0.23-0.546c0-0.22,0.077-0.399,0.23-0.538c0.154-0.14,0.412-0.209,0.773-0.209h0.894v-3.647h-0.718
		c-0.361,0-0.619-0.069-0.773-0.209c-0.153-0.139-0.23-0.321-0.23-0.545c0-0.22,0.077-0.399,0.23-0.539
		c0.154-0.139,0.412-0.208,0.773-0.208h0.718v-0.571c0-0.654,0.246-1.198,0.736-1.629c0.491-0.433,1.203-0.648,2.135-0.648
		c0.415,0,0.895,0.038,1.439,0.113c0.544,0.076,0.894,0.182,1.048,0.319c0.153,0.137,0.23,0.313,0.23,0.527
		c0,0.229-0.068,0.417-0.205,0.56c-0.137,0.145-0.305,0.216-0.505,0.216c-0.093,0-0.232-0.017-0.417-0.051
		c-0.62-0.122-1.169-0.183-1.648-0.183c-0.498,0-0.841,0.075-1.029,0.223c-0.188,0.149-0.282,0.333-0.282,0.553v0.571h2.314
		c0.361,0,0.619,0.07,0.772,0.208c0.154,0.14,0.231,0.321,0.231,0.546c0,0.22-0.077,0.399-0.231,0.538
		c-0.153,0.14-0.411,0.209-0.772,0.209H318.639z"/>
	<path fill="#231F20" d="M329.002,77.868v-0.352c-0.376,0.2-0.791,0.351-1.245,0.451c-0.454,0.1-0.867,0.15-1.238,0.15
		c-0.806,0-1.46-0.214-1.963-0.641c-0.503-0.427-0.754-0.899-0.754-1.417c0-0.63,0.321-1.214,0.963-1.754
		c0.642-0.54,1.529-0.81,2.662-0.81c0.454,0,0.979,0.049,1.575,0.146v-0.359c0-0.225-0.097-0.408-0.29-0.549
		s-0.56-0.212-1.102-0.212c-0.444,0-1.021,0.088-1.729,0.264c-0.264,0.063-0.469,0.095-0.615,0.095c-0.2,0-0.37-0.072-0.509-0.216
		c-0.139-0.144-0.208-0.329-0.208-0.553c0-0.127,0.024-0.237,0.073-0.33s0.117-0.167,0.205-0.224
		c0.088-0.056,0.271-0.123,0.549-0.201c0.371-0.103,0.75-0.184,1.135-0.245s0.735-0.092,1.047-0.092
		c0.933,0,1.656,0.201,2.172,0.604c0.515,0.402,0.772,0.953,0.772,1.651v3.091h0.256c0.361,0,0.619,0.069,0.773,0.209
		c0.153,0.139,0.23,0.321,0.23,0.545c0,0.22-0.077,0.399-0.23,0.539c-0.154,0.139-0.412,0.208-0.773,0.208H329.002z M329.002,75.18
		c-0.601-0.117-1.155-0.176-1.663-0.176c-0.61,0-1.135,0.149-1.575,0.447c-0.273,0.19-0.41,0.383-0.41,0.579
		c0,0.142,0.066,0.256,0.198,0.344c0.244,0.161,0.579,0.242,1.003,0.242c0.361,0,0.77-0.071,1.227-0.212
		c0.456-0.142,0.863-0.334,1.219-0.579V75.18z"/>
</g>
<g>
	<g>
		<line fill="none" stroke="#00ADEE" stroke-miterlimit="10" x1="153.071" y1="129.58" x2="153.071" y2="102.047"/>
		<g>
			<polygon fill="#00ADEE" points="156.138,127.095 155.589,126.583 153.071,129.292 150.554,126.583 150.004,127.095 
				153.071,130.394 			"/>
		</g>
	</g>
</g>
<g>
	<g>
		<line fill="none" stroke="#00ADEE" stroke-miterlimit="10" x1="68.032" y1="129.581" x2="68.032" y2="102.048"/>
		<g>
			<polygon fill="#00ADEE" points="71.099,127.096 70.55,126.584 68.032,129.293 65.515,126.584 64.965,127.096 68.032,130.394 			
				"/>
		</g>
	</g>
</g>
<g>
	<g>
		<line fill="none" stroke="#00ADEE" stroke-miterlimit="10" x1="11.339" y1="129.581" x2="11.339" y2="73.701"/>
		<g>
			<polygon fill="#00ADEE" points="14.406,127.096 13.857,126.584 11.34,129.293 8.821,126.584 8.272,127.096 11.34,130.394 			"/>
		</g>
	</g>
</g>
<g>
	<g>
		<line fill="none" stroke="#00ADEE" stroke-miterlimit="10" x1="238.111" y1="129.581" x2="238.111" y2="102.048"/>
		<g>
			<polygon fill="#00ADEE" points="241.178,127.096 240.629,126.584 238.111,129.293 235.594,126.584 235.044,127.096 
				238.111,130.394 			"/>
		</g>
	</g>
</g>
<g>
	<g>
		<line fill="none" stroke="#00ADEE" stroke-miterlimit="10" x1="323.15" y1="129.581" x2="323.15" y2="102.048"/>
		<g>
			<polygon fill="#00ADEE" points="326.218,127.096 325.668,126.584 323.151,129.293 320.633,126.584 320.084,127.096 
				323.151,130.394 			"/>
		</g>
	</g>
</g>
<line fill="none" x1="419.527" y1="130.394" x2="419.527" y2="102.048"/>
<line fill="none" stroke="#00ADEE" stroke-miterlimit="10" x1="11.339" y1="73.701" x2="39.539" y2="73.701"/>
<g>
	<g>
		<line fill="none" stroke="#EC1C24" stroke-miterlimit="10" x1="97.637" y1="73.319" x2="125.023" y2="73.319"/>
		<g>
			<polygon fill="#EC1C24" points="100.122,76.387 100.633,75.837 97.924,73.32 100.633,70.802 100.122,70.252 96.823,73.32 			"/>
		</g>
	</g>
</g>
<g>
	<g>
		<line fill="none" stroke="#EC1C24" stroke-miterlimit="10" x1="182.676" y1="73.319" x2="210.062" y2="73.319"/>
		<g>
			<polygon fill="#EC1C24" points="185.161,76.387 185.672,75.837 182.963,73.32 185.672,70.802 185.161,70.252 181.862,73.32 			
				"/>
		</g>
	</g>
</g>
<g>
	<g>
		<line fill="none" stroke="#EC1C24" stroke-miterlimit="10" x1="267.715" y1="73.319" x2="295.102" y2="73.319"/>
		<g>
			<polygon fill="#EC1C24" points="270.2,76.387 270.712,75.837 268.003,73.32 270.712,70.802 270.2,70.252 266.902,73.32 			"/>
		</g>
	</g>
</g>
<g>
	<g>
		<line fill="none" stroke="#231F20" stroke-miterlimit="10" x1="352.902" y1="73.319" x2="363.28" y2="73.319"/>
		<g>
			<polygon fill="#231F20" points="355.387,76.387 355.898,75.837 353.189,73.32 355.898,70.802 355.387,70.253 352.088,73.32 			
				"/>
		</g>
	</g>
</g>
<g>
	<path fill="#231F20" d="M370.763,69.036v1.219c0,1.059-0.252,1.896-0.756,2.514c-0.395,0.484-0.893,0.727-1.494,0.727
		c-0.289,0-0.562-0.058-0.817-0.173s-0.474-0.276-0.653-0.483c-0.113-0.129-0.237-0.336-0.372-0.621s-0.231-0.547-0.29-0.785
		c-0.09-0.336-0.135-0.729-0.135-1.178v-1.219c0-1.063,0.252-1.902,0.756-2.52c0.395-0.484,0.893-0.727,1.494-0.727
		c0.293,0,0.566,0.058,0.82,0.173s0.471,0.276,0.65,0.483c0.117,0.133,0.242,0.342,0.375,0.627s0.23,0.545,0.293,0.779
		C370.72,68.188,370.763,68.583,370.763,69.036z M370.271,69.101c0-0.465-0.065-0.897-0.196-1.298s-0.278-0.72-0.442-0.958
		c-0.098-0.137-0.225-0.254-0.381-0.352c-0.223-0.137-0.473-0.205-0.75-0.205c-0.551,0-0.982,0.281-1.295,0.844
		s-0.469,1.219-0.469,1.969v1.084c0,0.465,0.065,0.898,0.196,1.301s0.28,0.723,0.448,0.961c0.094,0.133,0.219,0.248,0.375,0.346
		c0.223,0.141,0.475,0.211,0.756,0.211c0.547,0,0.977-0.282,1.289-0.847s0.469-1.222,0.469-1.972V69.101z"/>
</g>
<g>
	<path fill="#EC1C24" d="M113.039,63.456v-0.164c0-0.121,0.023-0.207,0.07-0.258s0.105-0.076,0.176-0.076
		c0.074,0,0.135,0.025,0.182,0.076s0.07,0.137,0.07,0.258v1.113c-0.004,0.121-0.028,0.207-0.073,0.258s-0.104,0.076-0.179,0.076
		c-0.066,0-0.122-0.022-0.167-0.067s-0.071-0.12-0.079-0.226c-0.023-0.277-0.206-0.541-0.548-0.791s-0.802-0.375-1.38-0.375
		c-0.73,0-1.285,0.229-1.664,0.686s-0.568,0.98-0.568,1.57c0,0.637,0.209,1.162,0.627,1.576s0.959,0.621,1.623,0.621
		c0.383,0,0.772-0.07,1.169-0.211s0.755-0.367,1.075-0.68c0.082-0.078,0.154-0.117,0.217-0.117c0.066,0,0.122,0.022,0.167,0.067
		s0.067,0.101,0.067,0.167c0,0.168-0.197,0.381-0.592,0.639c-0.637,0.418-1.346,0.627-2.127,0.627c-0.793,0-1.444-0.253-1.954-0.759
		s-0.765-1.147-0.765-1.925c0-0.793,0.261-1.451,0.782-1.975s1.179-0.785,1.972-0.785C111.895,62.782,112.527,63.006,113.039,63.456
		z"/>
	<path fill="#EC1C24" d="M115.574,70.704h2.52v-0.129c0-0.078,0.016-0.134,0.047-0.168s0.072-0.051,0.121-0.051
		c0.047,0,0.086,0.017,0.117,0.051s0.047,0.09,0.047,0.168v0.457h-3.172v-0.484c0.667-0.599,1.315-1.208,1.945-1.828
		c0.294-0.289,0.496-0.501,0.605-0.637s0.184-0.254,0.225-0.357s0.061-0.207,0.061-0.311c0-0.281-0.113-0.53-0.34-0.746
		s-0.5-0.324-0.82-0.324c-0.287,0-0.541,0.082-0.762,0.246s-0.365,0.367-0.43,0.609c-0.016,0.063-0.035,0.103-0.059,0.121
		c-0.031,0.026-0.068,0.039-0.109,0.039c-0.044,0-0.082-0.015-0.111-0.045s-0.045-0.066-0.045-0.107
		c0-0.125,0.068-0.294,0.205-0.508s0.326-0.381,0.566-0.504s0.488-0.184,0.74-0.184c0.409,0,0.76,0.142,1.055,0.426
		s0.441,0.605,0.441,0.965c0,0.151-0.025,0.29-0.074,0.416s-0.133,0.264-0.252,0.414s-0.332,0.375-0.639,0.678
		c-0.771,0.76-1.398,1.35-1.883,1.77V70.704z"/>
</g>
<g>
	<path fill="#EC1C24" d="M25.165,63.456v-0.164c0-0.121,0.023-0.207,0.07-0.258s0.105-0.076,0.176-0.076
		c0.074,0,0.135,0.025,0.182,0.076s0.07,0.137,0.07,0.258v1.113c-0.004,0.121-0.028,0.207-0.073,0.258s-0.104,0.076-0.179,0.076
		c-0.066,0-0.122-0.022-0.167-0.067s-0.071-0.12-0.079-0.226c-0.023-0.277-0.206-0.541-0.548-0.791s-0.802-0.375-1.38-0.375
		c-0.73,0-1.285,0.229-1.664,0.686s-0.568,0.98-0.568,1.57c0,0.637,0.209,1.162,0.627,1.576s0.959,0.621,1.623,0.621
		c0.383,0,0.772-0.07,1.169-0.211s0.755-0.367,1.075-0.68c0.082-0.078,0.154-0.117,0.217-0.117c0.066,0,0.122,0.022,0.167,0.067
		s0.067,0.101,0.067,0.167c0,0.168-0.197,0.381-0.592,0.639c-0.637,0.418-1.346,0.627-2.127,0.627c-0.793,0-1.444-0.253-1.954-0.759
		s-0.765-1.147-0.765-1.925c0-0.793,0.261-1.451,0.782-1.975s1.179-0.785,1.972-0.785C24.021,62.782,24.653,63.006,25.165,63.456z"
		/>
	<path fill="#EC1C24" d="M29.786,68.364c0.302,0.135,0.533,0.321,0.691,0.557s0.238,0.481,0.238,0.736
		c0,0.393-0.16,0.74-0.479,1.041s-0.718,0.451-1.197,0.451c-0.281,0-0.573-0.06-0.875-0.18s-0.513-0.242-0.633-0.367
		c-0.039-0.042-0.059-0.086-0.059-0.133c0-0.042,0.015-0.078,0.045-0.109s0.066-0.047,0.107-0.047s0.088,0.02,0.141,0.059
		c0.404,0.299,0.831,0.449,1.281,0.449c0.38,0,0.699-0.119,0.955-0.357s0.385-0.503,0.385-0.795c0-0.195-0.063-0.387-0.189-0.574
		s-0.308-0.335-0.545-0.443s-0.477-0.162-0.719-0.162c-0.078,0-0.134-0.015-0.168-0.045s-0.051-0.07-0.051-0.119
		c0-0.047,0.016-0.086,0.049-0.117s0.082-0.047,0.146-0.047l0.281,0.004c0.294,0,0.537-0.09,0.729-0.27s0.287-0.388,0.287-0.625
		c0-0.245-0.1-0.461-0.301-0.648s-0.462-0.281-0.785-0.281c-0.227,0-0.435,0.039-0.625,0.117s-0.342,0.185-0.457,0.32
		c-0.042,0.052-0.074,0.084-0.096,0.096s-0.047,0.018-0.076,0.018c-0.044,0-0.082-0.015-0.113-0.045s-0.047-0.066-0.047-0.107
		c0-0.104,0.113-0.236,0.34-0.395c0.315-0.221,0.673-0.332,1.074-0.332c0.414,0,0.754,0.125,1.02,0.373s0.398,0.545,0.398,0.889
		c0,0.219-0.064,0.426-0.191,0.621S30.034,68.247,29.786,68.364z"/>
</g>
<g>
	<path fill="#EC1C24" d="M198.078,63.456v-0.164c0-0.121,0.023-0.207,0.07-0.258s0.105-0.076,0.176-0.076
		c0.074,0,0.135,0.025,0.182,0.076s0.07,0.137,0.07,0.258v1.113c-0.004,0.121-0.028,0.207-0.073,0.258s-0.104,0.076-0.179,0.076
		c-0.066,0-0.122-0.022-0.167-0.067s-0.071-0.12-0.079-0.226c-0.023-0.277-0.206-0.541-0.548-0.791s-0.802-0.375-1.38-0.375
		c-0.73,0-1.285,0.229-1.664,0.686s-0.568,0.98-0.568,1.57c0,0.637,0.209,1.162,0.627,1.576s0.959,0.621,1.623,0.621
		c0.383,0,0.772-0.07,1.169-0.211s0.755-0.367,1.075-0.68c0.082-0.078,0.154-0.117,0.217-0.117c0.066,0,0.122,0.022,0.167,0.067
		s0.067,0.101,0.067,0.167c0,0.168-0.197,0.381-0.592,0.639c-0.637,0.418-1.346,0.627-2.127,0.627c-0.793,0-1.444-0.253-1.954-0.759
		s-0.765-1.147-0.765-1.925c0-0.793,0.261-1.451,0.782-1.975s1.179-0.785,1.972-0.785C196.934,62.782,197.566,63.006,198.078,63.456
		z"/>
	<path fill="#EC1C24" d="M202.188,66.063v4.641h1.125c0.078,0,0.134,0.015,0.168,0.045s0.051,0.07,0.051,0.119
		c0,0.047-0.017,0.086-0.051,0.117s-0.09,0.047-0.168,0.047h-2.578c-0.078,0-0.134-0.016-0.168-0.047s-0.051-0.07-0.051-0.117
		c0-0.049,0.017-0.089,0.051-0.119s0.09-0.045,0.168-0.045h1.125v-4.188l-1.07,0.336c-0.052,0.016-0.09,0.023-0.113,0.023
		c-0.039,0-0.075-0.016-0.107-0.049s-0.049-0.071-0.049-0.115c0-0.039,0.013-0.076,0.039-0.109c0.021-0.021,0.064-0.043,0.129-0.066
		L202.188,66.063z"/>
</g>
<g>
	<path fill="#EC1C24" d="M283.117,63.456v-0.164c0-0.121,0.023-0.207,0.07-0.258s0.105-0.076,0.176-0.076
		c0.074,0,0.135,0.025,0.182,0.076s0.07,0.137,0.07,0.258v1.113c-0.004,0.121-0.028,0.207-0.073,0.258s-0.104,0.076-0.179,0.076
		c-0.066,0-0.122-0.022-0.167-0.067s-0.071-0.12-0.079-0.226c-0.023-0.277-0.206-0.541-0.548-0.791s-0.802-0.375-1.38-0.375
		c-0.73,0-1.285,0.229-1.664,0.686s-0.568,0.98-0.568,1.57c0,0.637,0.209,1.162,0.627,1.576s0.959,0.621,1.623,0.621
		c0.383,0,0.772-0.07,1.169-0.211s0.755-0.367,1.075-0.68c0.082-0.078,0.154-0.117,0.217-0.117c0.066,0,0.122,0.022,0.167,0.067
		s0.067,0.101,0.067,0.167c0,0.168-0.197,0.381-0.592,0.639c-0.637,0.418-1.346,0.627-2.127,0.627c-0.793,0-1.444-0.253-1.954-0.759
		s-0.765-1.147-0.765-1.925c0-0.793,0.261-1.451,0.782-1.975s1.179-0.785,1.972-0.785C281.973,62.782,282.605,63.006,283.117,63.456
		z"/>
	<path fill="#EC1C24" d="M288.57,68.176v0.813c0,0.706-0.168,1.264-0.504,1.676c-0.263,0.323-0.595,0.484-0.996,0.484
		c-0.193,0-0.375-0.039-0.545-0.115s-0.316-0.184-0.436-0.322c-0.076-0.086-0.158-0.224-0.248-0.414s-0.154-0.365-0.193-0.523
		c-0.06-0.224-0.09-0.486-0.09-0.785v-0.813c0-0.708,0.168-1.268,0.504-1.68c0.263-0.323,0.595-0.484,0.996-0.484
		c0.195,0,0.377,0.039,0.547,0.115s0.314,0.184,0.434,0.322c0.078,0.088,0.162,0.228,0.25,0.418s0.154,0.363,0.195,0.52
		C288.542,67.611,288.57,67.874,288.57,68.176z M288.242,68.219c0-0.31-0.043-0.598-0.131-0.865s-0.186-0.48-0.295-0.639
		c-0.065-0.091-0.15-0.169-0.254-0.234c-0.148-0.091-0.315-0.137-0.5-0.137c-0.367,0-0.655,0.188-0.863,0.563
		s-0.313,0.813-0.313,1.313v0.723c0,0.31,0.043,0.599,0.131,0.867s0.187,0.482,0.299,0.641c0.063,0.088,0.146,0.166,0.25,0.23
		c0.148,0.094,0.316,0.141,0.504,0.141c0.365,0,0.651-0.188,0.859-0.564s0.313-0.814,0.313-1.314V68.219z"/>
</g>
<g>
	<path fill="#00ADEE" d="M77.887,118.555c0-0.113,0.023-0.195,0.07-0.246s0.105-0.076,0.176-0.076c0.074,0,0.135,0.025,0.182,0.076
		s0.07,0.137,0.07,0.258v0.844c0,0.117-0.023,0.201-0.07,0.252s-0.107,0.076-0.182,0.076c-0.066,0-0.122-0.021-0.167-0.064
		s-0.071-0.113-0.079-0.211c-0.023-0.234-0.145-0.428-0.363-0.58c-0.32-0.219-0.744-0.328-1.271-0.328
		c-0.551,0-0.979,0.111-1.283,0.334c-0.23,0.168-0.346,0.355-0.346,0.563c0,0.234,0.137,0.43,0.41,0.586
		c0.188,0.109,0.543,0.193,1.066,0.252c0.684,0.074,1.158,0.158,1.424,0.252c0.379,0.137,0.661,0.326,0.847,0.568
		s0.278,0.504,0.278,0.785c0,0.418-0.201,0.79-0.604,1.116s-0.992,0.489-1.77,0.489s-1.414-0.197-1.91-0.592
		c0,0.133-0.008,0.219-0.023,0.258s-0.044,0.072-0.085,0.1s-0.087,0.041-0.138,0.041c-0.07,0-0.129-0.025-0.176-0.076
		s-0.07-0.135-0.07-0.252v-1.014c0-0.117,0.022-0.201,0.067-0.252s0.104-0.076,0.179-0.076c0.07,0,0.13,0.024,0.179,0.073
		s0.073,0.114,0.073,0.196c0,0.18,0.045,0.33,0.135,0.451c0.137,0.188,0.354,0.343,0.653,0.466s0.665,0.185,1.099,0.185
		c0.641,0,1.117-0.119,1.43-0.357s0.469-0.49,0.469-0.756c0-0.305-0.158-0.549-0.475-0.732c-0.32-0.184-0.786-0.307-1.397-0.369
		s-1.05-0.145-1.315-0.246s-0.473-0.254-0.621-0.457s-0.223-0.422-0.223-0.656c0-0.422,0.207-0.757,0.621-1.005
		s0.908-0.372,1.482-0.372C76.909,118.057,77.461,118.223,77.887,118.555z"/>
	<path fill="#00ADEE" d="M82.936,123.639c0.302,0.135,0.533,0.321,0.691,0.557s0.238,0.481,0.238,0.736
		c0,0.393-0.16,0.74-0.479,1.041s-0.718,0.451-1.197,0.451c-0.281,0-0.573-0.06-0.875-0.18s-0.513-0.242-0.633-0.367
		c-0.039-0.042-0.059-0.086-0.059-0.133c0-0.042,0.015-0.078,0.045-0.109s0.066-0.047,0.107-0.047s0.088,0.02,0.141,0.059
		c0.404,0.299,0.831,0.449,1.281,0.449c0.38,0,0.699-0.119,0.955-0.357s0.385-0.503,0.385-0.795c0-0.195-0.063-0.387-0.189-0.574
		s-0.308-0.335-0.545-0.443s-0.477-0.162-0.719-0.162c-0.078,0-0.134-0.015-0.168-0.045s-0.051-0.07-0.051-0.119
		c0-0.047,0.016-0.086,0.049-0.117s0.082-0.047,0.146-0.047l0.281,0.004c0.294,0,0.537-0.09,0.729-0.27s0.287-0.388,0.287-0.625
		c0-0.245-0.1-0.461-0.301-0.648s-0.462-0.281-0.785-0.281c-0.227,0-0.435,0.039-0.625,0.117s-0.342,0.185-0.457,0.32
		c-0.042,0.052-0.074,0.084-0.096,0.096s-0.047,0.018-0.076,0.018c-0.044,0-0.082-0.015-0.113-0.045s-0.047-0.066-0.047-0.107
		c0-0.104,0.113-0.236,0.34-0.395c0.315-0.221,0.673-0.332,1.074-0.332c0.414,0,0.754,0.125,1.02,0.373s0.398,0.545,0.398,0.889
		c0,0.219-0.064,0.426-0.191,0.621S83.184,123.522,82.936,123.639z"/>
</g>
<g>
	<path fill="#00ADEE" d="M21.194,118.555c0-0.113,0.023-0.195,0.07-0.246s0.105-0.076,0.176-0.076c0.074,0,0.135,0.025,0.182,0.076
		s0.07,0.137,0.07,0.258v0.844c0,0.117-0.023,0.201-0.07,0.252s-0.107,0.076-0.182,0.076c-0.066,0-0.122-0.021-0.167-0.064
		s-0.071-0.113-0.079-0.211c-0.023-0.234-0.145-0.428-0.363-0.58c-0.32-0.219-0.744-0.328-1.271-0.328
		c-0.551,0-0.979,0.111-1.283,0.334c-0.23,0.168-0.346,0.355-0.346,0.563c0,0.234,0.137,0.43,0.41,0.586
		c0.188,0.109,0.543,0.193,1.066,0.252c0.684,0.074,1.158,0.158,1.424,0.252c0.379,0.137,0.661,0.326,0.847,0.568
		s0.278,0.504,0.278,0.785c0,0.418-0.201,0.79-0.604,1.116s-0.992,0.489-1.77,0.489s-1.414-0.197-1.91-0.592
		c0,0.133-0.008,0.219-0.023,0.258s-0.044,0.072-0.085,0.1s-0.087,0.041-0.138,0.041c-0.07,0-0.129-0.025-0.176-0.076
		s-0.07-0.135-0.07-0.252v-1.014c0-0.117,0.022-0.201,0.067-0.252s0.104-0.076,0.179-0.076c0.07,0,0.13,0.024,0.179,0.073
		s0.073,0.114,0.073,0.196c0,0.18,0.045,0.33,0.135,0.451c0.137,0.188,0.354,0.343,0.653,0.466s0.665,0.185,1.099,0.185
		c0.641,0,1.117-0.119,1.43-0.357s0.469-0.49,0.469-0.756c0-0.305-0.158-0.549-0.475-0.732c-0.32-0.184-0.786-0.307-1.397-0.369
		s-1.05-0.145-1.315-0.246s-0.473-0.254-0.621-0.457s-0.223-0.422-0.223-0.656c0-0.422,0.207-0.757,0.621-1.005
		s0.908-0.372,1.482-0.372C20.216,118.057,20.769,118.223,21.194,118.555z"/>
	<path fill="#00ADEE" d="M26.181,124.936h-2.176v-0.379l1.824-3.152h0.684v3.203h0.273c0.081,0,0.138,0.015,0.172,0.045
		s0.051,0.07,0.051,0.119c0,0.047-0.017,0.086-0.051,0.117s-0.091,0.047-0.172,0.047h-0.273v1.043h0.273
		c0.081,0,0.138,0.015,0.172,0.045s0.051,0.07,0.051,0.119c0,0.047-0.017,0.086-0.051,0.117s-0.091,0.047-0.172,0.047h-1.219
		c-0.081,0-0.138-0.016-0.172-0.047s-0.051-0.07-0.051-0.117c0-0.049,0.017-0.089,0.051-0.119s0.091-0.045,0.172-0.045h0.613
		V124.936z M26.181,124.607v-2.871h-0.172l-1.66,2.871H26.181z"/>
</g>
<g>
	<path fill="#00ADEE" d="M162.927,118.555c0-0.113,0.023-0.195,0.07-0.246s0.105-0.076,0.176-0.076c0.074,0,0.135,0.025,0.182,0.076
		s0.07,0.137,0.07,0.258v0.844c0,0.117-0.023,0.201-0.07,0.252s-0.107,0.076-0.182,0.076c-0.066,0-0.122-0.021-0.167-0.064
		s-0.071-0.113-0.079-0.211c-0.023-0.234-0.145-0.428-0.363-0.58c-0.32-0.219-0.744-0.328-1.271-0.328
		c-0.551,0-0.979,0.111-1.283,0.334c-0.23,0.168-0.346,0.355-0.346,0.563c0,0.234,0.137,0.43,0.41,0.586
		c0.188,0.109,0.543,0.193,1.066,0.252c0.684,0.074,1.158,0.158,1.424,0.252c0.379,0.137,0.661,0.326,0.847,0.568
		s0.278,0.504,0.278,0.785c0,0.418-0.201,0.79-0.604,1.116s-0.992,0.489-1.77,0.489s-1.414-0.197-1.91-0.592
		c0,0.133-0.008,0.219-0.023,0.258s-0.044,0.072-0.085,0.1s-0.087,0.041-0.138,0.041c-0.07,0-0.129-0.025-0.176-0.076
		s-0.07-0.135-0.07-0.252v-1.014c0-0.117,0.022-0.201,0.067-0.252s0.104-0.076,0.179-0.076c0.07,0,0.13,0.024,0.179,0.073
		s0.073,0.114,0.073,0.196c0,0.18,0.045,0.33,0.135,0.451c0.137,0.188,0.354,0.343,0.653,0.466s0.665,0.185,1.099,0.185
		c0.641,0,1.117-0.119,1.43-0.357s0.469-0.49,0.469-0.756c0-0.305-0.158-0.549-0.475-0.732c-0.32-0.184-0.786-0.307-1.397-0.369
		s-1.05-0.145-1.315-0.246s-0.473-0.254-0.621-0.457s-0.223-0.422-0.223-0.656c0-0.422,0.207-0.757,0.621-1.005
		s0.908-0.372,1.482-0.372C161.948,118.057,162.501,118.223,162.927,118.555z"/>
	<path fill="#00ADEE" d="M165.89,125.979h2.52v-0.129c0-0.078,0.016-0.134,0.047-0.168s0.072-0.051,0.121-0.051
		c0.047,0,0.086,0.017,0.117,0.051s0.047,0.09,0.047,0.168v0.457h-3.172v-0.484c0.667-0.599,1.315-1.208,1.945-1.828
		c0.294-0.289,0.496-0.501,0.605-0.637s0.184-0.254,0.225-0.357s0.061-0.207,0.061-0.311c0-0.281-0.113-0.53-0.34-0.746
		s-0.5-0.324-0.82-0.324c-0.287,0-0.541,0.082-0.762,0.246s-0.365,0.367-0.43,0.609c-0.016,0.063-0.035,0.103-0.059,0.121
		c-0.031,0.026-0.068,0.039-0.109,0.039c-0.044,0-0.082-0.015-0.111-0.045s-0.045-0.066-0.045-0.107
		c0-0.125,0.068-0.294,0.205-0.508s0.326-0.381,0.566-0.504s0.488-0.184,0.74-0.184c0.409,0,0.76,0.142,1.055,0.426
		s0.441,0.605,0.441,0.965c0,0.151-0.025,0.29-0.074,0.416s-0.133,0.264-0.252,0.414s-0.332,0.375-0.639,0.678
		c-0.771,0.76-1.398,1.35-1.883,1.77V125.979z"/>
</g>
<g>
	<path fill="#00ADEE" d="M247.966,118.555c0-0.113,0.023-0.195,0.07-0.246s0.105-0.076,0.176-0.076c0.074,0,0.135,0.025,0.182,0.076
		s0.07,0.137,0.07,0.258v0.844c0,0.117-0.023,0.201-0.07,0.252s-0.107,0.076-0.182,0.076c-0.066,0-0.122-0.021-0.167-0.064
		s-0.071-0.113-0.079-0.211c-0.023-0.234-0.145-0.428-0.363-0.58c-0.32-0.219-0.744-0.328-1.271-0.328
		c-0.551,0-0.979,0.111-1.283,0.334c-0.23,0.168-0.346,0.355-0.346,0.563c0,0.234,0.137,0.43,0.41,0.586
		c0.188,0.109,0.543,0.193,1.066,0.252c0.684,0.074,1.158,0.158,1.424,0.252c0.379,0.137,0.661,0.326,0.847,0.568
		s0.278,0.504,0.278,0.785c0,0.418-0.201,0.79-0.604,1.116s-0.992,0.489-1.77,0.489s-1.414-0.197-1.91-0.592
		c0,0.133-0.008,0.219-0.023,0.258s-0.044,0.072-0.085,0.1s-0.087,0.041-0.138,0.041c-0.07,0-0.129-0.025-0.176-0.076
		s-0.07-0.135-0.07-0.252v-1.014c0-0.117,0.022-0.201,0.067-0.252s0.104-0.076,0.179-0.076c0.07,0,0.13,0.024,0.179,0.073
		s0.073,0.114,0.073,0.196c0,0.18,0.045,0.33,0.135,0.451c0.137,0.188,0.354,0.343,0.653,0.466s0.665,0.185,1.099,0.185
		c0.641,0,1.117-0.119,1.43-0.357s0.469-0.49,0.469-0.756c0-0.305-0.158-0.549-0.475-0.732c-0.32-0.184-0.786-0.307-1.397-0.369
		s-1.05-0.145-1.315-0.246s-0.473-0.254-0.621-0.457s-0.223-0.422-0.223-0.656c0-0.422,0.207-0.757,0.621-1.005
		s0.908-0.372,1.482-0.372C246.987,118.057,247.54,118.223,247.966,118.555z"/>
	<path fill="#00ADEE" d="M252.503,121.338v4.641h1.125c0.078,0,0.134,0.015,0.168,0.045s0.051,0.07,0.051,0.119
		c0,0.047-0.017,0.086-0.051,0.117s-0.09,0.047-0.168,0.047h-2.578c-0.078,0-0.134-0.016-0.168-0.047s-0.051-0.07-0.051-0.117
		c0-0.049,0.017-0.089,0.051-0.119s0.09-0.045,0.168-0.045h1.125v-4.188l-1.07,0.336c-0.052,0.016-0.09,0.023-0.113,0.023
		c-0.039,0-0.075-0.016-0.107-0.049s-0.049-0.071-0.049-0.115c0-0.039,0.013-0.076,0.039-0.109c0.021-0.021,0.064-0.043,0.129-0.066
		L252.503,121.338z"/>
</g>
<g>
	<path fill="#00ADEE" d="M333.005,118.555c0-0.113,0.023-0.195,0.07-0.246s0.105-0.076,0.176-0.076c0.074,0,0.135,0.025,0.182,0.076
		s0.07,0.137,0.07,0.258v0.844c0,0.117-0.023,0.201-0.07,0.252s-0.107,0.076-0.182,0.076c-0.066,0-0.122-0.021-0.167-0.064
		s-0.071-0.113-0.079-0.211c-0.023-0.234-0.145-0.428-0.363-0.58c-0.32-0.219-0.744-0.328-1.271-0.328
		c-0.551,0-0.979,0.111-1.283,0.334c-0.23,0.168-0.346,0.355-0.346,0.563c0,0.234,0.137,0.43,0.41,0.586
		c0.188,0.109,0.543,0.193,1.066,0.252c0.684,0.074,1.158,0.158,1.424,0.252c0.379,0.137,0.661,0.326,0.847,0.568
		s0.278,0.504,0.278,0.785c0,0.418-0.201,0.79-0.604,1.116s-0.992,0.489-1.77,0.489s-1.414-0.197-1.91-0.592
		c0,0.133-0.008,0.219-0.023,0.258s-0.044,0.072-0.085,0.1s-0.087,0.041-0.138,0.041c-0.07,0-0.129-0.025-0.176-0.076
		s-0.07-0.135-0.07-0.252v-1.014c0-0.117,0.022-0.201,0.067-0.252s0.104-0.076,0.179-0.076c0.07,0,0.13,0.024,0.179,0.073
		s0.073,0.114,0.073,0.196c0,0.18,0.045,0.33,0.135,0.451c0.137,0.188,0.354,0.343,0.653,0.466s0.665,0.185,1.099,0.185
		c0.641,0,1.117-0.119,1.43-0.357s0.469-0.49,0.469-0.756c0-0.305-0.158-0.549-0.475-0.732c-0.32-0.184-0.786-0.307-1.397-0.369
		s-1.05-0.145-1.315-0.246s-0.473-0.254-0.621-0.457s-0.223-0.422-0.223-0.656c0-0.422,0.207-0.757,0.621-1.005
		s0.908-0.372,1.482-0.372C332.026,118.057,332.579,118.223,333.005,118.555z"/>
	<path fill="#00ADEE" d="M338.886,123.452v0.813c0,0.706-0.168,1.264-0.504,1.676c-0.263,0.323-0.595,0.484-0.996,0.484
		c-0.193,0-0.375-0.039-0.545-0.115s-0.316-0.184-0.436-0.322c-0.076-0.086-0.158-0.224-0.248-0.414s-0.154-0.365-0.193-0.523
		c-0.06-0.224-0.09-0.486-0.09-0.785v-0.813c0-0.708,0.168-1.268,0.504-1.68c0.263-0.323,0.595-0.484,0.996-0.484
		c0.195,0,0.377,0.039,0.547,0.115s0.314,0.184,0.434,0.322c0.078,0.088,0.162,0.228,0.25,0.418s0.154,0.363,0.195,0.52
		C338.857,122.887,338.886,123.149,338.886,123.452z M338.558,123.495c0-0.31-0.043-0.598-0.131-0.865s-0.186-0.48-0.295-0.639
		c-0.065-0.091-0.15-0.169-0.254-0.234c-0.148-0.091-0.315-0.137-0.5-0.137c-0.367,0-0.655,0.188-0.863,0.563
		s-0.313,0.813-0.313,1.313v0.723c0,0.31,0.043,0.599,0.131,0.867s0.187,0.482,0.299,0.641c0.063,0.088,0.146,0.166,0.25,0.23
		c0.148,0.094,0.316,0.141,0.504,0.141c0.365,0,0.651-0.188,0.859-0.564s0.313-0.814,0.313-1.314V123.495z"/>
</g>
<g>
</g>
<g>
	<path fill="#00ADEE" d="M346.968,34.725v-0.709c-0.715,0.602-1.479,0.902-2.291,0.902c-0.59,0-1.051-0.149-1.383-0.448
		s-0.498-0.665-0.498-1.099c0-0.477,0.219-0.893,0.656-1.248s1.076-0.533,1.916-0.533c0.227,0,0.473,0.015,0.738,0.044
		s0.553,0.075,0.861,0.138v-0.797c0-0.27-0.125-0.504-0.375-0.703s-0.625-0.299-1.125-0.299c-0.383,0-0.92,0.111-1.611,0.334
		c-0.125,0.039-0.205,0.059-0.24,0.059c-0.063,0-0.116-0.023-0.161-0.07s-0.067-0.105-0.067-0.176c0-0.066,0.02-0.119,0.059-0.158
		c0.055-0.059,0.275-0.139,0.662-0.24c0.609-0.164,1.07-0.246,1.383-0.246c0.621,0,1.105,0.153,1.453,0.46s0.521,0.653,0.521,1.04
		v3.258h0.656c0.121,0,0.207,0.022,0.258,0.067s0.076,0.104,0.076,0.179c0,0.07-0.025,0.129-0.076,0.176s-0.137,0.07-0.258,0.07
		H346.968z M346.968,32.275c-0.23-0.066-0.475-0.115-0.732-0.146s-0.529-0.047-0.814-0.047c-0.715,0-1.273,0.154-1.676,0.463
		c-0.305,0.23-0.457,0.506-0.457,0.826c0,0.297,0.116,0.547,0.349,0.75s0.571,0.305,1.017,0.305c0.426,0,0.821-0.085,1.187-0.255
		s0.741-0.44,1.128-0.812V32.275z"/>
	<path fill="#00ADEE" d="M353.06,34.869v0.813c0,0.706-0.168,1.264-0.504,1.676c-0.263,0.323-0.595,0.484-0.996,0.484
		c-0.193,0-0.375-0.039-0.545-0.115s-0.316-0.184-0.436-0.322c-0.076-0.086-0.158-0.224-0.248-0.414s-0.154-0.365-0.193-0.523
		c-0.06-0.224-0.09-0.486-0.09-0.785v-0.813c0-0.708,0.168-1.268,0.504-1.68c0.263-0.323,0.595-0.484,0.996-0.484
		c0.195,0,0.377,0.039,0.547,0.115s0.314,0.184,0.434,0.322c0.078,0.088,0.162,0.228,0.25,0.418s0.154,0.363,0.195,0.52
		C353.031,34.304,353.06,34.567,353.06,34.869z M352.731,34.912c0-0.31-0.043-0.598-0.131-0.865s-0.186-0.48-0.295-0.639
		c-0.065-0.091-0.15-0.169-0.254-0.234c-0.148-0.091-0.315-0.137-0.5-0.137c-0.367,0-0.655,0.188-0.863,0.563
		s-0.313,0.813-0.313,1.313v0.723c0,0.31,0.043,0.599,0.131,0.867s0.187,0.482,0.299,0.641c0.063,0.088,0.146,0.166,0.25,0.23
		c0.148,0.094,0.316,0.141,0.504,0.141c0.365,0,0.651-0.188,0.859-0.564s0.313-0.814,0.313-1.314V34.912z"/>
</g>
<g>
	<g>
		
			<line fill="none" stroke="#00ADEE" stroke-width="0.8467" stroke-miterlimit="10" x1="337.323" y1="42.962" x2="337.323" y2="16.641"/>
		<g>
			<polygon fill="#00ADEE" points="340.017,37.957 339.22,37.667 337.323,42.879 335.427,37.667 334.631,37.957 337.323,45.354 			
				"/>
		</g>
	</g>
</g>
<g>
	<g>
		
			<line fill="none" stroke="#00ADEE" stroke-width="0.8467" stroke-miterlimit="10" x1="308.977" y1="43.329" x2="308.977" y2="17.008"/>
		<g>
			<polygon fill="#00ADEE" points="311.669,38.324 310.874,38.035 308.977,43.247 307.08,38.035 306.284,38.324 308.977,45.722 			
				"/>
		</g>
	</g>
</g>
<g>
	<g>
		
			<line fill="none" stroke="#00ADEE" stroke-width="0.8467" stroke-miterlimit="10" x1="252.284" y1="43.329" x2="252.284" y2="17.008"/>
		<g>
			<polygon fill="#00ADEE" points="254.977,38.324 254.18,38.035 252.284,43.247 250.387,38.035 249.591,38.324 252.284,45.722 			
				"/>
		</g>
	</g>
</g>
<g>
	<g>
		
			<line fill="none" stroke="#00ADEE" stroke-width="0.8467" stroke-miterlimit="10" x1="223.938" y1="43.329" x2="223.938" y2="17.008"/>
		<g>
			<polygon fill="#00ADEE" points="226.631,38.324 225.834,38.035 223.938,43.247 222.041,38.035 221.245,38.324 223.938,45.722 			
				"/>
		</g>
	</g>
</g>
<g>
	<g>
		
			<line fill="none" stroke="#00ADEE" stroke-width="0.8467" stroke-miterlimit="10" x1="138.898" y1="42.962" x2="138.898" y2="16.641"/>
		<g>
			<polygon fill="#00ADEE" points="141.591,37.957 140.794,37.667 138.898,42.879 137.001,37.667 136.206,37.957 138.898,45.354 			
				"/>
		</g>
	</g>
</g>
<g>
	<g>
		
			<line fill="none" stroke="#00ADEE" stroke-width="0.8467" stroke-miterlimit="10" x1="53.858" y1="42.962" x2="53.858" y2="16.641"/>
		<g>
			<polygon fill="#00ADEE" points="56.552,37.957 55.755,37.667 53.858,42.879 51.962,37.667 51.166,37.957 53.858,45.354 			"/>
		</g>
	</g>
</g>
<g>
	<g>
		
			<line fill="none" stroke="#00ADEE" stroke-width="0.8467" stroke-miterlimit="10" x1="82.205" y1="43.329" x2="82.205" y2="17.008"/>
		<g>
			<polygon fill="#00ADEE" points="84.898,38.324 84.101,38.035 82.205,43.247 80.308,38.035 79.512,38.324 82.205,45.722 			"/>
		</g>
	</g>
</g>
<g>
	<g>
		
			<line fill="none" stroke="#00ADEE" stroke-width="0.8467" stroke-miterlimit="10" x1="167.244" y1="43.329" x2="167.244" y2="17.008"/>
		<g>
			<polygon fill="#00ADEE" points="169.938,38.324 169.141,38.035 167.244,43.247 165.348,38.035 164.552,38.324 167.244,45.722 			
				"/>
		</g>
	</g>
</g>
<g>
	<path fill="#00ADEE" d="M315.352,27.371v3.264c0.594-0.773,1.311-1.16,2.15-1.16c0.719,0,1.334,0.261,1.846,0.782
		s0.768,1.161,0.768,1.919c0,0.766-0.259,1.414-0.776,1.945s-1.13,0.797-1.837,0.797c-0.859,0-1.576-0.387-2.15-1.16v0.967h-1.154
		c-0.117,0-0.201-0.023-0.252-0.07s-0.076-0.105-0.076-0.176c0-0.074,0.025-0.134,0.076-0.179s0.135-0.067,0.252-0.067h0.662v-6.363
		h-0.662c-0.117,0-0.201-0.023-0.252-0.07s-0.076-0.107-0.076-0.182c0-0.07,0.025-0.129,0.076-0.176s0.135-0.07,0.252-0.07H315.352z
		 M319.623,32.199c0-0.621-0.213-1.147-0.639-1.579s-0.924-0.647-1.494-0.647s-1.068,0.216-1.494,0.647s-0.639,0.958-0.639,1.579
		s0.213,1.147,0.639,1.579s0.924,0.647,1.494,0.647s1.068-0.216,1.494-0.647S319.623,32.82,319.623,32.199z"/>
	<path fill="#00ADEE" d="M324.713,34.869v0.813c0,0.706-0.168,1.264-0.504,1.676c-0.263,0.323-0.595,0.484-0.996,0.484
		c-0.193,0-0.375-0.039-0.545-0.115s-0.316-0.184-0.436-0.322c-0.076-0.086-0.158-0.224-0.248-0.414s-0.154-0.365-0.193-0.523
		c-0.06-0.224-0.09-0.486-0.09-0.785v-0.813c0-0.708,0.168-1.268,0.504-1.68c0.263-0.323,0.595-0.484,0.996-0.484
		c0.195,0,0.377,0.039,0.547,0.115s0.314,0.184,0.434,0.322c0.078,0.088,0.162,0.228,0.25,0.418s0.154,0.363,0.195,0.52
		C324.684,34.304,324.713,34.567,324.713,34.869z M324.385,34.912c0-0.31-0.043-0.598-0.131-0.865s-0.186-0.48-0.295-0.639
		c-0.065-0.091-0.15-0.169-0.254-0.234c-0.148-0.091-0.315-0.137-0.5-0.137c-0.367,0-0.655,0.188-0.863,0.563
		s-0.313,0.813-0.313,1.313v0.723c0,0.31,0.043,0.599,0.131,0.867s0.187,0.482,0.299,0.641c0.063,0.088,0.146,0.166,0.25,0.23
		c0.148,0.094,0.316,0.141,0.504,0.141c0.365,0,0.651-0.188,0.859-0.564s0.313-0.814,0.313-1.314V34.912z"/>
</g>
<g>
	<path fill="#00ADEE" d="M261.929,34.725v-0.709c-0.715,0.602-1.479,0.902-2.291,0.902c-0.59,0-1.051-0.149-1.383-0.448
		s-0.498-0.665-0.498-1.099c0-0.477,0.219-0.893,0.656-1.248s1.076-0.533,1.916-0.533c0.227,0,0.473,0.015,0.738,0.044
		s0.553,0.075,0.861,0.138v-0.797c0-0.27-0.125-0.504-0.375-0.703s-0.625-0.299-1.125-0.299c-0.383,0-0.92,0.111-1.611,0.334
		c-0.125,0.039-0.205,0.059-0.24,0.059c-0.063,0-0.116-0.023-0.161-0.07s-0.067-0.105-0.067-0.176c0-0.066,0.02-0.119,0.059-0.158
		c0.055-0.059,0.275-0.139,0.662-0.24c0.609-0.164,1.07-0.246,1.383-0.246c0.621,0,1.105,0.153,1.453,0.46s0.521,0.653,0.521,1.04
		v3.258h0.656c0.121,0,0.207,0.022,0.258,0.067s0.076,0.104,0.076,0.179c0,0.07-0.025,0.129-0.076,0.176s-0.137,0.07-0.258,0.07
		H261.929z M261.929,32.275c-0.23-0.066-0.475-0.115-0.732-0.146s-0.529-0.047-0.814-0.047c-0.715,0-1.273,0.154-1.676,0.463
		c-0.305,0.23-0.457,0.506-0.457,0.826c0,0.297,0.116,0.547,0.349,0.75s0.571,0.305,1.017,0.305c0.426,0,0.821-0.085,1.187-0.255
		s0.741-0.44,1.128-0.812V32.275z"/>
	<path fill="#00ADEE" d="M266.677,32.756v4.641h1.125c0.078,0,0.134,0.015,0.168,0.045s0.051,0.07,0.051,0.119
		c0,0.047-0.017,0.086-0.051,0.117s-0.09,0.047-0.168,0.047h-2.578c-0.078,0-0.134-0.016-0.168-0.047s-0.051-0.07-0.051-0.117
		c0-0.049,0.017-0.089,0.051-0.119s0.09-0.045,0.168-0.045h1.125v-4.188l-1.07,0.336c-0.052,0.016-0.09,0.023-0.113,0.023
		c-0.039,0-0.075-0.016-0.107-0.049s-0.049-0.071-0.049-0.115c0-0.039,0.013-0.076,0.039-0.109c0.021-0.021,0.064-0.043,0.129-0.066
		L266.677,32.756z"/>
</g>
<g>
	<path fill="#00ADEE" d="M230.313,27.371v3.264c0.594-0.773,1.311-1.16,2.15-1.16c0.719,0,1.334,0.261,1.846,0.782
		s0.768,1.161,0.768,1.919c0,0.766-0.259,1.414-0.776,1.945s-1.13,0.797-1.837,0.797c-0.859,0-1.576-0.387-2.15-1.16v0.967h-1.154
		c-0.117,0-0.201-0.023-0.252-0.07s-0.076-0.105-0.076-0.176c0-0.074,0.025-0.134,0.076-0.179s0.135-0.067,0.252-0.067h0.662v-6.363
		h-0.662c-0.117,0-0.201-0.023-0.252-0.07s-0.076-0.107-0.076-0.182c0-0.07,0.025-0.129,0.076-0.176s0.135-0.07,0.252-0.07H230.313z
		 M234.584,32.199c0-0.621-0.213-1.147-0.639-1.579s-0.924-0.647-1.494-0.647s-1.068,0.216-1.494,0.647s-0.639,0.958-0.639,1.579
		s0.213,1.147,0.639,1.579s0.924,0.647,1.494,0.647s1.068-0.216,1.494-0.647S234.584,32.82,234.584,32.199z"/>
	<path fill="#00ADEE" d="M238.33,32.756v4.641h1.125c0.078,0,0.134,0.015,0.168,0.045s0.051,0.07,0.051,0.119
		c0,0.047-0.017,0.086-0.051,0.117s-0.09,0.047-0.168,0.047h-2.578c-0.078,0-0.134-0.016-0.168-0.047s-0.051-0.07-0.051-0.117
		c0-0.049,0.017-0.089,0.051-0.119s0.09-0.045,0.168-0.045h1.125v-4.188l-1.07,0.336c-0.052,0.016-0.09,0.023-0.113,0.023
		c-0.039,0-0.075-0.016-0.107-0.049s-0.049-0.071-0.049-0.115c0-0.039,0.013-0.076,0.039-0.109c0.021-0.021,0.064-0.043,0.129-0.066
		L238.33,32.756z"/>
</g>
<g>
	<path fill="#00ADEE" d="M176.889,34.725v-0.709c-0.715,0.602-1.479,0.902-2.291,0.902c-0.59,0-1.051-0.149-1.383-0.448
		s-0.498-0.665-0.498-1.099c0-0.477,0.219-0.893,0.656-1.248s1.076-0.533,1.916-0.533c0.227,0,0.473,0.015,0.738,0.044
		s0.553,0.075,0.861,0.138v-0.797c0-0.27-0.125-0.504-0.375-0.703s-0.625-0.299-1.125-0.299c-0.383,0-0.92,0.111-1.611,0.334
		c-0.125,0.039-0.205,0.059-0.24,0.059c-0.063,0-0.116-0.023-0.161-0.07s-0.067-0.105-0.067-0.176c0-0.066,0.02-0.119,0.059-0.158
		c0.055-0.059,0.275-0.139,0.662-0.24c0.609-0.164,1.07-0.246,1.383-0.246c0.621,0,1.105,0.153,1.453,0.46s0.521,0.653,0.521,1.04
		v3.258h0.656c0.121,0,0.207,0.022,0.258,0.067s0.076,0.104,0.076,0.179c0,0.07-0.025,0.129-0.076,0.176s-0.137,0.07-0.258,0.07
		H176.889z M176.889,32.275c-0.23-0.066-0.475-0.115-0.732-0.146s-0.529-0.047-0.814-0.047c-0.715,0-1.273,0.154-1.676,0.463
		c-0.305,0.23-0.457,0.506-0.457,0.826c0,0.297,0.116,0.547,0.349,0.75s0.571,0.305,1.017,0.305c0.426,0,0.821-0.085,1.187-0.255
		s0.741-0.44,1.128-0.812V32.275z"/>
	<path fill="#00ADEE" d="M180.063,37.396h2.52v-0.129c0-0.078,0.016-0.134,0.047-0.168s0.072-0.051,0.121-0.051
		c0.047,0,0.086,0.017,0.117,0.051s0.047,0.09,0.047,0.168v0.457h-3.172V37.24c0.667-0.599,1.315-1.208,1.945-1.828
		c0.294-0.289,0.496-0.501,0.605-0.637s0.184-0.254,0.225-0.357s0.061-0.207,0.061-0.311c0-0.281-0.113-0.53-0.34-0.746
		s-0.5-0.324-0.82-0.324c-0.287,0-0.541,0.082-0.762,0.246s-0.365,0.367-0.43,0.609c-0.016,0.063-0.035,0.103-0.059,0.121
		c-0.031,0.026-0.068,0.039-0.109,0.039c-0.044,0-0.082-0.015-0.111-0.045s-0.045-0.066-0.045-0.107
		c0-0.125,0.068-0.294,0.205-0.508s0.326-0.381,0.566-0.504s0.488-0.184,0.74-0.184c0.409,0,0.76,0.142,1.055,0.426
		s0.441,0.605,0.441,0.965c0,0.151-0.025,0.29-0.074,0.416s-0.133,0.264-0.252,0.414s-0.332,0.375-0.639,0.678
		c-0.771,0.76-1.398,1.35-1.883,1.77V37.396z"/>
</g>
<g>
	<path fill="#00ADEE" d="M145.272,27.371v3.264c0.594-0.773,1.311-1.16,2.15-1.16c0.719,0,1.334,0.261,1.846,0.782
		s0.768,1.161,0.768,1.919c0,0.766-0.259,1.414-0.776,1.945s-1.13,0.797-1.837,0.797c-0.859,0-1.576-0.387-2.15-1.16v0.967h-1.154
		c-0.117,0-0.201-0.023-0.252-0.07s-0.076-0.105-0.076-0.176c0-0.074,0.025-0.134,0.076-0.179s0.135-0.067,0.252-0.067h0.662v-6.363
		h-0.662c-0.117,0-0.201-0.023-0.252-0.07s-0.076-0.107-0.076-0.182c0-0.07,0.025-0.129,0.076-0.176s0.135-0.07,0.252-0.07H145.272z
		 M149.544,32.199c0-0.621-0.213-1.147-0.639-1.579s-0.924-0.647-1.494-0.647s-1.068,0.216-1.494,0.647s-0.639,0.958-0.639,1.579
		s0.213,1.147,0.639,1.579s0.924,0.647,1.494,0.647s1.068-0.216,1.494-0.647S149.544,32.82,149.544,32.199z"/>
	<path fill="#00ADEE" d="M151.716,37.396h2.52v-0.129c0-0.078,0.016-0.134,0.047-0.168s0.072-0.051,0.121-0.051
		c0.047,0,0.086,0.017,0.117,0.051s0.047,0.09,0.047,0.168v0.457h-3.172V37.24c0.667-0.599,1.315-1.208,1.945-1.828
		c0.294-0.289,0.496-0.501,0.605-0.637s0.184-0.254,0.225-0.357s0.061-0.207,0.061-0.311c0-0.281-0.113-0.53-0.34-0.746
		s-0.5-0.324-0.82-0.324c-0.287,0-0.541,0.082-0.762,0.246s-0.365,0.367-0.43,0.609c-0.016,0.063-0.035,0.103-0.059,0.121
		c-0.031,0.026-0.068,0.039-0.109,0.039c-0.044,0-0.082-0.015-0.111-0.045s-0.045-0.066-0.045-0.107
		c0-0.125,0.068-0.294,0.205-0.508s0.326-0.381,0.566-0.504s0.488-0.184,0.74-0.184c0.409,0,0.76,0.142,1.055,0.426
		s0.441,0.605,0.441,0.965c0,0.151-0.025,0.29-0.074,0.416s-0.133,0.264-0.252,0.414s-0.332,0.375-0.639,0.678
		c-0.771,0.76-1.398,1.35-1.883,1.77V37.396z"/>
</g>
<g>
	<path fill="#00ADEE" d="M91.849,34.725v-0.709c-0.715,0.602-1.479,0.902-2.291,0.902c-0.59,0-1.051-0.149-1.383-0.448
		s-0.498-0.665-0.498-1.099c0-0.477,0.219-0.893,0.656-1.248s1.076-0.533,1.916-0.533c0.227,0,0.473,0.015,0.738,0.044
		s0.553,0.075,0.861,0.138v-0.797c0-0.27-0.125-0.504-0.375-0.703s-0.625-0.299-1.125-0.299c-0.383,0-0.92,0.111-1.611,0.334
		c-0.125,0.039-0.205,0.059-0.24,0.059c-0.063,0-0.116-0.023-0.161-0.07s-0.067-0.105-0.067-0.176c0-0.066,0.02-0.119,0.059-0.158
		c0.055-0.059,0.275-0.139,0.662-0.24c0.609-0.164,1.07-0.246,1.383-0.246c0.621,0,1.105,0.153,1.453,0.46s0.521,0.653,0.521,1.04
		v3.258h0.656c0.121,0,0.207,0.022,0.258,0.067s0.076,0.104,0.076,0.179c0,0.07-0.025,0.129-0.076,0.176s-0.137,0.07-0.258,0.07
		H91.849z M91.849,32.275c-0.23-0.066-0.475-0.115-0.732-0.146s-0.529-0.047-0.814-0.047c-0.715,0-1.273,0.154-1.676,0.463
		c-0.305,0.23-0.457,0.506-0.457,0.826c0,0.297,0.116,0.547,0.349,0.75s0.571,0.305,1.017,0.305c0.426,0,0.821-0.085,1.187-0.255
		s0.741-0.44,1.128-0.812V32.275z"/>
	<path fill="#00ADEE" d="M97.109,35.057c0.302,0.135,0.533,0.321,0.691,0.557s0.238,0.481,0.238,0.736
		c0,0.393-0.16,0.74-0.479,1.041s-0.718,0.451-1.197,0.451c-0.281,0-0.573-0.06-0.875-0.18s-0.513-0.242-0.633-0.367
		c-0.039-0.042-0.059-0.086-0.059-0.133c0-0.042,0.015-0.078,0.045-0.109s0.066-0.047,0.107-0.047s0.088,0.02,0.141,0.059
		c0.404,0.299,0.831,0.449,1.281,0.449c0.38,0,0.699-0.119,0.955-0.357s0.385-0.503,0.385-0.795c0-0.195-0.063-0.387-0.189-0.574
		s-0.308-0.335-0.545-0.443s-0.477-0.162-0.719-0.162c-0.078,0-0.134-0.015-0.168-0.045s-0.051-0.07-0.051-0.119
		c0-0.047,0.016-0.086,0.049-0.117s0.082-0.047,0.146-0.047l0.281,0.004c0.294,0,0.537-0.09,0.729-0.27s0.287-0.388,0.287-0.625
		c0-0.245-0.1-0.461-0.301-0.648s-0.462-0.281-0.785-0.281c-0.227,0-0.435,0.039-0.625,0.117s-0.342,0.185-0.457,0.32
		c-0.042,0.052-0.074,0.084-0.096,0.096s-0.047,0.018-0.076,0.018c-0.044,0-0.082-0.015-0.113-0.045s-0.047-0.066-0.047-0.107
		c0-0.104,0.113-0.236,0.34-0.395c0.315-0.221,0.673-0.332,1.074-0.332c0.414,0,0.754,0.125,1.02,0.373s0.398,0.545,0.398,0.889
		c0,0.219-0.064,0.426-0.191,0.621S97.356,34.939,97.109,35.057z"/>
</g>
<g>
	<path fill="#00ADEE" d="M60.233,27.371v3.264c0.594-0.773,1.311-1.16,2.15-1.16c0.719,0,1.334,0.261,1.846,0.782
		s0.768,1.161,0.768,1.919c0,0.766-0.259,1.414-0.776,1.945s-1.13,0.797-1.837,0.797c-0.859,0-1.576-0.387-2.15-1.16v0.967h-1.154
		c-0.117,0-0.201-0.023-0.252-0.07s-0.076-0.105-0.076-0.176c0-0.074,0.025-0.134,0.076-0.179s0.135-0.067,0.252-0.067h0.662v-6.363
		h-0.662c-0.117,0-0.201-0.023-0.252-0.07s-0.076-0.107-0.076-0.182c0-0.07,0.025-0.129,0.076-0.176s0.135-0.07,0.252-0.07H60.233z
		 M64.504,32.199c0-0.621-0.213-1.147-0.639-1.579s-0.924-0.647-1.494-0.647s-1.068,0.216-1.494,0.647s-0.639,0.958-0.639,1.579
		s0.213,1.147,0.639,1.579s0.924,0.647,1.494,0.647s1.068-0.216,1.494-0.647S64.504,32.82,64.504,32.199z"/>
	<path fill="#00ADEE" d="M68.762,35.057c0.302,0.135,0.533,0.321,0.691,0.557s0.238,0.481,0.238,0.736
		c0,0.393-0.16,0.74-0.479,1.041s-0.718,0.451-1.197,0.451c-0.281,0-0.573-0.06-0.875-0.18s-0.513-0.242-0.633-0.367
		c-0.039-0.042-0.059-0.086-0.059-0.133c0-0.042,0.015-0.078,0.045-0.109s0.066-0.047,0.107-0.047s0.088,0.02,0.141,0.059
		c0.404,0.299,0.831,0.449,1.281,0.449c0.38,0,0.699-0.119,0.955-0.357s0.385-0.503,0.385-0.795c0-0.195-0.063-0.387-0.189-0.574
		s-0.308-0.335-0.545-0.443s-0.477-0.162-0.719-0.162c-0.078,0-0.134-0.015-0.168-0.045s-0.051-0.07-0.051-0.119
		c0-0.047,0.016-0.086,0.049-0.117s0.082-0.047,0.146-0.047l0.281,0.004c0.294,0,0.537-0.09,0.729-0.27s0.287-0.388,0.287-0.625
		c0-0.245-0.1-0.461-0.301-0.648s-0.462-0.281-0.785-0.281c-0.227,0-0.435,0.039-0.625,0.117s-0.342,0.185-0.457,0.32
		c-0.042,0.052-0.074,0.084-0.096,0.096s-0.047,0.018-0.076,0.018c-0.044,0-0.082-0.015-0.113-0.045s-0.047-0.066-0.047-0.107
		c0-0.104,0.113-0.236,0.34-0.395c0.315-0.221,0.673-0.332,1.074-0.332c0.414,0,0.754,0.125,1.02,0.373s0.398,0.545,0.398,0.889
		c0,0.219-0.064,0.426-0.191,0.621S69.01,34.939,68.762,35.057z"/>
</g>
</svg>
