<?xml version="1.0" encoding="utf-8"?>
<!-- Generator: Adobe Illustrator 15.0.0, SVG Export Plug-In . SVG Version: 6.00 Build 0)  -->
<!DOCTYPE svg PUBLIC "-//W3C//DTD SVG 1.1//EN" "http://www.w3.org/Graphics/SVG/1.1/DTD/svg11.dtd">
<svg version="1.1" id="Layer_1" xmlns="http://www.w3.org/2000/svg" xmlns:xlink="http://www.w3.org/1999/xlink" x="0px" y="0px"
	 width="333.07px" height="325.984px" viewBox="0 0 333.07 325.984" enable-background="new 0 0 333.07 325.984"
	 xml:space="preserve">
<rect x="55.278" y="46.772" fill="#EAEAFF" stroke="#231F20" stroke-width="3" stroke-miterlimit="10" width="226.77" height="226.77"/>
<g>
	<path fill="#EC1C24" d="M33.367,156.675v-0.328c0-0.242,0.047-0.414,0.141-0.516s0.211-0.152,0.352-0.152
		c0.148,0,0.27,0.051,0.363,0.152s0.141,0.273,0.141,0.516v2.227c-0.008,0.242-0.057,0.414-0.146,0.516s-0.209,0.152-0.357,0.152
		c-0.133,0-0.244-0.045-0.334-0.135s-0.143-0.24-0.158-0.451c-0.047-0.555-0.412-1.082-1.096-1.582s-1.604-0.75-2.76-0.75
		c-1.461,0-2.57,0.457-3.328,1.371s-1.137,1.961-1.137,3.141c0,1.273,0.418,2.324,1.254,3.152s1.918,1.242,3.246,1.242
		c0.766,0,1.545-0.141,2.338-0.422s1.51-0.734,2.15-1.359c0.164-0.156,0.309-0.234,0.434-0.234c0.133,0,0.244,0.045,0.334,0.135
		s0.135,0.201,0.135,0.334c0,0.336-0.395,0.762-1.184,1.277c-1.273,0.836-2.691,1.254-4.254,1.254c-1.586,0-2.889-0.506-3.908-1.518
		s-1.529-2.295-1.529-3.85c0-1.586,0.521-2.902,1.564-3.949s2.357-1.57,3.943-1.57C31.078,155.327,32.344,155.776,33.367,156.675z"
		/>
	<path fill="#EC1C24" d="M44.93,168.46c0,1-0.358,1.854-1.074,2.563c-0.716,0.708-1.58,1.063-2.59,1.063
		c-1.021,0-1.888-0.355-2.602-1.066c-0.714-0.711-1.07-1.563-1.07-2.559c0-1,0.356-1.855,1.07-2.566
		c0.713-0.711,1.581-1.066,2.602-1.066c1.01,0,1.874,0.354,2.59,1.063C44.571,166.598,44.93,167.455,44.93,168.46z M44.266,168.46
		c0-0.823-0.293-1.523-0.879-2.102s-1.296-0.867-2.129-0.867c-0.833,0-1.543,0.29-2.129,0.871s-0.879,1.28-0.879,2.098
		c0,0.813,0.293,1.511,0.879,2.094s1.295,0.875,2.129,0.875c0.833,0,1.543-0.29,2.129-0.871S44.266,169.277,44.266,168.46z"/>
</g>
<g>
	<path fill="#EC1C24" d="M299.115,185.021v-0.328c0-0.242,0.047-0.414,0.141-0.516s0.211-0.152,0.352-0.152
		c0.148,0,0.27,0.051,0.363,0.152s0.141,0.273,0.141,0.516v2.227c-0.008,0.242-0.057,0.414-0.146,0.516s-0.209,0.152-0.357,0.152
		c-0.133,0-0.244-0.045-0.334-0.135s-0.143-0.24-0.158-0.451c-0.047-0.555-0.412-1.082-1.096-1.582s-1.604-0.75-2.76-0.75
		c-1.461,0-2.57,0.457-3.328,1.371s-1.137,1.961-1.137,3.141c0,1.273,0.418,2.324,1.254,3.152s1.918,1.242,3.246,1.242
		c0.766,0,1.545-0.141,2.338-0.422s1.51-0.734,2.15-1.359c0.164-0.156,0.309-0.234,0.434-0.234c0.133,0,0.244,0.045,0.334,0.135
		s0.135,0.201,0.135,0.334c0,0.336-0.395,0.762-1.184,1.277c-1.273,0.836-2.691,1.254-4.254,1.254c-1.586,0-2.889-0.506-3.908-1.518
		s-1.529-2.295-1.529-3.85c0-1.586,0.521-2.902,1.564-3.949s2.357-1.57,3.943-1.57C296.826,183.674,298.092,184.123,299.115,185.021
		z"/>
	<path fill="#EC1C24" d="M307.357,193.408v6.109h2.578c0.161,0,0.276,0.031,0.344,0.09c0.067,0.061,0.102,0.141,0.102,0.238
		c0,0.094-0.034,0.172-0.102,0.234s-0.183,0.094-0.344,0.094h-5.813c-0.156,0-0.269-0.031-0.336-0.094s-0.102-0.141-0.102-0.234
		c0-0.098,0.034-0.178,0.102-0.238c0.067-0.059,0.18-0.09,0.336-0.09h2.578v-5.445h-1.914c-0.156,0-0.27-0.031-0.34-0.094
		s-0.105-0.141-0.105-0.234c0-0.098,0.034-0.18,0.102-0.242s0.183-0.094,0.344-0.094H307.357z M307.334,190.041v1.695h-0.969v-1.695
		H307.334z"/>
</g>
<g>
	<path fill="#00ADEE" d="M233.029,38.977v-1.418c-1.43,1.203-2.957,1.805-4.582,1.805c-1.18,0-2.102-0.299-2.766-0.896
		s-0.996-1.33-0.996-2.197c0-0.953,0.438-1.785,1.313-2.496s2.152-1.066,3.832-1.066c0.453,0,0.945,0.029,1.477,0.088
		s1.105,0.15,1.723,0.275v-1.594c0-0.539-0.25-1.008-0.75-1.406s-1.25-0.598-2.25-0.598c-0.766,0-1.84,0.223-3.223,0.668
		c-0.25,0.078-0.41,0.117-0.48,0.117c-0.125,0-0.232-0.047-0.322-0.141s-0.135-0.211-0.135-0.352c0-0.133,0.039-0.238,0.117-0.316
		c0.109-0.117,0.551-0.277,1.324-0.48c1.219-0.328,2.141-0.492,2.766-0.492c1.242,0,2.211,0.307,2.906,0.92s1.043,1.307,1.043,2.08
		v6.516h1.313c0.242,0,0.414,0.045,0.516,0.135s0.152,0.209,0.152,0.357c0,0.141-0.051,0.258-0.152,0.352s-0.273,0.141-0.516,0.141
		H233.029z M233.029,34.078c-0.461-0.133-0.949-0.23-1.465-0.293s-1.059-0.094-1.629-0.094c-1.43,0-2.547,0.309-3.352,0.926
		c-0.609,0.461-0.914,1.012-0.914,1.652c0,0.594,0.232,1.094,0.697,1.5s1.143,0.609,2.033,0.609c0.852,0,1.643-0.17,2.373-0.51
		s1.482-0.881,2.256-1.623V34.078z"/>
</g>
<g>
	<path fill="#00ADEE" d="M208.648,281.047c0-0.227,0.047-0.391,0.141-0.492s0.211-0.152,0.352-0.152c0.148,0,0.27,0.051,0.363,0.152
		s0.141,0.273,0.141,0.516v1.688c0,0.234-0.047,0.402-0.141,0.504s-0.215,0.152-0.363,0.152c-0.133,0-0.244-0.043-0.334-0.129
		s-0.143-0.227-0.158-0.422c-0.047-0.469-0.289-0.855-0.727-1.16c-0.641-0.438-1.488-0.656-2.543-0.656
		c-1.102,0-1.957,0.223-2.566,0.668c-0.461,0.336-0.691,0.711-0.691,1.125c0,0.469,0.273,0.859,0.82,1.172
		c0.375,0.219,1.086,0.387,2.133,0.504c1.367,0.148,2.316,0.316,2.848,0.504c0.758,0.273,1.322,0.652,1.693,1.137
		s0.557,1.008,0.557,1.57c0,0.836-0.402,1.58-1.207,2.232s-1.984,0.979-3.539,0.979s-2.828-0.395-3.82-1.184
		c0,0.266-0.016,0.438-0.047,0.516s-0.088,0.145-0.17,0.199s-0.174,0.082-0.275,0.082c-0.141,0-0.258-0.051-0.352-0.152
		s-0.141-0.27-0.141-0.504v-2.027c0-0.234,0.045-0.402,0.135-0.504s0.209-0.152,0.357-0.152c0.141,0,0.26,0.049,0.357,0.146
		s0.146,0.229,0.146,0.393c0,0.359,0.09,0.66,0.27,0.902c0.273,0.375,0.709,0.686,1.307,0.932s1.33,0.369,2.197,0.369
		c1.281,0,2.234-0.238,2.859-0.715s0.938-0.98,0.938-1.512c0-0.609-0.316-1.098-0.949-1.465c-0.641-0.367-1.572-0.613-2.795-0.738
		s-2.1-0.289-2.631-0.492s-0.945-0.508-1.242-0.914s-0.445-0.844-0.445-1.313c0-0.844,0.414-1.514,1.242-2.01
		s1.816-0.744,2.965-0.744C206.691,280.051,207.797,280.383,208.648,281.047z"/>
</g>
<line fill="none" stroke="#00ADEE" stroke-miterlimit="10" x1="242.362" y1="131.811" x2="242.362" y2="18.425"/>
<line fill="none" stroke="#00ADEE" stroke-miterlimit="10" x1="117.638" y1="69.449" x2="117.638" y2="18.425"/>
<line fill="none" stroke="#EC1C24" stroke-width="1.0268" stroke-miterlimit="10" x1="174.331" y1="205.512" x2="311.811" y2="205.512"/>
<line fill="none" stroke="#00ADEE" stroke-miterlimit="10" x1="219.686" y1="120.471" x2="219.686" y2="69.449"/>
<line fill="none" stroke="#231F20" stroke-miterlimit="10" x1="231.022" y1="222.521" x2="231.022" y2="165.827"/>
<line fill="none" stroke="#00ADEE" stroke-miterlimit="10" x1="219.686" y1="131.811" x2="219.686" y2="114.804"/>
<g>
	<g>
		<line fill="none" stroke="#00ADEE" stroke-miterlimit="10" x1="219.685" y1="300.264" x2="219.685" y2="256.851"/>
		<g>
			<polygon fill="#00ADEE" points="225.819,295.294 224.721,294.271 219.686,299.688 214.65,294.271 213.551,295.294 
				219.686,301.891 			"/>
		</g>
	</g>
</g>
<line fill="none" stroke="#00ADEE" stroke-miterlimit="10" x1="219.686" y1="114.804" x2="174.331" y2="114.804"/>
<line fill="none" stroke="#00ADEE" stroke-miterlimit="10" x1="242.362" y1="92.126" x2="174.331" y2="92.126"/>
<line fill="none" stroke="#231F20" stroke-miterlimit="10" x1="127.243" y1="171.496" x2="127.243" y2="103.465"/>
<line fill="none" stroke="#00ADEE" stroke-miterlimit="10" x1="219.687" y1="69.449" x2="117.639" y2="69.449"/>
<line fill="none" stroke="#231F20" stroke-miterlimit="10" x1="127.242" y1="171.496" x2="115.904" y2="171.496"/>
<line fill="none" stroke="#231F20" stroke-miterlimit="10" x1="140.315" y1="194.174" x2="115.904" y2="194.174"/>
<g>
	<g>
		<line fill="none" stroke="#EC1C24" stroke-miterlimit="10" x1="83.622" y1="182.834" x2="28.556" y2="182.834"/>
		<g>
			<polygon fill="#EC1C24" points="33.526,176.699 34.549,177.798 29.132,182.832 34.549,187.869 33.526,188.967 26.929,182.832 			
				"/>
		</g>
	</g>
</g>
<line fill="none" stroke="#231F20" stroke-miterlimit="10" x1="231.023" y1="182.834" x2="174.331" y2="182.834"/>
<line fill="none" stroke="#231F20" stroke-miterlimit="10" x1="140.315" y1="103.465" x2="127.243" y2="103.465"/>
<line fill="none" stroke="#EC1C24" stroke-miterlimit="10" x1="208.346" y1="222.521" x2="208.346" y2="205.512"/>
<g>
	<path fill="#00ADEE" d="M103.298,24.27v6.527c1.188-1.547,2.621-2.32,4.301-2.32c1.438,0,2.668,0.521,3.691,1.564
		s1.535,2.322,1.535,3.838c0,1.531-0.518,2.828-1.553,3.891s-2.26,1.594-3.674,1.594c-1.719,0-3.152-0.773-4.301-2.32v1.934h-2.309
		c-0.234,0-0.402-0.047-0.504-0.141s-0.152-0.211-0.152-0.352c0-0.148,0.051-0.268,0.152-0.357s0.27-0.135,0.504-0.135h1.324V25.266
		h-1.324c-0.234,0-0.402-0.047-0.504-0.141s-0.152-0.215-0.152-0.363c0-0.141,0.051-0.258,0.152-0.352s0.27-0.141,0.504-0.141
		H103.298z M111.841,33.926c0-1.242-0.426-2.295-1.277-3.158s-1.848-1.295-2.988-1.295s-2.137,0.432-2.988,1.295
		s-1.277,1.916-1.277,3.158s0.426,2.295,1.277,3.158s1.848,1.295,2.988,1.295s2.137-0.432,2.988-1.295
		S111.841,35.168,111.841,33.926z"/>
</g>
<g opacity="0.5">
	<path opacity="0.7" fill="#231F20" d="M62.123,292.306v13.613h7.207c0.391,0,0.671,0.075,0.84,0.225s0.254,0.349,0.254,0.596
		c0,0.234-0.085,0.43-0.254,0.586s-0.449,0.234-0.84,0.234H56.498c-0.391,0-0.671-0.078-0.84-0.234
		c-0.169-0.156-0.254-0.352-0.254-0.586c0-0.247,0.084-0.446,0.254-0.596c0.169-0.149,0.449-0.225,0.84-0.225h3.965v-13.613h-3.555
		c-0.391,0-0.671-0.078-0.84-0.234c-0.169-0.156-0.254-0.358-0.254-0.605c0-0.234,0.084-0.43,0.254-0.586
		c0.169-0.156,0.449-0.234,0.84-0.234h3.555v-2.48c0-1.38,0.56-2.578,1.68-3.594s2.604-1.523,4.453-1.523
		c1.55,0,3.203,0.144,4.961,0.43c0.664,0.104,1.064,0.228,1.201,0.371s0.205,0.332,0.205,0.566s-0.078,0.427-0.234,0.576
		s-0.364,0.225-0.625,0.225c-0.104,0-0.28-0.02-0.527-0.059c-1.966-0.3-3.626-0.449-4.98-0.449c-1.433,0-2.536,0.352-3.311,1.055
		s-1.162,1.504-1.162,2.402v2.48h7.676c0.391,0,0.671,0.078,0.84,0.234s0.254,0.358,0.254,0.605c0,0.234-0.085,0.43-0.254,0.586
		s-0.449,0.234-0.84,0.234H62.123z"/>
	<path opacity="0.7" fill="#231F20" d="M91.928,307.56v-2.363c-2.383,2.005-4.929,3.008-7.637,3.008
		c-1.966,0-3.503-0.498-4.609-1.494s-1.66-2.217-1.66-3.662c0-1.589,0.729-2.976,2.188-4.16s3.587-1.777,6.387-1.777
		c0.755,0,1.575,0.049,2.461,0.146s1.843,0.251,2.871,0.459v-2.656c0-0.898-0.417-1.68-1.25-2.344s-2.083-0.996-3.75-0.996
		c-1.276,0-3.066,0.371-5.371,1.113c-0.417,0.13-0.684,0.195-0.801,0.195c-0.208,0-0.388-0.078-0.537-0.234
		s-0.225-0.352-0.225-0.586c0-0.222,0.065-0.397,0.195-0.527c0.183-0.195,0.918-0.462,2.207-0.801
		c2.031-0.547,3.567-0.82,4.609-0.82c2.07,0,3.685,0.511,4.844,1.533s1.738,2.178,1.738,3.467v10.859h2.188
		c0.403,0,0.69,0.075,0.859,0.225s0.254,0.349,0.254,0.596c0,0.234-0.085,0.43-0.254,0.586s-0.456,0.234-0.859,0.234H91.928z
		 M91.928,299.396c-0.769-0.222-1.582-0.384-2.441-0.488s-1.765-0.156-2.715-0.156c-2.383,0-4.245,0.515-5.586,1.543
		c-1.016,0.769-1.523,1.687-1.523,2.754c0,0.989,0.388,1.823,1.162,2.5s1.904,1.016,3.389,1.016c1.419,0,2.737-0.283,3.955-0.85
		s2.471-1.468,3.76-2.705V299.396z"/>
</g>
<path fill="#FFFFFF" stroke="#2D2D2D" stroke-width="2" d="M156.112,86.457h18.219v18.219v15.797h-18.219l0,0
	c-8.724,0-15.797-8.283-15.797-17.008C140.315,94.743,147.389,86.457,156.112,86.457z"/>
<path fill="#FFFFFF" stroke="#2D2D2D" stroke-width="2" d="M156.112,177.166h18.219v18.219v15.797h-18.219l0,0
	c-8.724,0-15.797-8.283-15.797-17.008C140.315,185.452,147.389,177.166,156.112,177.166z"/>
<g>
	<path fill="none" stroke="#2D2D2D" stroke-width="2" d="M202.678,216.852c0.85,1.014,1.786,1.951,2.801,2.801
		c9.554,8.008,23.79,6.754,31.796-2.801"/>
	<path fill="#FFFFFF" stroke="#2D2D2D" stroke-width="2" stroke-linecap="round" stroke-linejoin="round" d="M202.678,221.914
		v13.739c0.907,8.887,7.316,16.934,17.299,21.719c9.982-4.785,16.391-12.832,17.298-21.719v-13.739v0.207
		c-8.006,9.555-22.242,10.809-31.796,2.801c-1.015-0.85-1.951-1.787-2.801-2.801"/>
</g>
<g>
	<path fill="none" stroke="#2D2D2D" stroke-width="2" d="M213.436,126.143c0.85,1.014,1.786,1.951,2.801,2.801
		c9.554,8.008,23.79,6.754,31.796-2.801"/>
	<path fill="#FFFFFF" stroke="#2D2D2D" stroke-width="2" stroke-linecap="round" stroke-linejoin="round" d="M213.436,131.205
		v13.739c0.907,8.887,7.316,16.934,17.299,21.719c9.982-4.785,16.391-12.832,17.298-21.719v-13.739v0.207
		c-8.006,9.555-22.242,10.809-31.796,2.801c-1.015-0.85-1.951-1.787-2.801-2.801"/>
</g>
<g>
	<path fill="#FFFFFF" stroke="#2D2D2D" stroke-width="2" stroke-linecap="round" stroke-linejoin="round" d="M122.622,165.246
		H107.51c-9.774,0.906-18.624,7.316-23.888,17.299c5.264,9.982,14.113,16.391,23.888,17.298h15.112h-0.228
		c-10.508-8.007-11.889-22.243-3.081-31.796c0.935-1.016,1.966-1.951,3.081-2.801"/>
</g>
</svg>
